<svg width="204" height="40" viewBox="0 0 204 40" fill="none" xmlns="http://www.w3.org/2000/svg">
<path d="M64.1568 31.8307C63.9859 32.324 63.6514 32.7516 63.2032 33.0498C62.7551 33.3481 62.2173 33.501 61.67 33.4857C61.3219 33.4923 60.9759 33.433 60.6522 33.3112C60.3286 33.1894 60.0338 33.0076 59.7851 32.7764C59.5365 32.5452 59.339 32.2693 59.2041 31.9649C59.0693 31.6604 58.9999 31.3335 59 31.0033C59 30.3449 59.2758 29.7134 59.7667 29.2479C60.2576 28.7823 60.9234 28.5208 61.6177 28.5208C61.9639 28.5145 62.308 28.5735 62.63 28.6942C62.952 28.815 63.2456 28.9951 63.4937 29.2242C63.7999 29.4935 64.0231 29.8368 64.1394 30.2171H62.8131C62.7088 30.0109 62.5416 29.8391 62.3331 29.724C62.1246 29.6089 61.8845 29.5559 61.6439 29.5717C61.4466 29.5654 61.2501 29.5985 61.0673 29.669C60.8844 29.7395 60.7193 29.8457 60.5826 29.9808C60.4459 30.1159 60.3408 30.2767 60.2741 30.4529C60.2074 30.6291 60.1806 30.8166 60.1954 31.0033C60.1847 31.1898 60.2143 31.3765 60.2823 31.5518C60.3503 31.7272 60.4553 31.8875 60.5909 32.0231C60.7264 32.1586 60.8898 32.2665 61.0708 32.3401C61.2519 32.4138 61.4469 32.4516 61.6439 32.4514C61.8805 32.4621 62.1155 32.4096 62.3222 32.2999C62.5289 32.1902 62.699 32.0276 62.8131 31.8307H64.1568Z" fill="#164D9D"/>
<path d="M66.9229 29.6793V33.3864H65.7187V29.6793H64.5582V28.678H68.0485V29.7124L66.9229 29.6793Z" fill="#164D9D"/>
<path d="M73.7114 31.0198C73.72 31.5224 73.5702 32.016 73.2811 32.4373C72.992 32.8586 72.5769 33.1885 72.0888 33.3846C71.6008 33.5808 71.0621 33.6342 70.5419 33.5382C70.0216 33.4421 69.5434 33.2009 69.1686 32.8455C68.7938 32.49 68.5395 32.0365 68.4382 31.5432C68.3369 31.0498 68.3933 30.5389 68.6001 30.0761C68.8069 29.6133 69.1547 29.2196 69.599 28.9454C70.0433 28.6713 70.5637 28.5292 71.0937 28.5374C71.788 28.5374 72.4538 28.7989 72.9447 29.2644C73.4356 29.73 73.7114 30.3614 73.7114 31.0198ZM69.6016 31.0198C69.6137 31.2898 69.7094 31.5504 69.8769 31.769C70.0443 31.9876 70.2761 32.1545 70.5431 32.2489C70.8101 32.3432 71.1005 32.3608 71.3779 32.2994C71.6554 32.238 71.9076 32.1003 72.103 31.9037C72.2984 31.707 72.4283 31.46 72.4764 31.1937C72.5246 30.9274 72.4888 30.6535 72.3736 30.4064C72.2584 30.1592 72.0689 29.9498 71.8289 29.8043C71.5888 29.6588 71.3088 29.5836 71.0239 29.5883C70.6374 29.6012 70.2717 29.7577 70.0057 30.0239C69.7396 30.2901 69.5945 30.6448 69.6016 31.0115V31.0198Z" fill="#164D9D"/>
<path d="M76.9748 32.4017L75.6485 30.2502V33.3864H74.4444V28.678H75.823L77.3238 31.1108L78.8333 28.678H80.2033V33.4195H79.0079V30.2502L77.6467 32.4017H76.9748Z" fill="#164D9D"/>
<path d="M86.2239 33.3864H85.1245V32.8154C84.9297 33.0531 84.6772 33.2427 84.3886 33.368C84.1 33.4934 83.7837 33.5508 83.4666 33.5354C83.1251 33.5428 82.7857 33.483 82.4698 33.3597C82.1539 33.2363 81.8684 33.0522 81.6314 32.8189C81.3944 32.5856 81.211 32.3081 81.0929 32.0042C80.9747 31.7002 80.9243 31.3763 80.9449 31.0529C80.9307 30.7289 80.9863 30.4055 81.1083 30.1026C81.2304 29.7996 81.4164 29.5235 81.6549 29.2911C81.8935 29.0587 82.1795 28.875 82.4955 28.751C82.8115 28.6271 83.1509 28.5657 83.4928 28.5705C83.8093 28.5516 84.1256 28.6101 84.4113 28.7405C84.6971 28.8709 84.9427 29.0688 85.1245 29.3152V28.678H86.2239V33.3864ZM82.1578 31.0612C82.1578 31.4299 82.3123 31.7835 82.5872 32.0442C82.8621 32.3049 83.2349 32.4514 83.6237 32.4514C84.0125 32.4514 84.3854 32.3049 84.6603 32.0442C84.9352 31.7835 85.0896 31.4299 85.0896 31.0612C85.0896 30.6925 84.9352 30.3389 84.6603 30.0782C84.3854 29.8175 84.0125 29.671 83.6237 29.671C83.2349 29.671 82.8621 29.8175 82.5872 30.0782C82.3123 30.3389 82.1578 30.6925 82.1578 31.0612Z" fill="#164D9D"/>
<path d="M89.243 29.6793V33.3864H88.0389V29.6793H86.8784V28.678H90.3686V29.7124L89.243 29.6793Z" fill="#164D9D"/>
<path d="M96.0316 31.0198C96.0316 31.5108 95.878 31.9907 95.5904 32.399C95.3028 32.8072 94.8939 33.1254 94.4156 33.3133C93.9373 33.5012 93.411 33.5503 92.9032 33.4546C92.3954 33.3588 91.929 33.1223 91.5629 32.7752C91.1968 32.428 90.9475 31.9857 90.8465 31.5041C90.7455 31.0226 90.7973 30.5234 90.9954 30.0698C91.1936 29.6162 91.5291 29.2285 91.9596 28.9557C92.39 28.6829 92.8961 28.5374 93.4139 28.5374C94.1081 28.5374 94.7739 28.7989 95.2648 29.2644C95.7558 29.73 96.0316 30.3614 96.0316 31.0198ZM91.9218 31.0198C91.9355 31.289 92.0324 31.5484 92.2004 31.7657C92.3685 31.9831 92.6002 32.1487 92.8667 32.2421C93.1333 32.3354 93.423 32.3524 93.6996 32.2908C93.9763 32.2292 94.2277 32.0918 94.4226 31.8957C94.6175 31.6996 94.7473 31.4534 94.7958 31.1879C94.8442 30.9223 94.8093 30.6491 94.6953 30.4023C94.5812 30.1555 94.3931 29.9459 94.1544 29.7997C93.9157 29.6535 93.6369 29.5771 93.3528 29.58C92.964 29.5929 92.5961 29.7503 92.3284 30.018C92.0607 30.2858 91.9147 30.6426 91.9218 31.0115V31.0198Z" fill="#164D9D"/>
<path d="M99.8534 33.3864L98.5882 30.2337L97.3142 33.3864H96.0316L98.1082 28.678H99.0506L101.136 33.4195L99.8534 33.3864Z" fill="#164D9D"/>
<path d="M106.441 31.0198C106.45 31.5224 106.3 32.016 106.011 32.4373C105.722 32.8586 105.307 33.1885 104.819 33.3846C104.331 33.5808 103.792 33.6342 103.272 33.5382C102.751 33.4421 102.273 33.2009 101.898 32.8455C101.524 32.49 101.269 32.0365 101.168 31.5432C101.067 31.0498 101.123 30.5389 101.33 30.0761C101.537 29.6133 101.885 29.2196 102.329 28.9454C102.773 28.6713 103.294 28.5292 103.824 28.5374C104.518 28.5374 105.184 28.7989 105.675 29.2644C106.165 29.73 106.441 30.3614 106.441 31.0198ZM102.331 31.0198C102.343 31.2894 102.439 31.5497 102.606 31.7682C102.773 31.9866 103.004 32.1536 103.271 32.2482C103.537 32.3428 103.827 32.3609 104.105 32.3002C104.382 32.2395 104.634 32.1027 104.83 31.9068C105.026 31.711 105.156 31.4648 105.205 31.199C105.254 30.9332 105.22 30.6595 105.106 30.4122C104.992 30.1649 104.804 29.9549 104.565 29.8083C104.326 29.6618 104.047 29.5852 103.762 29.5883C103.375 29.6012 103.009 29.7574 102.741 30.0234C102.474 30.2894 102.327 30.644 102.331 31.0115V31.0198Z" fill="#164D9D"/>
<path d="M110.01 29.6793H108.378V33.3864H107.183V28.678H110.01V29.6793Z" fill="#164D9D"/>
<path d="M115.315 28.678V33.4195H114.12V30.2502L111.886 33.3864H110.664V28.678H111.86V31.8142L114.094 28.678H115.315Z" fill="#164D9D"/>
<path d="M116.144 30.1923C116.146 29.9805 116.193 29.7712 116.283 29.5772C116.373 29.3832 116.504 29.2085 116.667 29.0638C116.83 28.9191 117.023 28.8074 117.233 28.7354C117.443 28.6634 117.666 28.6326 117.889 28.6449H119.957V33.3864H118.744V31.7314H118.456L117.401 33.3864H115.952L117.217 31.6404C116.903 31.5331 116.631 31.3365 116.439 31.0773C116.247 30.8182 116.144 30.5091 116.144 30.1923ZM118.762 29.6793H117.976C117.833 29.6793 117.695 29.7333 117.594 29.8295C117.493 29.9258 117.436 30.0563 117.436 30.1923C117.436 30.3284 117.493 30.4589 117.594 30.5551C117.695 30.6513 117.833 30.7054 117.976 30.7054H118.762V29.6793Z" fill="#164D9D"/>
<path d="M128.116 34.5201L127.863 33.3864H124.172L123.892 34.5201H123.02V32.3521H123.788L125.489 28.678H126.51L128.177 32.3852H128.945V34.5532L128.116 34.5201ZM126.013 30.2089L125.062 32.3521H126.955L126.013 30.2089Z" fill="#164D9D"/>
<path d="M134.468 31.0198C134.468 31.5108 134.314 31.9907 134.027 32.399C133.739 32.8072 133.33 33.1254 132.852 33.3133C132.374 33.5012 131.847 33.5503 131.34 33.4546C130.832 33.3588 130.365 33.1223 129.999 32.7752C129.633 32.428 129.384 31.9857 129.283 31.5041C129.182 31.0226 129.234 30.5234 129.432 30.0698C129.63 29.6162 129.965 29.2285 130.396 28.9557C130.826 28.6829 131.333 28.5374 131.85 28.5374C132.544 28.5374 133.21 28.7989 133.701 29.2644C134.192 29.73 134.468 30.3614 134.468 31.0198ZM130.358 31.0198C130.369 31.2918 130.463 31.5549 130.631 31.776C130.798 31.9971 131.031 32.1664 131.299 32.2626C131.568 32.3589 131.86 32.3777 132.14 32.3169C132.42 32.2561 132.674 32.1182 132.872 31.9207C133.069 31.7231 133.201 31.4747 133.25 31.2065C133.299 30.9383 133.264 30.6623 133.148 30.4132C133.032 30.164 132.842 29.9528 132.6 29.8061C132.358 29.6593 132.076 29.5835 131.789 29.5883C131.402 29.6012 131.035 29.7574 130.768 30.0234C130.5 30.2894 130.353 30.644 130.358 31.0115V31.0198Z" fill="#164D9D"/>
<path d="M135.236 28.678H136.44V30.8295L138.185 28.6449H139.599L137.6 30.995L139.703 33.3864H138.141L136.396 31.2019V33.3864H135.236V28.678Z" fill="#164D9D"/>
<path d="M142.216 29.6793V33.3864H141.012V29.6793H139.852V28.678H143.342V29.7124L142.216 29.6793Z" fill="#164D9D"/>
<path d="M149.04 31.0198C149.04 31.5108 148.886 31.9907 148.599 32.399C148.311 32.8072 147.902 33.1254 147.424 33.3133C146.945 33.5012 146.419 33.5503 145.911 33.4546C145.404 33.3588 144.937 33.1223 144.571 32.7752C144.205 32.428 143.956 31.9857 143.855 31.5041C143.754 31.0226 143.805 30.5234 144.004 30.0698C144.202 29.6162 144.537 29.2285 144.968 28.9557C145.398 28.6829 145.904 28.5374 146.422 28.5374C147.116 28.5374 147.782 28.7989 148.273 29.2644C148.764 29.73 149.04 30.3614 149.04 31.0198ZM144.93 31.0198C144.942 31.2894 145.037 31.5497 145.205 31.7682C145.372 31.9866 145.603 32.1536 145.869 32.2482C146.136 32.3428 146.426 32.3609 146.703 32.3002C146.98 32.2395 147.233 32.1027 147.428 31.9068C147.624 31.711 147.755 31.4648 147.804 31.199C147.853 30.9332 147.818 30.6595 147.705 30.4122C147.591 30.1649 147.403 29.9549 147.164 29.8083C146.925 29.6618 146.645 29.5852 146.361 29.5883C145.974 29.6012 145.607 29.7574 145.34 30.0234C145.072 30.2894 144.925 30.644 144.93 31.0115V31.0198Z" fill="#164D9D"/>
<path d="M149.781 28.678H150.881V29.2324C151.084 29.012 151.337 28.8375 151.621 28.7215C151.905 28.6056 152.212 28.5511 152.521 28.5622C152.861 28.5582 153.197 28.6206 153.51 28.7454C153.823 28.8703 154.105 29.055 154.339 29.2879C154.573 29.5209 154.754 29.7971 154.871 30.0993C154.988 30.4016 155.037 30.7234 155.017 31.0446C155.033 31.3657 154.981 31.6867 154.862 31.9879C154.744 32.289 154.562 32.5642 154.327 32.7965C154.093 33.0288 153.811 33.2134 153.499 33.339C153.187 33.4646 152.852 33.5286 152.513 33.5271C152.231 33.5348 151.95 33.4899 151.686 33.3948C151.423 33.2996 151.182 33.1562 150.977 32.9727V34.9669H149.781V28.678ZM150.942 31.0364C150.937 31.222 150.972 31.4066 151.044 31.5792C151.116 31.7518 151.225 31.9089 151.362 32.0409C151.5 32.173 151.664 32.2774 151.845 32.3479C152.026 32.4185 152.221 32.4536 152.417 32.4514C152.798 32.4239 153.155 32.2607 153.415 31.9945C153.675 31.7282 153.82 31.3787 153.82 31.0157C153.82 30.6527 153.675 30.3031 153.415 30.0369C153.155 29.7707 152.798 29.6075 152.417 29.58C152.217 29.5774 152.019 29.6138 151.835 29.6869C151.651 29.7599 151.484 29.8681 151.346 30.0046C151.208 30.1412 151.1 30.3032 151.031 30.4807C150.961 30.6582 150.931 30.8473 150.942 31.0364Z" fill="#164D9D"/>
<path d="M160.802 33.3864H159.668V32.8154C159.471 33.0533 159.217 33.2428 158.927 33.3681C158.637 33.4934 158.319 33.5507 158.001 33.5354C157.66 33.5417 157.322 33.481 157.007 33.3571C156.692 33.2333 156.408 33.049 156.171 32.8158C155.935 32.5826 155.753 32.3056 155.635 32.0022C155.518 31.6988 155.467 31.3756 155.488 31.0529C155.474 30.7296 155.529 30.4069 155.651 30.1045C155.772 29.8022 155.957 29.5264 156.195 29.2942C156.433 29.0619 156.717 28.8779 157.032 28.7535C157.347 28.6291 157.686 28.5668 158.027 28.5705C158.345 28.5525 158.662 28.6114 158.949 28.7417C159.236 28.872 159.483 29.0693 159.668 29.3152V28.678H160.767L160.802 33.3864ZM156.727 31.0612C156.711 31.2533 156.738 31.4464 156.805 31.6284C156.871 31.8104 156.977 31.9774 157.115 32.1188C157.253 32.2602 157.421 32.373 157.607 32.4501C157.793 32.5273 157.994 32.5671 158.197 32.5671C158.4 32.5671 158.601 32.5273 158.788 32.4501C158.974 32.373 159.141 32.2602 159.279 32.1188C159.417 31.9774 159.523 31.8104 159.59 31.6284C159.657 31.4464 159.683 31.2533 159.668 31.0612C159.683 30.869 159.657 30.6759 159.59 30.4939C159.523 30.3119 159.417 30.145 159.279 30.0036C159.141 29.8622 158.974 29.7494 158.788 29.6722C158.601 29.5951 158.4 29.5552 158.197 29.5552C157.994 29.5552 157.793 29.5951 157.607 29.6722C157.421 29.7494 157.253 29.8622 157.115 30.0036C156.977 30.145 156.871 30.3119 156.805 30.4939C156.738 30.6759 156.711 30.869 156.727 31.0612Z" fill="#164D9D"/>
<path d="M164.458 27.0231H165.828C166.464 26.9456 167.11 27.0645 167.669 27.3623C167.9 27.5112 168.087 27.7129 168.213 27.9486C168.34 28.1844 168.402 28.4467 168.393 28.7111C168.42 28.9588 168.362 29.208 168.229 29.4224C168.095 29.6368 167.893 29.8051 167.651 29.9027C167.982 29.9955 168.273 30.187 168.48 30.4488C168.694 30.749 168.804 31.1047 168.795 31.4666C168.802 31.781 168.721 32.0916 168.56 32.3664C168.399 32.6413 168.164 32.8705 167.878 33.0306C167.371 33.2739 166.805 33.3853 166.238 33.3533H164.493L164.458 27.0231ZM166.09 29.5055C166.84 29.5055 167.154 29.3152 167.154 28.8601C167.154 28.405 166.84 28.2146 166.203 28.2146H165.697V29.5055H166.09ZM166.308 32.2693C167.18 32.2693 167.547 32.0376 167.547 31.4418C167.547 30.846 167.137 30.6143 166.282 30.6143H165.697V32.2279L166.308 32.2693Z" fill="#164D9D"/>
<path d="M174.257 28.678V33.4195H173.061V30.2502L170.819 33.3864H169.606V28.678H170.793V31.8142L173.035 28.678H174.257Z" fill="#164D9D"/>
<path d="M178.628 33.3864V31.508H176.429V33.3864H175.225V28.678H176.429V30.5068H178.628V28.678H179.832V33.4195L178.628 33.3864Z" fill="#164D9D"/>
<path d="M185.888 31.0198C185.888 31.5108 185.734 31.9907 185.447 32.399C185.159 32.8072 184.75 33.1254 184.272 33.3133C183.794 33.5012 183.267 33.5503 182.76 33.4546C182.252 33.3588 181.785 33.1223 181.419 32.7752C181.053 32.428 180.804 31.9857 180.703 31.5041C180.602 31.0226 180.654 30.5234 180.852 30.0698C181.05 29.6162 181.386 29.2285 181.816 28.9557C182.246 28.6829 182.753 28.5374 183.27 28.5374C183.965 28.5374 184.63 28.7989 185.121 29.2644C185.612 29.73 185.888 30.3614 185.888 31.0198ZM181.778 31.0198C181.792 31.2883 181.888 31.5471 182.056 31.7641C182.223 31.9811 182.453 32.1468 182.719 32.2407C182.985 32.3346 183.273 32.3525 183.55 32.2923C183.826 32.232 184.077 32.0963 184.273 31.9018C184.469 31.7073 184.6 31.4627 184.65 31.1982C184.701 30.9337 184.668 30.661 184.557 30.4138C184.446 30.1666 184.26 29.9559 184.024 29.8077C183.787 29.6595 183.51 29.5803 183.227 29.58C182.835 29.5887 182.462 29.7441 182.191 30.0124C181.92 30.2806 181.771 30.6398 181.778 31.0115V31.0198Z" fill="#164D9D"/>
<path d="M186.63 28.678H187.825V30.8295L189.57 28.6449H191.027L189.029 30.995L191.132 33.3864H189.57L187.825 31.2019V33.3864H186.63V28.678Z" fill="#164D9D"/>
<path d="M192.999 32.9396L191.167 28.678H192.546L193.697 31.7149L194.858 28.678H196.245L193.357 35H192.066L192.999 32.9396Z" fill="#164D9D"/>
<path d="M196.76 28.678H197.86V29.2324C198.063 29.012 198.316 28.8375 198.6 28.7215C198.884 28.6056 199.191 28.5511 199.5 28.5622C199.839 28.5582 200.176 28.6206 200.489 28.7454C200.801 28.8703 201.084 29.055 201.318 29.2879C201.552 29.5209 201.733 29.7971 201.85 30.0993C201.966 30.4016 202.016 30.7234 201.996 31.0446C202.012 31.3657 201.96 31.6867 201.841 31.9879C201.723 32.289 201.541 32.5642 201.306 32.7965C201.072 33.0288 200.79 33.2134 200.478 33.339C200.166 33.4646 199.83 33.5286 199.491 33.5271C199.209 33.5348 198.929 33.4899 198.665 33.3948C198.402 33.2996 198.161 33.1562 197.956 32.9727V34.9669H196.76V28.678ZM197.886 31.0695C197.903 31.3377 198.003 31.5953 198.172 31.8104C198.342 32.0254 198.575 32.1885 198.842 32.2794C199.109 32.3702 199.397 32.3849 199.673 32.3216C199.948 32.2582 200.198 32.1197 200.391 31.9231C200.584 31.7265 200.713 31.4804 200.76 31.2154C200.807 30.9504 200.771 30.6781 200.657 30.4322C200.542 30.1864 200.355 29.9777 200.116 29.8321C199.878 29.6865 199.6 29.6103 199.317 29.6131C199.124 29.6163 198.934 29.6558 198.757 29.7293C198.58 29.8027 198.421 29.9088 198.288 30.0412C198.155 30.1736 198.05 30.3297 197.981 30.5005C197.912 30.6714 197.88 30.8535 197.886 31.0364V31.0695Z" fill="#164D9D"/>
<path d="M70.2567 10V22.612H67.69V13.8977L61.628 22.612H59V10H61.5667V18.7143L67.6199 10H70.2567Z" fill="#164D9D"/>
<path d="M79.7264 22.612V18.8728H75.1186V22.612H72.6132V13.1609H75.1186V16.813H79.7264V13.1609H82.2406V22.612H79.7264Z" fill="#164D9D"/>
<path d="M91.3861 22.612V18.8728H86.7871V22.612H84.2729V13.1609H86.7871V16.813H91.3861V13.1609H93.9003V22.612H91.3861Z" fill="#164D9D"/>
<path d="M106.576 17.9063C106.59 18.9059 106.274 19.8865 105.669 20.7231C105.064 21.5597 104.197 22.2143 103.179 22.6033C102.161 22.9924 101.037 23.0983 99.9524 22.9075C98.8673 22.7168 97.8697 22.238 97.0868 21.5322C96.3039 20.8265 95.7713 19.9259 95.5569 18.9452C95.3425 17.9645 95.456 16.9483 95.883 16.0263C96.31 15.1042 97.0311 14.3181 97.9542 13.7683C98.8774 13.2184 99.9607 12.9297 101.066 12.9391C102.524 12.9412 103.921 13.4647 104.954 14.3953C105.986 15.3259 106.569 16.5881 106.576 17.9063ZM97.9825 17.9063C98.0084 18.4444 98.209 18.9637 98.5593 19.3993C98.9096 19.835 99.3941 20.1676 99.9522 20.3557C100.51 20.5438 101.117 20.579 101.697 20.457C102.278 20.3349 102.805 20.061 103.214 19.6694C103.623 19.2779 103.895 18.786 103.997 18.2553C104.099 17.7246 104.025 17.1785 103.786 16.6853C103.547 16.1921 103.152 15.7736 102.651 15.4822C102.15 15.1907 101.565 15.0391 100.97 15.0464C100.159 15.0692 99.3902 15.3793 98.8297 15.9098C98.2693 16.4404 97.9618 17.1489 97.9737 17.8825L97.9825 17.9063Z" fill="#164D9D"/>
<path d="M116.694 19.562C116.69 19.9805 116.592 20.394 116.406 20.7771C116.219 21.1602 115.949 21.505 115.61 21.7904C115.272 22.0758 114.872 22.2958 114.437 22.4371C114.001 22.5783 113.538 22.6379 113.076 22.612H108.109V13.1609H112.41C114.697 13.1609 116.361 14.1116 116.361 16.0604C116.35 16.4109 116.229 16.7512 116.012 17.0416C115.794 17.3321 115.49 17.5605 115.135 17.7003C115.578 17.8233 115.967 18.0693 116.247 18.4034C116.527 18.7376 116.683 19.1429 116.694 19.562ZM110.623 16.916H112.375C113.435 16.916 113.943 16.5754 113.943 16.0604C113.943 15.5455 113.418 15.2207 112.375 15.2207H110.623V16.916ZM110.623 20.5523H112.901C113.056 20.5701 113.214 20.5578 113.364 20.5162C113.514 20.4745 113.652 20.4046 113.77 20.3109C113.887 20.2172 113.981 20.102 114.046 19.9729C114.11 19.8438 114.144 19.7037 114.144 19.562C114.144 19.4203 114.11 19.2803 114.046 19.1512C113.981 19.022 113.887 18.9068 113.77 18.8131C113.652 18.7195 113.514 18.6495 113.364 18.6079C113.214 18.5662 113.056 18.5539 112.901 18.5717H110.623V20.5523Z" fill="#164D9D"/>
<path d="M128.871 22.612H126.567V21.3841C126.157 21.8649 125.623 22.2481 125.013 22.5007C124.402 22.7533 123.733 22.8676 123.063 22.8339C122.354 22.8456 121.65 22.7253 120.995 22.4805C120.34 22.2357 119.747 21.8717 119.254 21.411C118.761 20.9503 118.378 20.4029 118.129 19.8027C117.88 19.2025 117.77 18.5624 117.807 17.9221C117.772 17.2742 117.884 16.6266 118.137 16.0194C118.389 15.4122 118.776 14.8581 119.274 14.3913C119.772 13.9245 120.371 13.5548 121.033 13.3051C121.695 13.0553 122.407 12.9308 123.124 12.9391C123.786 12.9014 124.448 13.0178 125.046 13.2771C125.644 13.5365 126.158 13.9302 126.54 14.4206V13.1609H128.844L128.871 22.612ZM120.356 17.9697C120.328 18.3515 120.387 18.7346 120.53 19.0947C120.673 19.4549 120.897 19.7845 121.188 20.0628C121.478 20.3412 121.829 20.5623 122.218 20.7123C122.608 20.8624 123.027 20.9381 123.45 20.9349C123.873 20.9316 124.291 20.8493 124.678 20.6933C125.064 20.5372 125.411 20.3107 125.696 20.0279C125.981 19.7451 126.199 19.4121 126.335 19.0497C126.471 18.6874 126.523 18.3035 126.488 17.9221C126.516 17.5403 126.457 17.1572 126.313 16.7971C126.17 16.4369 125.947 16.1073 125.656 15.829C125.366 15.5506 125.015 15.3295 124.625 15.1795C124.236 15.0294 123.817 14.9537 123.394 14.9569C122.97 14.9602 122.552 15.0425 122.166 15.1985C121.78 15.3546 121.433 15.5811 121.148 15.8639C120.863 16.1467 120.645 16.4797 120.509 16.8421C120.373 17.2044 120.32 17.5883 120.356 17.9697Z" fill="#164D9D"/>
<path d="M136.194 13.1609H138.699V17.5102L142.326 13.1609H145.366L141.196 17.8508L145.576 22.6041H142.309L138.682 18.2549V22.6041H136.177L136.194 13.1609Z" fill="#164D9D"/>
<path d="M153.688 22.612L151.06 16.3298L148.432 22.612H145.751L150.131 13.1609H152.094L156.474 22.612H153.688Z" fill="#164D9D"/>
<path d="M167.161 13.1609V22.612H164.673V16.3694L160.013 22.612H157.472V13.1609H159.96V19.4036L164.638 13.1609H167.161Z" fill="#164D9D"/>
<path d="M176.315 22.612V18.8728H171.708V22.612H169.202V13.1609H171.708V16.813H176.315V13.1609H178.83V22.612H176.315Z" fill="#164D9D"/>
<path d="M190.586 13.1609V22.612H188.089V16.3694L183.411 22.612H180.862V13.1609H183.358V19.4036L188.045 13.1609H190.586Z" fill="#164D9D"/>
<path d="M192.618 13.1609H195.132V17.5102L198.759 13.1609H201.79L197.62 17.8508L202 22.6041H198.741L195.115 18.2549V22.6041H192.6L192.618 13.1609Z" fill="#164D9D"/>
<path d="M1.32277 18.0333C1.57414 18.0264 1.81775 17.9526 2.02337 17.821C2.22899 17.6894 2.38758 17.5058 2.47945 17.293C2.57131 17.0802 2.59242 16.8475 2.54015 16.6239C2.48788 16.4003 2.36453 16.1956 2.18541 16.0351C2.00629 15.8746 1.77928 15.7655 1.53255 15.7213C1.28582 15.6771 1.03024 15.6997 0.797516 15.7863C0.564791 15.8729 0.365169 16.0197 0.223421 16.2086C0.0816734 16.3974 0.00403963 16.6199 0.000153354 16.8485C-0.00252873 17.0062 0.0299954 17.1629 0.095761 17.3089C0.161527 17.4549 0.259169 17.5872 0.382788 17.698C0.506408 17.8087 0.653439 17.8955 0.815 17.9532C0.976561 18.0108 1.1493 18.0381 1.32277 18.0333Z" fill="#2286C4"/>
<path d="M4.61005 26.362C4.28697 26.3631 3.97155 26.4515 3.70382 26.6159C3.43608 26.7803 3.22809 27.0133 3.10623 27.2853C2.98437 27.5573 2.95413 27.8561 3.01936 28.1437C3.08458 28.4314 3.24233 28.6949 3.47258 28.9009C3.70284 29.107 3.99522 29.2462 4.31265 29.3009C4.63007 29.3556 4.95823 29.3234 5.25548 29.2084C5.55274 29.0933 5.8057 28.9006 5.98228 28.6546C6.15886 28.4087 6.25109 28.1206 6.24728 27.8269C6.2422 27.4358 6.06726 27.0623 5.76059 26.7879C5.45391 26.5135 5.04036 26.3604 4.61005 26.362Z" fill="#2286C4"/>
<path d="M13.7782 31.3522C13.526 31.3591 13.2816 31.4334 13.0756 31.5658C12.8696 31.6981 12.711 31.8828 12.6197 32.0966C12.5284 32.3104 12.5084 32.5439 12.5622 32.768C12.616 32.9921 12.7412 33.1968 12.9223 33.3565C13.1033 33.5163 13.3321 33.624 13.58 33.6663C13.828 33.7086 14.0842 33.6835 14.3166 33.5942C14.549 33.5049 14.7473 33.3554 14.8868 33.1643C15.0263 32.9731 15.1007 32.7489 15.1008 32.5195C15.1009 32.3633 15.0665 32.2085 14.9995 32.0646C14.9326 31.9206 14.8346 31.7904 14.7112 31.6815C14.5879 31.5726 14.4417 31.4874 14.2814 31.4308C14.1212 31.3743 13.9501 31.3475 13.7782 31.3522Z" fill="#8ECEE7"/>
<path d="M7.60168 12.5879C7.85288 12.5776 8.09523 12.5005 8.29866 12.3662C8.5021 12.2318 8.65766 12.0461 8.74605 11.8321C8.83444 11.6181 8.85177 11.3852 8.79589 11.1624C8.74 10.9395 8.61337 10.7365 8.4317 10.5784C8.25002 10.4204 8.02131 10.3143 7.77392 10.2734C7.52653 10.2324 7.27136 10.2584 7.04007 10.3481C6.80878 10.4378 6.61155 10.5872 6.47284 10.7779C6.33413 10.9685 6.26006 11.192 6.2598 11.4206C6.25962 11.5784 6.29465 11.7346 6.36277 11.8798C6.43088 12.0249 6.53067 12.156 6.6561 12.2651C6.78153 12.3743 6.92999 12.4591 7.09252 12.5146C7.25504 12.5701 7.42825 12.595 7.60168 12.5879Z" fill="#8ECEE7"/>
<path d="M11.7108 27.827C11.707 27.4968 11.5955 27.1752 11.3906 26.9026C11.1857 26.6301 10.8964 26.4189 10.5595 26.2957C10.2225 26.1726 9.85292 26.1431 9.4975 26.2109C9.14207 26.2787 8.81674 26.4408 8.56265 26.6767C8.30856 26.9125 8.13711 27.2116 8.07 27.5361C8.00288 27.8605 8.04311 28.1958 8.18559 28.4994C8.32807 28.8031 8.56641 29.0616 8.87046 29.2421C9.17452 29.4226 9.53064 29.5171 9.89379 29.5137C10.1349 29.5114 10.3732 29.466 10.595 29.38C10.8169 29.294 11.0179 29.1691 11.1866 29.0124C11.3553 28.8558 11.4885 28.6705 11.5784 28.4671C11.6683 28.2637 11.7133 28.0462 11.7108 27.827Z" fill="#8ECEE7"/>
<path d="M7.80713 22.2823C7.80205 22.0115 7.70894 21.7482 7.53952 21.5255C7.37011 21.3028 7.13197 21.1307 6.85512 21.0308C6.57827 20.9309 6.27509 20.9078 5.98379 20.9643C5.69248 21.0207 5.42609 21.1543 5.21817 21.3482C5.01024 21.5421 4.8701 21.7876 4.81539 22.0537C4.76068 22.3199 4.79385 22.5948 4.91073 22.8439C5.02761 23.0929 5.22296 23.3049 5.47218 23.4532C5.72139 23.6015 6.01331 23.6795 6.31116 23.6772C6.51039 23.6757 6.70733 23.6383 6.89059 23.5672C7.07385 23.4962 7.23982 23.3928 7.3789 23.2631C7.51799 23.1334 7.62744 22.98 7.70094 22.8116C7.77444 22.6433 7.81053 22.4634 7.80713 22.2823Z" fill="#8ECEE7"/>
<path d="M5.81037 18.366C6.15222 18.3637 6.48562 18.2692 6.76834 18.0945C7.05107 17.9198 7.2704 17.6728 7.39857 17.3847C7.52673 17.0966 7.55796 16.7804 7.4883 16.4761C7.41864 16.1719 7.25122 15.8933 7.00725 15.6756C6.76328 15.4579 6.45374 15.3109 6.11781 15.2533C5.78189 15.1957 5.4347 15.2299 5.12022 15.3518C4.80574 15.4736 4.53811 15.6776 4.35123 15.9378C4.16434 16.198 4.06662 16.5028 4.07042 16.8135C4.0721 17.0194 4.11848 17.223 4.20691 17.4126C4.29534 17.6022 4.42408 17.774 4.58573 17.9182C4.74739 18.0625 4.93878 18.1763 5.14894 18.2531C5.35909 18.33 5.58387 18.3684 5.81037 18.366Z" fill="#8ECEE7"/>
<path d="M18.837 31.002C18.5104 31.0043 18.1919 31.0947 17.9219 31.2617C17.6518 31.4287 17.4423 31.6648 17.32 31.9401C17.1977 32.2154 17.168 32.5175 17.2347 32.8082C17.3013 33.0988 17.4614 33.365 17.6946 33.5729C17.9278 33.7807 18.2236 33.921 18.5446 33.976C18.8656 34.0309 19.1973 33.9981 19.4977 33.8815C19.7981 33.765 20.0537 33.57 20.2321 33.3213C20.4105 33.0726 20.5037 32.7813 20.4999 32.4845C20.4948 32.0877 20.317 31.7088 20.0053 31.431C19.6936 31.1531 19.2735 30.9989 18.837 31.002Z" fill="#F8AD3A"/>
<path d="M15.5947 25.7783C15.1446 25.7807 14.7054 25.9044 14.3328 26.1339C13.9602 26.3634 13.671 26.6882 13.5017 27.0673C13.3324 27.4464 13.2907 27.8626 13.382 28.2633C13.4732 28.6639 13.6933 29.0309 14.0142 29.3177C14.3352 29.6046 14.7425 29.7983 15.1848 29.8744C15.627 29.9506 16.0841 29.9056 16.4982 29.7453C16.9122 29.585 17.2647 29.3166 17.5107 28.974C17.7568 28.6315 17.8854 28.2302 17.8804 27.8211C17.8778 27.5505 17.8167 27.2831 17.7005 27.034C17.5843 26.7849 17.4152 26.559 17.2029 26.3694C16.9907 26.1797 16.7394 26.0298 16.4635 25.9284C16.1875 25.827 15.8923 25.776 15.5947 25.7783Z" fill="#F8AD3A"/>
<path d="M14.7279 22.2239C14.7241 21.8058 14.5839 21.3982 14.325 21.0526C14.0662 20.7069 13.7003 20.4389 13.2738 20.2824C12.8473 20.1259 12.3793 20.0879 11.9291 20.1733C11.4788 20.2587 11.0665 20.4636 10.7445 20.7621C10.4224 21.0606 10.205 21.4393 10.1198 21.8502C10.0346 22.261 10.0854 22.6857 10.2658 23.0703C10.4462 23.4549 10.7481 23.7822 11.1332 24.0108C11.5184 24.2393 11.9695 24.3589 12.4294 24.3543C12.7343 24.352 13.0357 24.295 13.3164 24.1866C13.5971 24.0783 13.8515 23.9206 14.065 23.7227C14.2785 23.5248 14.447 23.2906 14.5607 23.0334C14.6745 22.7762 14.7313 22.5011 14.7279 22.2239Z" fill="#F8AD3A"/>
<path d="M13.4823 12.9848C13.8634 12.9766 14.2332 12.8658 14.545 12.6664C14.8567 12.467 15.0964 12.188 15.2337 11.8648C15.3709 11.5415 15.3996 11.1885 15.316 10.8504C15.2324 10.5123 15.0404 10.2044 14.7642 9.9656C14.488 9.7268 14.1401 9.56785 13.7644 9.5089C13.3888 9.44994 13.0024 9.49362 12.6541 9.63441C12.3058 9.7752 12.0113 10.0068 11.8079 10.2998C11.6044 10.5928 11.5012 10.9341 11.5112 11.2805C11.5247 11.7439 11.7398 12.1836 12.1093 12.503C12.4787 12.8225 12.9725 12.9958 13.4823 12.9848Z" fill="#F8AD3A"/>
<path d="M11.9478 18.5819C12.3964 18.5738 12.8323 18.4452 13.2007 18.2123C13.569 17.9794 13.8532 17.6526 14.0176 17.2731C14.182 16.8935 14.2191 16.4783 14.1243 16.0796C14.0295 15.681 13.807 15.3167 13.4848 15.0328C13.1627 14.7489 12.7553 14.558 12.3141 14.4842C11.8728 14.4104 11.4173 14.457 11.0051 14.618C10.5929 14.7791 10.2424 15.0475 9.99767 15.3894C9.75296 15.7312 9.62504 16.1313 9.63002 16.5391C9.63336 16.812 9.6961 17.0815 9.81463 17.3322C9.93317 17.5828 10.1051 17.8097 10.3206 17.9996C10.5361 18.1895 10.7909 18.3388 11.0702 18.4387C11.3494 18.5387 11.6477 18.5873 11.9478 18.5819Z" fill="#F8AD3A"/>
<path d="M24.3982 30.8211C24.041 30.8188 23.6912 30.9133 23.3933 31.0925C23.0955 31.2717 22.8631 31.5275 22.7258 31.8273C22.5886 32.1271 22.5527 32.4572 22.6227 32.7756C22.6927 33.094 22.8655 33.3862 23.1189 33.615C23.3724 33.8438 23.6951 33.9987 24.0459 34.0601C24.3966 34.1214 24.7595 34.0864 25.0883 33.9594C25.4171 33.8325 25.6968 33.6194 25.8918 33.3474C26.0868 33.0753 26.1882 32.7566 26.1831 32.432C26.1764 32.0046 25.9858 31.5967 25.6521 31.2955C25.3185 30.9944 24.8683 30.8241 24.3982 30.8211Z" fill="#164D9D"/>
<path d="M21.3998 25.7784C20.9498 25.7807 20.5106 25.9044 20.138 26.1339C19.7654 26.3634 19.4761 26.6883 19.3068 27.0674C19.1376 27.4464 19.0959 27.8627 19.1872 28.2633C19.2784 28.664 19.4984 29.0309 19.8194 29.3178C20.1403 29.6046 20.5477 29.7984 20.9899 29.8745C21.4321 29.9506 21.8892 29.9057 22.3033 29.7454C22.7174 29.5851 23.0698 29.3166 23.3159 28.9741C23.562 28.6315 23.6906 28.2302 23.6855 27.8211C23.6787 27.2752 23.4345 26.7539 23.0062 26.3711C22.578 25.9883 22.0004 25.7752 21.3998 25.7784Z" fill="#164D9D"/>
<path d="M20.899 22.2239C20.8951 21.8051 20.7543 21.3967 20.4946 21.0508C20.2349 20.7048 19.8679 20.4369 19.4403 20.2809C19.0126 20.125 18.5437 20.0881 18.0929 20.1749C17.6422 20.2618 17.23 20.4685 16.9087 20.7687C16.5875 21.069 16.3717 21.4492 16.2887 21.8612C16.2057 22.2732 16.2593 22.6984 16.4426 23.0826C16.626 23.4669 16.9309 23.7929 17.3185 24.0193C17.7061 24.2457 18.1591 24.3623 18.6197 24.3542C19.2322 24.345 19.8158 24.1157 20.2429 23.7166C20.67 23.3174 20.9059 22.7807 20.899 22.2239Z" fill="#164D9D"/>
<path d="M18.196 18.5819C18.6461 18.5796 19.0852 18.4559 19.4578 18.2264C19.8304 17.9969 20.1197 17.672 20.289 17.2929C20.4583 16.9139 20.4999 16.4976 20.4087 16.097C20.3174 15.6963 20.0974 15.3294 19.7764 15.0425C19.4555 14.7557 19.0481 14.5619 18.6059 14.4858C18.1637 14.4097 17.7066 14.4546 17.2925 14.6149C16.8784 14.7752 16.526 15.0437 16.2799 15.3862C16.0339 15.7288 15.9052 16.1301 15.9103 16.5392C15.9171 17.0851 16.1613 17.6064 16.5896 17.9892C17.0179 18.372 17.5954 18.5851 18.196 18.5819Z" fill="#164D9D"/>
<path d="M19.6791 13.1715C20.1254 13.1576 20.5572 13.0242 20.9204 12.7881C21.2836 12.5519 21.562 12.2234 21.7205 11.844C21.8791 11.4645 21.9108 11.0509 21.8117 10.6551C21.7125 10.2593 21.487 9.89891 21.1634 9.61921C20.8397 9.33952 20.4324 9.15297 19.9925 9.08298C19.5527 9.01299 19.0999 9.06268 18.691 9.2258C18.2821 9.38893 17.9353 9.65823 17.6942 9.99989C17.453 10.3415 17.3283 10.7403 17.3356 11.1462C17.3406 11.4198 17.4054 11.6898 17.5264 11.9403C17.6473 12.1909 17.822 12.4171 18.0402 12.6056C18.2583 12.7941 18.5156 12.9413 18.797 13.0384C19.0784 13.1356 19.3783 13.1808 19.6791 13.1715Z" fill="#164D9D"/>
<path d="M29.4893 32.0467C23.2422 26.8114 18.6194 6.75138 27.6852 5.00043C12.6035 6.23193 22.0865 33.3541 30.1121 35C34.1442 34.2413 30.324 25.0371 34.7092 25.4398C34.7092 25.4282 31.7622 23.6364 29.4893 32.0467Z" fill="#164D9D"/>
<path d="M50.7219 12.4186C50.555 8.68326 46.9338 4.95374 42.9082 5.00043C33.5985 5.00043 32.6996 13.7552 26.8891 6.34866C31.5182 18.7921 41.6113 0.833179 47.3833 10.656C49.4828 17.4789 45.8745 27.0624 41.0912 32.0467C38.5615 22.7084 34.0286 22.3932 31.056 23.6364C33.6242 23.0936 37.4765 23.3387 38.5423 33.3366C43.6594 41.2801 52.6994 17.6773 50.7219 12.4186Z" fill="#164D9D"/>
<path d="M37.0078 10.6034C42.1956 7.73771 48.4748 9.37776 45.0398 20.899C44.9949 17.3562 44.8537 8.88166 37.0078 10.6034Z" fill="#8ECEE7"/>
</svg>
