<svg width="70" height="23" viewBox="0 0 70 23" fill="none" xmlns="http://www.w3.org/2000/svg">
<g clip-path="url(#clip0_883_13555)">
<path d="M66.7815 8.47132H69.9932C69.587 5.29888 67.3039 3.63135 64.1308 3.63135C60.9191 3.63135 58.7715 5.35992 58.7715 8.32897C58.7715 11.7047 61.5382 12.4571 63.0086 12.7623C64.9047 13.1486 66.7621 13.1893 66.7621 14.8974C66.7621 16.0566 65.8334 16.626 64.5178 16.626C62.8926 16.626 61.8092 15.7719 61.5382 14.2265H58.3652C58.5587 17.5615 60.8611 19.3511 64.247 19.3511C67.3813 19.3511 69.9544 17.8462 69.9544 14.5925C69.9544 11.0946 66.9943 10.4643 64.9241 10.1389C63.5117 9.9152 61.9639 9.7118 61.9639 8.14592C61.9639 7.0478 62.7571 6.37674 64.0921 6.37674C65.64 6.37674 66.5686 7.2919 66.7815 8.47132Z" fill="#403F41"/>
<path d="M56.6041 4.14014H53.5664V18.8837H56.6041V4.14014Z" fill="#403F41"/>
<path d="M44.395 13.7385H48.3614C47.7422 15.3248 46.3491 16.0771 44.7433 16.0771C41.9186 16.0771 40.6029 13.7792 40.6029 11.5015C40.6029 9.20356 41.8411 6.86496 44.724 6.86496C46.4846 6.86496 47.8002 7.71907 48.3033 9.24425L51.573 9.24427C51.012 5.80755 48.1485 3.83496 44.7627 3.83496C40.5836 3.83496 37.4492 6.82427 37.4492 11.5422C37.4492 16.3212 40.8544 19.1479 44.7433 19.1479C48.5741 19.1479 51.573 16.5246 51.573 12.4167V11.2168H44.395V13.7385Z" fill="#403F41"/>
<path d="M30.5034 3.83496C27.0208 3.83496 24.4475 6.13287 24.4669 9.95603H27.6013C27.5625 8.28849 28.5686 6.76331 30.3486 6.76331C31.8964 6.76331 32.8058 7.90214 32.8058 9.20357C32.8058 10.5051 31.8964 11.2372 30.2131 12.0304C27.9108 13.1081 26.2663 13.7995 24.583 14.4096V18.8835H36.3077V15.8738H28.2586C28.2586 15.8738 28.2854 15.865 28.2985 15.8608C29.6676 15.4248 30.6961 14.9511 31.9158 14.3893C34.5277 13.1692 36.0175 11.6439 36.0175 9.04095C36.0175 5.84815 33.7732 3.83496 30.5034 3.83496Z" fill="#403F41"/>
<path d="M16.2249 13.6979C12.2779 13.7183 11.6395 16.2195 11.4267 18.3345L11.33 19.2699H10.5366L10.4399 18.3345C10.2271 16.2195 9.56932 13.7182 5.75779 13.6979C5.11933 12.315 4.84846 11.1965 4.84846 9.93569C4.84846 6.78368 7.30563 3.83488 10.9429 3.83488C14.5803 3.83488 16.9988 6.76323 16.9988 9.95612C16.9988 11.1965 16.8827 12.315 16.2249 13.6979ZM10.9043 0.0117188C4.90655 0.0117188 -0.0078125 5.1771 -0.0078125 11.5015C-0.0078125 17.8464 4.90655 23.0117 10.9043 23.0117C16.9601 23.0117 21.8551 17.8464 21.8551 11.5015C21.8551 5.17711 16.9601 0.0117188 10.9043 0.0117188Z" fill="#29B24A"/>
</g>
<defs>
<clipPath id="clip0_883_13555">
<rect width="70" height="23" fill="white"/>
</clipPath>
</defs>
</svg>
