<svg width="90" height="31" viewBox="0 0 90 31" fill="none" xmlns="http://www.w3.org/2000/svg">
<g clip-path="url(#clip0_883_13528)">
<path d="M38.3004 15.8975C38.3004 20.2005 34.9949 23.3712 30.9383 23.3712C26.8817 23.3712 23.5762 20.2005 23.5762 15.8975C23.5762 11.5643 26.8817 8.42383 30.9383 8.42383C34.9949 8.42383 38.3004 11.5643 38.3004 15.8975ZM35.0776 15.8975C35.0776 13.2086 33.1618 11.3688 30.9383 11.3688C28.7148 11.3688 26.799 13.2086 26.799 15.8975C26.799 18.5595 28.7148 20.4262 30.9383 20.4262C33.1618 20.4262 35.0776 18.5561 35.0776 15.8975Z" fill="#EA4335"/>
<path d="M54.1813 15.8975C54.1813 20.2005 50.8758 23.3712 46.8192 23.3712C42.7625 23.3712 39.457 20.2005 39.457 15.8975C39.457 11.5676 42.7625 8.42383 46.8192 8.42383C50.8758 8.42383 54.1813 11.5643 54.1813 15.8975ZM50.9585 15.8975C50.9585 13.2086 49.0427 11.3688 46.8192 11.3688C44.5956 11.3688 42.6798 13.2086 42.6798 15.8975C42.6798 18.5595 44.5956 20.4262 46.8192 20.4262C49.0427 20.4262 50.9585 18.5561 50.9585 15.8975Z" fill="#FBBC05"/>
<path d="M69.4031 8.87535V22.293C69.4031 27.8123 66.2068 30.0665 62.4281 30.0665C58.8711 30.0665 56.7303 27.6438 55.923 25.6625L58.7288 24.4731C59.2285 25.6895 60.4527 27.1249 62.4248 27.1249C64.8435 27.1249 66.3424 25.6052 66.3424 22.7445V21.6696H66.2299C65.5086 22.576 64.1189 23.3678 62.3652 23.3678C58.6957 23.3678 55.334 20.1128 55.334 15.9245C55.334 11.7058 58.6957 8.42383 62.3652 8.42383C64.1156 8.42383 65.5053 9.21568 66.2299 10.0951H66.3424V8.87872H69.4031V8.87535ZM66.5708 15.9245C66.5708 13.2928 64.8469 11.3688 62.6531 11.3688C60.4296 11.3688 58.5667 13.2928 58.5667 15.9245C58.5667 18.5292 60.4296 20.4262 62.6531 20.4262C64.8469 20.4262 66.5708 18.5292 66.5708 15.9245Z" fill="#4285F4"/>
<path d="M74.4481 1.01074V22.9129H71.3047V1.01074H74.4481Z" fill="#34A853"/>
<path d="M86.6987 18.3573L89.2002 20.0555C88.3928 21.2719 86.4472 23.3678 83.0855 23.3678C78.9163 23.3678 75.8027 20.0858 75.8027 15.8941C75.8027 11.4496 78.9428 8.42041 82.7248 8.42041C86.5332 8.42041 88.3961 11.5069 89.0049 13.1749L89.3391 14.024L79.5285 18.1618C80.2796 19.6613 81.4476 20.4262 83.0855 20.4262C84.7266 20.4262 85.8649 19.604 86.6987 18.3573ZM78.9991 15.6683L85.5571 12.8952C85.1965 11.9618 84.1112 11.3115 82.834 11.3115C81.1961 11.3115 78.9163 12.784 78.9991 15.6683Z" fill="#EA4335"/>
<path d="M11.6769 13.9532V10.7824H22.1691C22.2717 11.3351 22.3247 11.9887 22.3247 12.6964C22.3247 15.0753 21.6861 18.0169 19.628 20.1128C17.6261 22.2356 15.0684 23.3678 11.6802 23.3678C5.40002 23.3678 0.119141 18.1584 0.119141 11.763C0.119141 5.36755 5.40002 0.158203 11.6802 0.158203C15.1544 0.158203 17.6294 1.54646 19.489 3.35592L17.2919 5.59331C15.9585 4.31962 14.1519 3.32896 11.6769 3.32896C7.09083 3.32896 3.50407 7.09277 3.50407 11.763C3.50407 16.4332 7.09083 20.197 11.6769 20.197C14.6515 20.197 16.3456 18.9806 17.4309 17.8754C18.3111 16.9791 18.8901 15.6986 19.1184 13.9498L11.6769 13.9532Z" fill="#4285F4"/>
</g>
<defs>
<clipPath id="clip0_883_13528">
<rect width="90" height="31" fill="white"/>
</clipPath>
</defs>
</svg>
