<svg width="98" height="18" viewBox="0 0 98 18" fill="none" xmlns="http://www.w3.org/2000/svg">
<path d="M9 0L11.5921 5.43224L17.5595 6.21885L13.1942 10.3628L14.2901 16.2812L9 13.41L3.70993 16.2812L4.80584 10.3628L0.440492 6.21885L6.40787 5.43224L9 0Z" fill="#FFAB2B"/>
<path d="M29 0L31.5921 5.43224L37.5595 6.21885L33.1942 10.3628L34.2901 16.2812L29 13.41L23.7099 16.2812L24.8058 10.3628L20.4405 6.21885L26.4079 5.43224L29 0Z" fill="#FFAB2B"/>
<path d="M49 0L51.5921 5.43224L57.5595 6.21885L53.1942 10.3628L54.2901 16.2812L49 13.41L43.7099 16.2812L44.8058 10.3628L40.4405 6.21885L46.4079 5.43224L49 0Z" fill="#FFAB2B"/>
<path d="M69 0L71.5921 5.43224L77.5595 6.21885L73.1942 10.3628L74.2901 16.2812L69 13.41L63.7099 16.2812L64.8058 10.3628L60.4405 6.21885L66.4079 5.43224L69 0Z" fill="#FFAB2B"/>
<path d="M89 0L91.5921 5.43224L97.5595 6.21885L93.1942 10.3628L94.2901 16.2812L89 13.41L83.7099 16.2812L84.8058 10.3628L80.4405 6.21885L86.4079 5.43224L89 0Z" fill="#FFAB2B"/>
</svg>
