<svg width="118" height="17" viewBox="0 0 118 17" fill="none" xmlns="http://www.w3.org/2000/svg">
<g clip-path="url(#clip0_883_13745)">
<path d="M6.60811 5.50845H2.10427V12.7195H0V3.66211H8.71239V12.7195H6.60811V5.50845Z" fill="#F52A14"/>
<path d="M10.7617 3.66214H12.866V4.65497C13.2967 4.27177 13.7581 3.97567 14.2504 3.76665C14.7426 3.55763 15.2963 3.45312 15.9116 3.45312C16.6008 3.45312 17.2345 3.57505 17.8129 3.8189C18.4036 4.05114 18.908 4.38208 19.3264 4.81173C19.7448 5.22976 20.071 5.72911 20.3048 6.30966C20.5386 6.87868 20.6555 7.49992 20.6555 8.17339C20.6555 8.87012 20.5263 9.50879 20.2679 10.0894C20.0217 10.6584 19.6833 11.1519 19.2526 11.5699C18.822 11.9763 18.3051 12.2957 17.7021 12.5279C17.1115 12.7601 16.4777 12.8763 15.8009 12.8763C15.1979 12.8763 14.6564 12.7892 14.1765 12.615C13.6966 12.4408 13.2598 12.197 12.866 11.8835V16.2031H10.7617V3.66214ZM15.4871 11.03C15.9055 11.03 16.2931 10.9661 16.65 10.8383C17.0191 10.7106 17.3391 10.5249 17.6098 10.281C17.8805 10.0255 18.0897 9.72363 18.2374 9.37523C18.3974 9.01526 18.4774 8.60885 18.4774 8.15602C18.4774 7.73798 18.4097 7.35478 18.2743 7.00639C18.139 6.64642 17.9421 6.34451 17.6837 6.10066C17.4375 5.84518 17.1422 5.64777 16.7976 5.50848C16.4531 5.36913 16.0716 5.29944 15.6532 5.29944C15.0133 5.29944 14.4473 5.44457 13.955 5.7349C13.4751 6.02517 13.1121 6.37357 12.866 6.77997V9.53201C13.1121 10.0197 13.4628 10.3913 13.9181 10.6468C14.3734 10.9023 14.8964 11.03 15.4871 11.03Z" fill="#F52A14"/>
<path d="M21.7461 8.17339C21.7461 7.48829 21.8692 6.86125 22.1153 6.29228C22.3614 5.71168 22.7121 5.21234 23.1674 4.79431C23.6227 4.37628 24.1642 4.05114 24.7918 3.8189C25.4194 3.57505 26.1146 3.45312 26.8776 3.45312C27.6282 3.45312 28.3173 3.57505 28.9449 3.8189C29.5848 4.05114 30.1324 4.37628 30.5877 4.79431C31.043 5.21234 31.3938 5.71168 31.6399 6.29228C31.8983 6.86125 32.0275 7.48829 32.0275 8.17339C32.0275 8.85854 31.8983 9.49137 31.6399 10.072C31.3938 10.641 31.043 11.1345 30.5877 11.5525C30.1324 11.9705 29.5848 12.2957 28.9449 12.5279C28.3173 12.7601 27.6282 12.8763 26.8776 12.8763C26.1269 12.8763 25.4378 12.7601 24.8102 12.5279C24.1826 12.2957 23.6412 11.9705 23.1859 11.5525C22.7306 11.1345 22.3737 10.641 22.1153 10.072C21.8692 9.49137 21.7461 8.85854 21.7461 8.17339ZM23.9242 8.17339C23.9242 8.57985 23.9919 8.95725 24.1273 9.30559C24.2749 9.65393 24.478 9.95584 24.7364 10.2113C24.9948 10.4668 25.3024 10.67 25.6593 10.821C26.0285 10.9603 26.4346 11.03 26.8776 11.03C27.3206 11.03 27.7205 10.9661 28.0774 10.8383C28.4465 10.699 28.7604 10.5074 29.0188 10.2636C29.2772 10.0081 29.4802 9.7062 29.6279 9.35786C29.7755 9.00947 29.8494 8.61464 29.8494 8.17339C29.8494 7.73213 29.7694 7.33736 29.6094 6.98897C29.4618 6.62899 29.2526 6.32708 28.9819 6.08324C28.7111 5.82776 28.3973 5.63619 28.0404 5.50848C27.6836 5.36913 27.296 5.29944 26.8776 5.29944C26.4592 5.29944 26.0654 5.36913 25.6962 5.50848C25.3394 5.63619 25.0256 5.82776 24.7549 6.08324C24.4965 6.32708 24.2934 6.62899 24.1457 6.98897C23.998 7.33736 23.9242 7.73213 23.9242 8.17339Z" fill="#F52A14"/>
<path d="M32.5898 10.8732H33.7011C34.1332 10.3506 34.4234 9.7526 34.5716 9.07914C34.7197 8.40562 34.7938 7.64503 34.7938 6.79737V3.66211H42.5354V10.8732H43.8874V14.7923H41.9243V12.7195H34.553V14.7923H32.5898V10.8732ZM40.4241 10.8732V5.50845H36.794V7.82502C36.794 8.3824 36.7138 8.93979 36.5532 9.49713C36.3928 10.0429 36.1705 10.5016 35.8865 10.8732H40.4241Z" fill="#3981F1"/>
<path d="M44.3164 8.17339C44.3164 7.48829 44.4399 6.86125 44.6868 6.29228C44.9337 5.71168 45.2856 5.21234 45.7425 4.79431C46.1993 4.37628 46.7426 4.05114 47.3723 3.8189C48.002 3.57505 48.6996 3.45312 49.4651 3.45312C50.2183 3.45312 50.9097 3.57505 51.5394 3.8189C52.1815 4.05114 52.7309 4.37628 53.1878 4.79431C53.6446 5.21234 53.9965 5.71168 54.2434 6.29228C54.5027 6.86125 54.6324 7.48829 54.6324 8.17339C54.6324 8.85854 54.5027 9.49137 54.2434 10.072C53.9965 10.641 53.6446 11.1345 53.1878 11.5525C52.7309 11.9705 52.1815 12.2957 51.5394 12.5279C50.9097 12.7601 50.2183 12.8763 49.4651 12.8763C48.712 12.8763 48.0205 12.7601 47.3908 12.5279C46.7611 12.2957 46.2178 11.9705 45.761 11.5525C45.3041 11.1345 44.9461 10.641 44.6868 10.072C44.4399 9.49137 44.3164 8.85854 44.3164 8.17339ZM46.5018 8.17339C46.5018 8.57985 46.5697 8.95725 46.7055 9.30559C46.8537 9.65393 47.0574 9.95584 47.3167 10.2113C47.576 10.4668 47.8847 10.67 48.2428 10.821C48.6132 10.9603 49.0206 11.03 49.4651 11.03C49.9096 11.03 50.3109 10.9661 50.669 10.8383C51.0394 10.699 51.3542 10.5074 51.6135 10.2636C51.8728 10.0081 52.0765 9.7062 52.2247 9.35786C52.3728 9.00947 52.4469 8.61464 52.4469 8.17339C52.4469 7.73213 52.3667 7.33736 52.2062 6.98897C52.058 6.62899 51.8481 6.32708 51.5764 6.08324C51.3048 5.82776 50.99 5.63619 50.6319 5.50848C50.2738 5.36913 49.8849 5.29944 49.4651 5.29944C49.0453 5.29944 48.6502 5.36913 48.2798 5.50848C47.9218 5.63619 47.6069 5.82776 47.3352 6.08324C47.076 6.32708 46.8722 6.62899 46.7241 6.98897C46.5759 7.33736 46.5018 7.73213 46.5018 8.17339Z" fill="#3981F1"/>
<path d="M55.9375 3.66211H58.0488V7.33733L62.2159 3.66211H64.9754L60.2897 7.75537L65.1423 12.7195H62.4384L58.7529 8.99201L58.0488 9.63647V12.7195H55.9375V3.66211Z" fill="#3981F1"/>
<path d="M65.8086 3.66211H74.8839V5.50845H71.4018V12.7195H69.2907V5.50845H65.8086V3.66211Z" fill="#3981F1"/>
<path d="M75.3477 8.17339C75.3477 7.48829 75.4713 6.86125 75.7185 6.29228C75.9652 5.71168 76.3169 5.21234 76.7738 4.79431C77.2306 4.37628 77.774 4.05114 78.4039 3.8189C79.0332 3.57505 79.7311 3.45312 80.4964 3.45312C81.2499 3.45312 81.9411 3.57505 82.5709 3.8189C83.2132 4.05114 83.7622 4.37628 84.219 4.79431C84.6758 5.21234 85.0282 5.71168 85.2748 6.29228C85.5344 6.86125 85.6637 7.48829 85.6637 8.17339C85.6637 8.85854 85.5344 9.49137 85.2748 10.072C85.0282 10.641 84.6758 11.1345 84.219 11.5525C83.7622 11.9705 83.2132 12.2957 82.5709 12.5279C81.9411 12.7601 81.2499 12.8763 80.4964 12.8763C79.7434 12.8763 79.0517 12.7601 78.4224 12.5279C77.7925 12.2957 77.2491 11.9705 76.7923 11.5525C76.3355 11.1345 75.9776 10.641 75.7185 10.072C75.4713 9.49137 75.3477 8.85854 75.3477 8.17339ZM77.5335 8.17339C77.5335 8.57985 77.6015 8.95725 77.7369 9.30559C77.8852 9.65393 78.0886 9.95584 78.3482 10.2113C78.6073 10.4668 78.9163 10.67 79.2743 10.821C79.6445 10.9603 80.0519 11.03 80.4964 11.03C80.9409 11.03 81.3426 10.9661 81.7006 10.8383C82.0708 10.699 82.3855 10.5074 82.6451 10.2636C82.9042 10.0081 83.1081 9.7062 83.2559 9.35786C83.4043 9.00947 83.4784 8.61464 83.4784 8.17339C83.4784 7.73213 83.3981 7.33736 83.2374 6.98897C83.0896 6.62899 82.8794 6.32708 82.608 6.08324C82.3361 5.82776 82.0214 5.63619 81.6635 5.50848C81.3055 5.36913 80.9161 5.29944 80.4964 5.29944C80.0767 5.29944 79.6816 5.36913 79.3113 5.50848C78.9534 5.63619 78.6382 5.82776 78.3668 6.08324C78.1072 6.32708 77.9038 6.62899 77.7554 6.98897C77.6076 7.33736 77.5335 7.73213 77.5335 8.17339Z" fill="#3981F1"/>
<path d="M86.9531 3.66214H89.0642V4.65497C89.4963 4.27177 89.9593 3.97567 90.4532 3.76665C90.9471 3.55763 91.5029 3.45312 92.1204 3.45312C92.8115 3.45312 93.4476 3.57505 94.0281 3.8189C94.6203 4.05114 95.1266 4.38208 95.5463 4.81173C95.9661 5.22976 96.2937 5.72911 96.528 6.30966C96.7629 6.87868 96.8797 7.49992 96.8797 8.17339C96.8797 8.87012 96.7505 9.50879 96.4909 10.0894C96.2442 10.6584 95.9048 11.1519 95.4722 11.5699C95.0401 11.9763 94.5214 12.2957 93.9168 12.5279C93.324 12.7601 92.6879 12.8763 92.0091 12.8763C91.404 12.8763 90.8606 12.7892 90.3791 12.615C89.8975 12.4408 89.4592 12.197 89.0642 11.8835V16.2031H86.9531V3.66214ZM91.6945 11.03C92.1142 11.03 92.5031 10.9661 92.861 10.8383C93.2313 10.7106 93.5527 10.5249 93.8241 10.281C94.0955 10.0255 94.3056 9.72363 94.454 9.37523C94.6141 9.01526 94.6945 8.60885 94.6945 8.15602C94.6945 7.73798 94.6265 7.35478 94.4911 7.00639C94.3551 6.64642 94.1573 6.34451 93.8983 6.10066C93.651 5.84518 93.3549 5.64777 93.0093 5.50848C92.6632 5.36913 92.2805 5.29944 91.8608 5.29944C91.2191 5.29944 90.651 5.44457 90.1571 5.7349C89.6756 6.02517 89.3114 6.37357 89.0642 6.77997V9.53201C89.3114 10.0197 89.6632 10.3913 90.12 10.6468C90.5768 10.9023 91.1017 11.03 91.6945 11.03Z" fill="#3981F1"/>
<path d="M97.9258 8.17339C97.9258 7.48829 98.0494 6.86125 98.2961 6.29228C98.5433 5.71168 98.8951 5.21234 99.3519 4.79431C99.8087 4.37628 100.352 4.05114 100.981 3.8189C101.611 3.57505 102.309 3.45312 103.075 3.45312C103.827 3.45312 104.519 3.57505 105.149 3.8189C105.791 4.05114 106.34 4.37628 106.797 4.79431C107.254 5.21234 107.606 5.71168 107.853 6.29228C108.112 6.86125 108.242 7.48829 108.242 8.17339C108.242 8.85854 108.112 9.49137 107.853 10.072C107.606 10.641 107.254 11.1345 106.797 11.5525C106.34 11.9705 105.791 12.2957 105.149 12.5279C104.519 12.7601 103.827 12.8763 103.075 12.8763C102.322 12.8763 101.63 12.7601 101 12.5279C100.371 12.2957 99.8273 11.9705 99.3704 11.5525C98.9136 11.1345 98.5557 10.641 98.2961 10.072C98.0494 9.49137 97.9258 8.85854 97.9258 8.17339ZM100.111 8.17339C100.111 8.57985 100.179 8.95725 100.315 9.30559C100.463 9.65393 100.667 9.95584 100.926 10.2113C101.185 10.4668 101.494 10.67 101.852 10.821C102.223 10.9603 102.63 11.03 103.075 11.03C103.519 11.03 103.92 10.9661 104.278 10.8383C104.649 10.699 104.964 10.5074 105.223 10.2636C105.482 10.0081 105.686 9.7062 105.834 9.35786C105.982 9.00947 106.057 8.61464 106.057 8.17339C106.057 7.73213 105.976 7.33736 105.815 6.98897C105.667 6.62899 105.458 6.32708 105.186 6.08324C104.914 5.82776 104.6 5.63619 104.241 5.50848C103.883 5.36913 103.494 5.29944 103.075 5.29944C102.655 5.29944 102.26 5.36913 101.889 5.50848C101.531 5.63619 101.216 5.82776 100.945 6.08324C100.685 6.32708 100.482 6.62899 100.334 6.98897C100.185 7.33736 100.111 7.73213 100.111 8.17339Z" fill="#3981F1"/>
<path d="M109.555 3.66211H113.666C115.012 3.66211 116.024 3.8421 116.704 4.20207C117.383 4.56204 117.723 5.18329 117.723 6.06578C117.723 6.48382 117.624 6.83801 117.426 7.12828C117.229 7.41861 116.969 7.67988 116.648 7.91209C117.105 8.0747 117.444 8.34755 117.667 8.73074C117.889 9.10235 118 9.53198 118 10.0197C118 10.9254 117.661 11.6048 116.981 12.0576C116.303 12.4988 115.346 12.7195 114.111 12.7195H109.555V3.66211ZM111.666 8.97459V10.9254H113.907C114.537 10.9254 115.012 10.85 115.333 10.699C115.654 10.548 115.815 10.3042 115.815 9.96744C115.815 9.60747 115.66 9.35199 115.352 9.20106C115.055 9.05008 114.592 8.97459 113.963 8.97459H111.666ZM111.666 5.45617V7.2502H114.148C114.58 7.2502 114.92 7.17477 115.166 7.02379C115.414 6.87286 115.537 6.64059 115.537 6.32705C115.537 5.95549 115.37 5.71744 115.037 5.61294C114.716 5.50845 114.24 5.45617 113.611 5.45617H111.666Z" fill="#3981F1"/>
</g>
<defs>
<clipPath id="clip0_883_13745">
<rect width="118" height="17" fill="white"/>
</clipPath>
</defs>
</svg>
