<svg width="78" height="23" viewBox="0 0 78 23" fill="none" xmlns="http://www.w3.org/2000/svg">
<g clip-path="url(#clip0_837_16301)">
<path d="M74.0588 19.8814C75.5804 19.8814 76.6599 19.6074 77.4619 19.0335V16.3813C76.6316 16.9552 75.6352 17.311 74.2519 17.311C71.9006 17.311 70.9319 15.5061 70.9319 12.6624C70.9319 9.68174 72.122 8.15081 74.2802 8.15081C75.5528 8.15081 76.7976 8.58843 77.4619 8.9987V6.23684C76.7699 5.85378 75.5528 5.58044 73.9198 5.58044C69.7147 5.58044 67.5282 8.56115 67.5282 12.7442C67.5282 17.3383 69.6587 19.8814 74.0588 19.8814ZM53.4727 18.6777V16.0255C52.4491 16.7092 50.7337 17.311 49.1287 17.311C46.7208 17.311 45.8083 16.1897 45.6697 13.8927H53.6107V12.1703C53.6107 7.38535 51.48 5.58044 48.1879 5.58044C44.1757 5.58044 42.2658 8.61566 42.2658 12.7715C42.2658 17.5571 44.6461 19.8808 48.8514 19.8808C50.9545 19.8808 52.5043 19.3341 53.4727 18.6777ZM23.3131 5.85378V11.2951H18.9133V5.85378H15.6211V19.6074H18.9133V13.8661H23.3131V19.608H26.6059V5.85511H23.3131V5.85378ZM41.4643 17.0384H39.9972V5.85378H30.3967V7.02953C30.3967 10.3926 30.176 14.7407 29.0138 17.0377H27.9896V22.7523H31.0333V19.6074H38.4212V22.7523H41.465V17.0377L41.4643 17.0384ZM63.9874 19.608H67.7219L62.4373 12.1983L67.086 5.85444H63.766L59.1169 12.1983V5.85444H55.8247V19.608H59.1169V12.8539L63.9874 19.608ZM48.1321 8.1515C49.7646 8.1515 50.2627 9.49153 50.2627 11.214V11.4873H45.6697C45.7531 9.29932 46.5553 8.1515 48.1327 8.1515H48.1321ZM36.7051 17.0384H32.0563C32.9695 14.9601 33.2185 11.214 33.2185 8.83516V8.42482H36.7044V17.0384H36.7051Z" fill="black"/>
<path d="M12.8533 19.6074H9.50531V3.17437H8.01129C5.27233 3.17437 3.83353 4.54102 3.83353 6.56471C3.83353 8.8611 4.82952 9.9278 6.8767 11.2951L8.56446 12.4164L3.6949 19.6074H0.0703125L4.44189 13.1819C1.92433 11.4042 0.513124 9.68177 0.513124 6.75623C0.513124 3.09191 3.08654 0.604004 7.98374 0.604004H12.8533V19.6074Z" fill="#FC3F1D"/>
</g>
<defs>
<clipPath id="clip0_837_16301">
<rect width="78" height="23" fill="white"/>
</clipPath>
</defs>
</svg>
