<svg width="78" height="23" viewBox="0 0 78 23" fill="none" xmlns="http://www.w3.org/2000/svg">
<g clip-path="url(#clip0_1016_1409)">
<path d="M74.0588 19.8815C75.5804 19.8815 76.6599 19.6075 77.4619 19.0336V16.3815C76.6316 16.9553 75.6352 17.3112 74.2519 17.3112C71.9006 17.3112 70.9319 15.5062 70.9319 12.6625C70.9319 9.68186 72.122 8.15093 74.2802 8.15093C75.5528 8.15093 76.7976 8.58856 77.4619 8.99883V6.23696C76.7699 5.8539 75.5528 5.58057 73.9198 5.58057C69.7147 5.58057 67.5282 8.56127 67.5282 12.7443C67.5282 17.3384 69.6587 19.8815 74.0588 19.8815ZM53.4727 18.6778V16.0256C52.4491 16.7093 50.7337 17.3112 49.1287 17.3112C46.7208 17.3112 45.8083 16.1899 45.6697 13.8929H53.6107V12.1704C53.6107 7.38547 51.48 5.58057 48.1879 5.58057C44.1757 5.58057 42.2658 8.61578 42.2658 12.7716C42.2658 17.5572 44.6461 19.8809 48.8514 19.8809C50.9545 19.8809 52.5043 19.3342 53.4727 18.6778ZM23.3131 5.8539V11.2952H18.9133V5.8539H15.6211V19.6075H18.9133V13.8662H23.3131V19.6082H26.6059V5.85523H23.3131V5.8539ZM41.4643 17.0385H39.9972V5.8539H30.3967V7.02965C30.3967 10.3928 30.176 14.7408 29.0138 17.0378H27.9896V22.7525H31.0333V19.6075H38.4212V22.7525H41.465V17.0378L41.4643 17.0385ZM63.9874 19.6082H67.7219L62.4373 12.1984L67.086 5.85457H63.766L59.1169 12.1984V5.85457H55.8247V19.6082H59.1169V12.8541L63.9874 19.6082ZM48.1321 8.15162C49.7646 8.15162 50.2627 9.49165 50.2627 11.2141V11.4874H45.6697C45.7531 9.29944 46.5553 8.15162 48.1327 8.15162H48.1321ZM36.7051 17.0385H32.0563C32.9695 14.9602 33.2185 11.2141 33.2185 8.83528V8.42495H36.7044V17.0385H36.7051Z" fill="black"/>
<path d="M12.8533 19.6074H9.50531V3.17437H8.01129C5.27233 3.17437 3.83353 4.54102 3.83353 6.56471C3.83353 8.8611 4.82952 9.9278 6.8767 11.2951L8.56446 12.4164L3.6949 19.6074H0.0703125L4.44189 13.1819C1.92433 11.4042 0.513124 9.68177 0.513124 6.75623C0.513124 3.09191 3.08654 0.604004 7.98374 0.604004H12.8533V19.6074Z" fill="#FC3F1D"/>
</g>
<defs>
<clipPath id="clip0_1016_1409">
<rect width="78" height="23" fill="white"/>
</clipPath>
</defs>
</svg>
