<svg width="24" height="24" viewBox="0 0 24 24" fill="none" xmlns="http://www.w3.org/2000/svg">
<path fill-rule="evenodd" clip-rule="evenodd" d="M4 7C4 6.44772 4.44772 6 5 6H19C19.5523 6 20 6.44772 20 7V12C20 12.5523 20.4477 13 21 13C21.5523 13 22 12.5523 22 12V7C22 5.34315 20.6569 4 19 4H5C3.34315 4 2 5.34315 2 7V17C2 18.6569 3.34315 20 5 20H11C11.5523 20 12 19.5523 12 19C12 18.4477 11.5523 18 11 18H5C4.44772 18 4 17.5523 4 17V7ZM7 8C6.44772 8 6 8.44772 6 9C6 9.55228 6.44772 10 7 10H17C17.5523 10 18 9.55228 18 9C18 8.44772 17.5523 8 17 8H7ZM6 13C6 12.4477 6.44772 12 7 12H12C12.5523 12 13 12.4477 13 13C13 13.5523 12.5523 14 12 14H7C6.44772 14 6 13.5523 6 13ZM16 18C16 16.8954 16.8954 16 18 16C19.1046 16 20 16.8954 20 18C20 19.1046 19.1046 20 18 20C16.8954 20 16 19.1046 16 18ZM18 14C15.7909 14 14 15.7909 14 18C14 20.2091 15.7909 22 18 22C20.2091 22 22 20.2091 22 18C22 15.7909 20.2091 14 18 14Z" fill="#337AE0"/>
</svg>
