<svg width="36" height="36" viewBox="0 0 36 36" fill="none" xmlns="http://www.w3.org/2000/svg">
<path d="M27.5182 9.00484V31.4155C27.5182 32.4996 26.6362 33.3824 25.5532 33.3824H5.965C4.88193 33.3824 4 32.4996 4 31.4155V9.00484C4 7.9207 4.88193 7.0379 5.965 7.0379H25.5686C26.6362 7.0379 27.5182 7.9207 27.5182 9.00484Z" stroke="#337AE0" stroke-width="1.5" stroke-miterlimit="10" stroke-linecap="round" stroke-linejoin="round"/>
<path d="M31.9596 4.46693V26.8776C31.9596 27.9617 31.0776 28.8445 29.9946 28.8445H27.519V9.0203C27.519 7.93617 26.637 7.05337 25.554 7.05337H8.44141V4.46693C8.44141 3.3828 9.32334 2.5 10.4064 2.5H30.01C31.0776 2.5 31.9596 3.3828 31.9596 4.46693Z" stroke="#337AE0" stroke-width="1.5" stroke-miterlimit="10" stroke-linecap="round" stroke-linejoin="round"/>
<path d="M21.7452 17.2597C21.7452 19.2266 20.7859 20.9767 19.316 22.0763C18.3258 22.8197 17.088 23.2534 15.7574 23.2534C14.4422 23.2534 13.2354 22.8352 12.2451 22.1228C10.7443 21.0387 9.76953 19.2731 9.76953 17.2752C9.76953 13.9608 12.4463 11.2814 15.7574 11.2814C19.0685 11.2814 21.7452 13.9608 21.7452 17.2597Z" stroke="#337AE0" stroke-width="1.5" stroke-miterlimit="10" stroke-linecap="round" stroke-linejoin="round"/>
<path d="M19.3211 22.0764V28.3643L15.7933 25.7314L12.2656 28.3643V22.1228C13.2559 22.8352 14.4627 23.2534 15.7779 23.2534C17.093 23.2534 18.3308 22.8198 19.3211 22.0764Z" stroke="#337AE0" stroke-width="1.5" stroke-miterlimit="10" stroke-linecap="round" stroke-linejoin="round"/>
</svg>
