<svg width="24" height="24" viewBox="0 0 24 24" fill="none" xmlns="http://www.w3.org/2000/svg">
<path fill-rule="evenodd" clip-rule="evenodd" d="M10.7436 6.00002H13.2556L14.1556 9.00002H9.84364L10.7436 6.00002ZM10.0221 4.00002C10.0068 3.99967 9.99156 3.99967 9.97637 4.00002H7.13199C6.0782 4.00002 5.10168 4.55292 4.55951 5.45653L2.86602 8.27902C2.21464 9.36465 2.31491 10.7423 3.11662 11.7222L9.67774 19.7414C10.13 20.2941 10.7302 20.6386 11.3669 20.7748C11.4443 20.838 11.5323 20.8904 11.6296 20.929C11.7056 20.9594 11.7855 20.9805 11.8675 20.9915C11.9518 21.0028 12.0359 21.0031 12.1181 20.9932C12.2041 20.9829 12.288 20.9614 12.3677 20.9298C12.4657 20.8911 12.5544 20.8384 12.6323 20.7748C13.269 20.6386 13.8692 20.2941 14.3215 19.7414L20.8826 11.7222C21.6843 10.7424 21.7846 9.36465 21.1332 8.27902L19.4397 5.45653C18.8975 4.55292 17.921 4.00002 16.8672 4.00002H14.0229C14.0077 3.99967 13.9924 3.99967 13.9771 4.00002H10.0221ZM11.9996 16.9729L14.0901 11H9.90909L11.9996 16.9729ZM7.75558 9.00002H4.7658L6.2745 6.48552C6.45522 6.18432 6.78073 6.00002 7.13199 6.00002H8.65558L7.75558 9.00002ZM7.79013 11L9.79383 16.7249L5.10985 11H7.79013ZM16.2091 11L14.2054 16.7249L18.8894 11H16.2091ZM16.8672 6.00002H15.3436L16.2436 9.00002H19.2334L17.7247 6.48552C17.544 6.18432 17.2185 6.00002 16.8672 6.00002Z" fill="#337AE0"/>
</svg>
