<svg width="100" height="100" viewBox="0 0 100 100" fill="none" xmlns="http://www.w3.org/2000/svg">
<path d="M78.8384 0L62.9619 33.4343C62.8481 33.6739 62.6516 33.8644 62.4086 33.9705C62.1655 34.0767 61.8922 34.0914 61.6392 34.012C60.3204 33.6135 58.9818 33.2948 57.6352 33.0359L57.2368 32.9602C54.7656 32.5093 52.2587 32.2826 49.7467 32.2829C48.7467 32.2829 47.7547 32.3187 46.7467 32.3904C46.5953 32.3904 46.4439 32.3904 46.2925 32.4263C44.6275 32.5607 42.9723 32.7975 41.3364 33.1355C41.2311 33.1558 41.1223 33.1466 41.022 33.1089C40.9216 33.0713 40.8336 33.0067 40.7677 32.9222C40.7017 32.8377 40.6604 32.7366 40.6483 32.6301C40.6361 32.5237 40.6537 32.4159 40.6989 32.3187L56.0017 0H78.8384Z" fill="#337AE0"/>
<path d="M52.8247 18.625L50 12.6649L52.1036 8.22266L54.9522 14.131L52.8247 18.625Z" fill="#164D9D"/>
<path d="M58.4215 30.4544L53.0391 19.0918V19.0879L55.1705 14.5898L60.6048 25.8568L58.4215 30.4544Z" fill="#164D9D"/>
<path d="M63.6055 32.0753L62.9601 33.4339C62.8464 33.6735 62.6498 33.864 62.4068 33.9701C62.1637 34.0763 61.8904 34.091 61.6374 34.0116C60.3203 33.6179 58.9839 33.2921 57.6334 33.0355C57.4979 33.0076 57.3665 32.9797 57.235 32.9598C54.8489 32.5255 52.4292 32.3015 50.0039 32.2905H50.2629C52.6128 32.2889 54.9586 32.4874 57.2748 32.8841L57.6732 32.9518C58.0026 33.0129 58.3333 33.0767 58.6653 33.1431C58.7705 33.1634 58.8793 33.1542 58.9797 33.1166C59.08 33.0789 59.168 33.0143 59.234 32.9298C59.2999 32.8453 59.3412 32.7443 59.3534 32.6378C59.3655 32.5313 59.348 32.4235 59.3027 32.3263L58.6374 30.9199L60.8246 26.3184L63.6055 32.0753Z" fill="#164D9D"/>
<path d="M55.1708 14.59L53.0394 19.088L52.8242 18.6298V18.6259L54.9517 14.1318L55.1708 14.59Z" fill="#CE9117"/>
<path d="M62.0806 0.00390625L55.1722 14.5896L54.9531 14.1314L61.6424 0.00390625H62.0806Z" fill="#F9B906"/>
<path d="M60.8282 26.3146L58.641 30.9162L58.4219 30.4541L60.6051 25.8564L60.8282 26.3146Z" fill="#CE9117"/>
<path d="M73.3226 0.00390625L60.8286 26.3147L60.6055 25.8565L72.8844 0.00390625H73.3226Z" fill="#F9B906"/>
<path d="M65.1465 33.8768V41.1636H63.5529V34.0839C62.7163 33.7413 61.8637 33.4266 60.9951 33.1477C60.1266 32.8688 59.1426 32.5899 58.2063 32.3509C52.8049 31.0892 47.1854 31.0892 41.784 32.3509C40.8358 32.57 39.9035 32.8329 38.9951 33.1477C38.0868 33.4624 37.274 33.7413 36.4374 34.0839V41.1636H34.8438V33.8728C34.8439 33.6217 34.9201 33.3765 35.0624 33.1695C35.2046 32.9626 35.4062 32.8035 35.6406 32.7134C36.537 32.3548 37.8517 31.8528 38.3059 31.7054C39.7275 31.2362 41.1764 30.8544 42.6445 30.562C47.5026 29.5952 52.5036 29.5952 57.3617 30.562C58.8287 30.8539 60.2763 31.2357 61.6963 31.7054C62.1545 31.8568 63.4692 32.3588 64.3657 32.7134C64.5971 32.8072 64.7951 32.9682 64.9342 33.1755C65.0734 33.3828 65.1473 33.6271 65.1465 33.8768Z" fill="#E8A615"/>
<path d="M50.0019 98.9159C67.5078 98.9159 81.6991 84.7246 81.6991 67.2187C81.6991 49.7128 67.5078 35.5215 50.0019 35.5215C32.496 35.5215 18.3047 49.7128 18.3047 67.2187C18.3047 84.7246 32.496 98.9159 50.0019 98.9159Z" fill="#F9B906"/>
<path d="M50.0015 96.0958C65.9495 96.0958 78.878 83.1673 78.878 67.2193C78.878 51.2712 65.9495 38.3428 50.0015 38.3428C34.0534 38.3428 21.125 51.2712 21.125 67.2193C21.125 83.1673 34.0534 96.0958 50.0015 96.0958Z" fill="#E8A615"/>
<path d="M77.113 67.2151C77.1124 73.9595 74.5962 80.4612 70.0564 85.4488C65.5166 90.4365 59.2797 93.5515 52.5651 94.1847C45.8505 94.818 39.1411 92.9239 33.7489 88.8729C28.3567 84.8219 24.6693 78.9053 23.4079 72.28C22.1464 65.6546 23.4015 58.797 26.9278 53.0479C30.4541 47.2988 35.998 43.0717 42.4755 41.1932C48.953 39.3147 55.8982 39.9198 61.9533 42.8902C68.0083 45.8606 72.7376 50.9827 75.2166 57.255C76.4687 60.4264 77.1121 63.8054 77.113 67.2151Z" fill="#F9B906"/>
<path d="M63.7134 43.8365L25.6457 79.1273C24.0641 75.8911 23.1438 72.3719 22.9385 68.7756C22.7333 65.1794 23.2473 61.5783 24.4505 58.1831L43.4903 40.9003C50.3601 39.2018 57.6216 40.2555 63.7254 43.8365H63.7134Z" fill="#FFC943"/>
<path d="M75.2143 57.2634L38.1625 91.61C34.4456 89.7965 31.1896 87.1617 28.6406 83.9048L68.6725 47.5781C71.5302 50.2934 73.7626 53.5984 75.2143 57.2634Z" fill="#FFC943"/>
<path d="M58.6661 33.1355C57.0301 32.7975 55.3749 32.5607 53.7099 32.4263C53.5585 32.4263 53.4071 32.4024 53.2557 32.3904C52.2597 32.3187 51.2637 32.2829 50.2557 32.2829C47.7437 32.2826 45.2368 32.5093 42.7657 32.9602L42.3672 33.0359C41.0206 33.2948 39.682 33.6215 38.3832 34.012C38.1301 34.0914 37.8569 34.0767 37.6138 33.9705C37.3707 33.8644 37.1742 33.6739 37.0605 33.4343L21.1641 0H44.0047L59.3075 32.3187C59.3531 32.4162 59.3708 32.5245 59.3585 32.6314C59.3462 32.7384 59.3046 32.8398 59.2381 32.9245C59.1716 33.0091 59.0829 33.0737 58.9819 33.1109C58.8809 33.1482 58.7716 33.1567 58.6661 33.1355Z" fill="#337AE0"/>
<path d="M53.7147 32.4263C53.5633 32.4263 53.4119 32.4024 53.2605 32.3904L37.9219 0H38.3482L53.7147 32.4263Z" fill="#F9B906"/>
<path d="M42.7674 32.9602L42.369 33.0359L26.6758 0H27.114L42.7674 32.9602Z" fill="#F9B906"/>
<path d="M46.0885 87.721C46.0267 87.2643 45.9076 86.8172 45.7339 86.3903C45.6901 86.2748 45.6423 86.1593 45.5945 86.0437C45.5466 85.9282 45.4988 85.8047 45.447 85.6891C45.3435 85.4581 45.2319 85.2349 45.1164 85.0278C45.0054 84.8167 44.8831 84.6119 44.7498 84.4142C44.718 84.3624 44.6821 84.3146 44.6462 84.2628L44.5945 84.1911L44.5427 84.1154L44.3275 83.8286C44.2558 83.7369 44.1801 83.6493 44.1084 83.5696L43.9968 83.4501L43.8893 83.3385C43.7636 83.2098 43.62 83.0997 43.463 83.0118C43.4035 83.5444 43.4345 84.0832 43.5546 84.6055C43.6161 84.894 43.6987 85.1776 43.8016 85.4541C43.8534 85.5935 43.9092 85.7329 43.9729 85.8525C44.0367 85.972 44.1004 86.1154 44.1682 86.2509C44.2823 86.4582 44.4157 86.6543 44.5666 86.8365C44.7136 87.0127 44.8734 87.1778 45.0446 87.3306C45.1283 87.4023 45.208 87.474 45.2917 87.5338L45.3674 87.5856L45.212 87.5457C45.0845 87.5098 44.953 87.482 44.8136 87.4381L44.0407 87.1991C43.7857 87.1114 43.5347 87.0158 43.2837 86.9242L43.0925 86.8565L42.9052 86.7768L42.6104 86.6533C42.6126 86.6387 42.6126 86.624 42.6104 86.6095C42.6279 86.1602 42.5891 85.7105 42.4949 85.2708C42.451 85.0318 42.3992 84.7808 42.3355 84.5417C42.3076 84.4222 42.2717 84.3027 42.2399 84.1871L42.1323 83.8445C42.0608 83.6222 41.9771 83.4041 41.8813 83.1911C41.8295 83.0835 41.7817 82.972 41.7299 82.8644C41.6781 82.7569 41.6223 82.6533 41.5666 82.5537C41.5108 82.4541 41.455 82.3584 41.3992 82.2628C41.3435 82.1672 41.2837 82.0836 41.2239 82.0039C41.1717 81.9261 41.113 81.8528 41.0486 81.7848C41.0168 81.7529 40.9889 81.721 40.957 81.6931L40.8694 81.6134C40.8313 81.7269 40.8007 81.8426 40.7777 81.9601C40.7538 82.0796 40.7339 82.2031 40.718 82.3346C40.6903 82.6085 40.681 82.884 40.6901 83.1592C40.7016 83.4482 40.7349 83.7359 40.7897 84.0198C40.8416 84.3047 40.9135 84.5856 41.0048 84.8604C41.0833 85.077 41.1779 85.2874 41.2877 85.4899C41.3435 85.5935 41.4032 85.6851 41.467 85.7808C41.5307 85.8764 41.5984 85.964 41.6662 86.0477C41.7517 86.1578 41.8434 86.2629 41.9411 86.3624C41.1577 86.0006 40.3967 85.5922 39.6622 85.1393L39.463 84.9879L39.4869 84.9361C39.5779 84.5055 39.6154 84.0652 39.5984 83.6254C39.5984 83.3824 39.5984 83.1353 39.5626 82.8963C39.5267 82.6573 39.5148 82.4182 39.4829 82.1832C39.449 81.9563 39.4025 81.7315 39.3435 81.5099C39.2903 81.283 39.2238 81.0595 39.1443 80.8405C39.076 80.6395 38.9962 80.4426 38.9052 80.2509C38.8269 80.0942 38.7307 79.9471 38.6184 79.8126C38.3971 80.2742 38.2556 80.7699 38.2 81.2788C38.1789 81.42 38.1656 81.5623 38.1602 81.7051C38.1602 81.8445 38.1602 81.9879 38.1602 82.1314C38.1602 82.2748 38.1602 82.4182 38.1602 82.5616C38.1602 82.7051 38.1881 82.8445 38.212 82.98C38.2863 83.4206 38.4359 83.8451 38.6542 84.2349C38.706 84.3306 38.7578 84.4182 38.8136 84.5019L38.8853 84.6134C38.2558 84.1778 37.6494 83.7097 37.0686 83.211L36.6901 82.8724L36.7219 82.8246C36.8801 82.4223 36.9885 82.0022 37.0447 81.5736C37.0805 81.3385 37.1124 81.0995 37.1283 80.8605C37.1283 80.7409 37.1283 80.6254 37.1522 80.5099C37.1761 80.3943 37.1522 80.2708 37.1522 80.1593C37.1658 79.9364 37.1658 79.7128 37.1522 79.4899C37.1522 79.2589 37.1084 79.0238 37.0686 78.8086C37.0686 78.7529 37.0686 78.7011 37.0367 78.6493V78.5696V78.4899C37.0167 78.3917 36.9914 78.2946 36.961 78.1991C36.9352 78.1106 36.9033 78.0241 36.8654 77.9401C36.832 77.8956 36.7947 77.8543 36.7538 77.8166C36.7376 77.7809 36.719 77.7462 36.698 77.713C36.6343 77.8007 36.5705 77.9003 36.5108 77.9999C36.451 78.0995 36.3952 78.2111 36.3395 78.3266C36.2296 78.5669 36.1364 78.8145 36.0606 79.0676C36.0207 79.1991 35.9849 79.3346 35.957 79.466C35.9291 79.5975 35.9012 79.7409 35.8813 79.8644C35.8614 79.9879 35.8454 80.1433 35.8335 80.2628C35.8215 80.3824 35.8335 80.5457 35.8335 80.6612C35.8373 81.0998 35.914 81.5347 36.0606 81.9481C36.1096 82.0926 36.1682 82.2337 36.2359 82.3704C35.5677 81.7577 34.942 81.1002 34.3634 80.4023L34.4112 80.3545C34.628 79.9909 34.798 79.6013 34.9172 79.1951C34.9929 78.972 35.0566 78.7449 35.1124 78.5178C35.1403 78.4063 35.1682 78.2907 35.1881 78.1792C35.208 78.0676 35.2319 77.9561 35.2558 77.8445C35.2951 77.6271 35.3217 77.4076 35.3355 77.1871C35.3355 77.0756 35.3355 76.9601 35.3355 76.8485C35.3355 76.7369 35.3355 76.6254 35.3355 76.5138C35.3355 76.4023 35.3355 76.2987 35.3355 76.1991C35.3355 76.0995 35.3355 75.9959 35.3076 75.9003C35.2939 75.738 35.2577 75.5785 35.2 75.4262C34.8582 75.7766 34.5756 76.1803 34.3634 76.6214C34.3036 76.7449 34.2518 76.8684 34.2 76.9959C34.1482 77.1234 34.1044 77.2509 34.0646 77.3943C33.9789 77.6544 33.9137 77.9209 33.8694 78.1911C33.8365 78.4046 33.8219 78.6206 33.8255 78.8365C33.8175 78.944 33.8175 79.0518 33.8255 79.1592C33.8255 79.2628 33.8534 79.3704 33.8694 79.47C33.8853 79.5696 33.9092 79.6692 33.9331 79.7608L33.969 79.8963C33.9684 79.9056 33.9684 79.9149 33.969 79.9242C33.4299 79.202 32.9376 78.4461 32.4948 77.6612C32.5168 77.6515 32.536 77.6365 32.5506 77.6174C32.8188 77.3012 33.0451 76.9517 33.2239 76.5776C33.3235 76.3784 33.4271 76.1792 33.5148 75.9521C33.6024 75.725 33.6901 75.5298 33.7578 75.3226C33.8294 75.1177 33.8892 74.9088 33.9371 74.6971C33.965 74.5895 33.9849 74.482 34.0048 74.3744C34.0247 74.2668 34.0446 74.1553 34.0606 74.0517C34.0913 73.8526 34.1072 73.6515 34.1084 73.4501C34.1178 73.2842 34.1031 73.1177 34.0646 72.9561C33.8812 73.0917 33.7105 73.2437 33.5546 73.4102C33.3809 73.5961 33.2211 73.7945 33.0765 74.0039C32.7877 74.4453 32.5599 74.9237 32.3992 75.4262C32.3674 75.5258 32.3395 75.6254 32.3156 75.729C32.2886 75.8326 32.2673 75.9377 32.2518 76.0437C32.2282 76.2514 32.2162 76.4602 32.216 76.6692C32.216 76.7688 32.216 76.8684 32.216 76.96C32.216 77.0517 32.216 77.0915 32.2478 77.1553C31.8323 76.3694 31.4677 75.5576 31.1562 74.725C31.1823 74.7202 31.2069 74.7093 31.2279 74.6931C31.5293 74.4237 31.7969 74.1187 32.0247 73.7848C32.1522 73.6055 32.2757 73.4182 32.3913 73.227C32.5068 73.0357 32.6263 72.8286 32.7259 72.6533C32.9227 72.2704 33.0841 71.8703 33.208 71.458C33.2319 71.3584 33.2678 71.2588 33.2877 71.1632C33.3346 70.9873 33.364 70.8071 33.3753 70.6254C33.3794 70.5484 33.3794 70.4713 33.3753 70.3943C33.2837 70.4421 33.1921 70.4979 33.0964 70.5577C32.9991 70.6192 32.9059 70.687 32.8176 70.7608C32.6223 70.913 32.4397 71.0809 32.2717 71.2628C31.9106 71.6445 31.6048 72.075 31.3634 72.5417L31.2917 72.6812C31.2717 72.729 31.2518 72.7768 31.2359 72.8246C31.2199 72.8724 31.1642 73.0198 31.1323 73.1194C31.0725 73.315 31.0272 73.5148 30.9968 73.717C30.9742 73.886 30.9649 74.0565 30.969 74.227C30.753 73.6085 30.5682 72.9795 30.4152 72.3425L30.2717 71.6971C30.3022 71.6948 30.332 71.6867 30.3594 71.6732C30.693 71.4587 30.9994 71.2045 31.2717 70.9162C31.5771 70.6066 31.8594 70.275 32.1164 69.9242C32.2428 69.7564 32.3586 69.5807 32.463 69.3983C32.5148 69.3067 32.5666 69.215 32.6144 69.1194C32.6622 69.0238 32.714 68.9321 32.7578 68.8405C32.8439 68.666 32.9158 68.4848 32.9729 68.2987C33.0276 68.1473 33.0611 67.9891 33.0725 67.8286C32.8663 67.9009 32.6675 67.993 32.4789 68.1035C32.3753 68.1593 32.2757 68.223 32.1721 68.2907C32.0686 68.3585 31.9729 68.4342 31.8733 68.5138C31.4699 68.8315 31.1131 69.2043 30.8136 69.6214C30.5787 69.95 30.4021 70.3166 30.2917 70.7051C30.2638 70.7967 30.2399 70.8883 30.2199 70.976C30.2003 71.0547 30.1856 71.1345 30.1761 71.215V71.1513L30.1044 70.7529C30.0566 70.4899 30.0287 70.219 29.9968 69.9561L29.945 69.5577C29.945 69.4222 29.9251 69.2867 29.9132 69.1593L29.8853 68.7609V68.6812C29.9164 68.691 29.9498 68.691 29.9809 68.6812C30.1495 68.611 30.3121 68.527 30.467 68.4302C30.6343 68.3266 30.8056 68.2071 30.9769 68.0796C31.3148 67.8204 31.6342 67.5382 31.9331 67.2349C32.2224 66.9364 32.4825 66.6109 32.71 66.2628C32.8174 66.106 32.912 65.9408 32.9929 65.7688C33.0667 65.6297 33.1203 65.4808 33.1522 65.3266C32.9436 65.3678 32.7394 65.4292 32.5427 65.5098C32.4338 65.5523 32.3262 65.6001 32.2199 65.6533C32.1124 65.7051 32.0048 65.7648 31.9012 65.8246C31.6839 65.9533 31.475 66.0957 31.2757 66.2509C31.0788 66.4056 30.8925 66.5733 30.718 66.7529L30.6184 66.8604L30.5227 66.976C30.463 67.0557 30.4032 67.1354 30.3474 67.219C30.2917 67.3027 30.2399 67.3864 30.1921 67.47C30.1435 67.5539 30.0996 67.6403 30.0606 67.729C29.9894 67.8879 29.9295 68.0516 29.8813 68.219V68.2429V67.5497C29.8813 67.4142 29.8813 67.2788 29.8813 67.1513V66.9481C29.8813 66.8804 29.8813 66.8126 29.8813 66.7449L29.9012 66.3465V66.1433V65.9441C29.9012 65.8684 29.9012 65.7927 29.9211 65.721C29.9538 65.7291 29.988 65.7291 30.0207 65.721C30.1939 65.6748 30.3631 65.6148 30.5267 65.5417C30.702 65.466 30.8853 65.3744 31.0646 65.2748C31.2439 65.1752 31.4231 65.0636 31.5984 64.9481C31.7737 64.8326 31.949 64.709 32.1084 64.5855C32.2678 64.462 32.4152 64.3385 32.5626 64.1871L32.7777 63.968C32.8494 63.8963 32.9172 63.8206 32.9849 63.7489C33.2299 63.4986 33.427 63.2056 33.5666 62.8844C33.1247 62.9192 32.6915 63.0255 32.2837 63.1991C31.8317 63.3897 31.4059 63.6374 31.0168 63.9361C30.7166 64.1787 30.4559 64.4663 30.2439 64.7887C30.1551 64.9338 30.0753 65.0841 30.0048 65.2389C30.0031 65.2548 30.0031 65.2708 30.0048 65.2867C30.0877 64.4614 30.2208 63.6418 30.4032 62.8326C30.4349 62.8497 30.471 62.8566 30.5068 62.8525C30.8748 62.801 31.2349 62.7032 31.5785 62.5617L31.8574 62.4461L32.1403 62.3186C32.3275 62.231 32.5068 62.1354 32.6781 62.0358C32.8473 61.9403 33.011 61.8352 33.1682 61.721L33.4112 61.5377C33.4909 61.478 33.5666 61.4142 33.6383 61.3505C33.7803 61.2272 33.9134 61.0941 34.0367 60.9521C34.0897 60.8928 34.139 60.8303 34.1841 60.7648C34.2252 60.7076 34.2625 60.6477 34.2956 60.5855C34.0928 60.5678 33.8889 60.5678 33.6861 60.5855C33.4602 60.6118 33.2365 60.6544 33.0168 60.713C32.9012 60.7409 32.7857 60.7768 32.6701 60.8126L32.3355 60.9401C32.1135 61.0319 31.8979 61.1384 31.6901 61.2589C31.5255 61.3541 31.3696 61.4634 31.2239 61.5856C31.0821 61.7091 30.949 61.8422 30.8255 61.984C30.7144 62.1067 30.6156 62.2402 30.5307 62.3824C30.5307 62.4063 30.5068 62.4302 30.4909 62.4541C30.6744 61.6699 30.9032 60.897 31.1761 60.1393C31.2031 60.1647 31.2387 60.1789 31.2757 60.1792C31.6387 60.1779 32.0001 60.1311 32.3514 60.0397C32.5427 59.9919 32.7498 59.9361 32.9291 59.8764C33.1084 59.8166 33.3076 59.7449 33.4869 59.6732C33.6647 59.6023 33.8377 59.5198 34.0048 59.4262C34.1775 59.3374 34.3451 59.239 34.5068 59.1314C34.7871 58.9608 35.0341 58.7407 35.2359 58.4819C35.0403 58.4433 34.8416 58.4219 34.6423 58.4182C34.4199 58.4127 34.1974 58.4247 33.9769 58.4541C33.5114 58.5128 33.0559 58.6334 32.6223 58.8126C32.2827 58.9552 31.969 59.1532 31.6941 59.3983C31.5464 59.5316 31.4129 59.6798 31.2956 59.8405L31.3793 59.6214C31.6555 58.9502 31.9653 58.2933 32.3076 57.6533C32.3303 57.6851 32.3647 57.7066 32.4032 57.713C32.7538 57.757 33.1084 57.757 33.459 57.713C33.6542 57.713 33.8574 57.6652 34.0407 57.6294L34.3275 57.5696L34.6064 57.5019C34.9683 57.4012 35.3204 57.2679 35.6582 57.1035C35.8176 57.0295 35.9708 56.9429 36.1164 56.8445L36.3036 56.7051C36.3562 56.6637 36.4042 56.617 36.447 56.5656C36.0613 56.4399 35.6575 56.378 35.2518 56.3824H34.9092C34.7976 56.3824 34.6781 56.3824 34.5666 56.4142C34.3411 56.4467 34.1176 56.4919 33.8972 56.5497C33.7221 56.5988 33.5515 56.6627 33.3873 56.7409C33.3076 56.7768 33.2239 56.8206 33.1482 56.8644L32.9251 57.0039C32.7939 57.092 32.67 57.1906 32.5546 57.2987C32.518 57.3325 32.4835 57.3685 32.451 57.4063C32.5785 57.1712 32.714 56.9401 32.8494 56.713C33.1203 56.2628 33.4072 55.8246 33.714 55.3943C33.7207 55.4146 33.7328 55.4326 33.7489 55.4467C33.765 55.4607 33.7846 55.4701 33.8056 55.474C33.9622 55.5185 34.1221 55.5504 34.2837 55.5696C34.455 55.5895 34.6343 55.5975 34.8255 55.6015C35.2051 55.6084 35.5846 55.5871 35.961 55.5377C36.1363 55.5138 36.3116 55.474 36.4948 55.4302C36.676 55.3884 36.8543 55.3352 37.0287 55.2708C37.3297 55.18 37.6118 55.0356 37.8614 54.8445C37.6907 54.7601 37.5118 54.6933 37.3275 54.6453C37.1238 54.5885 36.916 54.5472 36.706 54.5218C36.5944 54.5218 36.4829 54.4979 36.3713 54.4939C36.2599 54.488 36.1482 54.488 36.0367 54.4939C35.8129 54.4977 35.5894 54.5136 35.3674 54.5417C35.194 54.5673 35.0233 54.6086 34.8574 54.6652C34.7697 54.6931 34.6901 54.725 34.6064 54.7569C34.5227 54.7887 34.451 54.8286 34.3753 54.8644C34.2369 54.9344 34.1038 55.0143 33.9769 55.1035L33.8494 55.2071C34.1283 54.8087 34.4192 54.4421 34.7259 54.0756C34.9172 53.8498 35.1124 53.6267 35.3116 53.4063C35.3145 53.4285 35.3235 53.4496 35.3376 53.4671C35.3516 53.4847 35.3702 53.4981 35.3913 53.5059C35.7032 53.6293 36.0301 53.711 36.3634 53.7489C36.5466 53.7768 36.7339 53.7927 36.9211 53.8047H37.196H37.4709C37.6483 53.803 37.8253 53.7897 38.0008 53.7648C38.1818 53.745 38.3614 53.7144 38.5387 53.6732L38.6662 53.6413L38.7937 53.6094L39.0247 53.5337C39.0928 53.5084 39.1593 53.4792 39.2239 53.4461C39.2832 53.4183 39.3405 53.3864 39.3952 53.3505C39.2383 53.2513 39.073 53.166 38.9012 53.0955C38.7088 53.0207 38.5119 52.9581 38.3116 52.9082L37.9929 52.8405C37.8853 52.8206 37.7777 52.8087 37.6662 52.7967C37.4507 52.7716 37.2336 52.7623 37.0168 52.7688C36.8453 52.773 36.6746 52.793 36.5068 52.8286C36.4222 52.8425 36.3384 52.8611 36.2558 52.8843L36.0168 52.964C35.8794 53.0147 35.7462 53.076 35.6184 53.1473C35.5635 53.1791 35.5103 53.2137 35.459 53.2509C35.9473 52.7207 36.4633 52.2167 37.0048 51.7409L37.0925 51.6652C37.0914 51.689 37.0973 51.7125 37.1093 51.733C37.1213 51.7535 37.139 51.7701 37.1602 51.7808C37.4476 51.9362 37.7544 52.0527 38.0725 52.1274C38.2439 52.1712 38.4271 52.211 38.6064 52.2429C38.7857 52.2748 38.961 52.2987 39.1363 52.3146C39.486 52.3503 39.8384 52.3503 40.1881 52.3146C40.2704 52.3146 40.3541 52.3027 40.4391 52.2788L40.6701 52.2349C40.8095 52.2078 40.9439 52.1594 41.0686 52.0915C40.7657 51.8595 40.4283 51.6767 40.0686 51.5497C39.8694 51.4768 39.6658 51.4169 39.459 51.3704L39.1443 51.3067C39.0407 51.2907 38.9371 51.2788 38.8335 51.2708C38.6665 51.2569 38.4985 51.2569 38.3315 51.2708C38.1679 51.2867 38.0055 51.3133 37.8454 51.3505C37.77 51.3662 37.6955 51.3861 37.6223 51.4102C37.5546 51.4102 37.4869 51.4581 37.4271 51.482C37.3502 51.5168 37.2756 51.5567 37.204 51.6015C37.7033 51.1739 38.2186 50.7755 38.7498 50.4063C38.7548 50.4087 38.7602 50.41 38.7658 50.41C38.7713 50.41 38.7767 50.4087 38.7817 50.4063C38.8953 50.4114 39.0091 50.402 39.1203 50.3784L39.3275 50.3346L39.5546 50.2748C39.706 50.227 39.8694 50.1672 40.0287 50.0995C40.1899 50.0349 40.3469 49.9604 40.4988 49.8764L40.7857 49.7091L41.0686 49.5338C41.2598 49.4142 41.467 49.2788 41.6263 49.1354C41.9538 48.9084 42.251 48.6407 42.5108 48.3385C42.3401 48.3068 42.1662 48.2961 41.9929 48.3067C41.8955 48.309 41.7984 48.317 41.702 48.3306C41.5989 48.3423 41.4965 48.3596 41.3952 48.3824C40.9983 48.46 40.6146 48.5942 40.2558 48.7808C40.0863 48.8772 39.9226 48.9836 39.7658 49.0995C39.6136 49.211 39.4698 49.3335 39.3355 49.466C39.0932 49.6955 38.8924 49.965 38.7419 50.2628C38.7298 50.2819 38.7234 50.304 38.7234 50.3266C38.7234 50.3491 38.7298 50.3712 38.7419 50.3903C38.2 50.7887 37.6741 51.1871 37.1721 51.5855C37.2331 51.518 37.289 51.4461 37.3395 51.3704C37.3753 51.3146 37.4112 51.2509 37.447 51.1871C37.4829 51.1234 37.5227 51.0557 37.5586 50.984C37.6336 50.8324 37.7001 50.6768 37.7578 50.5178C37.8228 50.3572 37.876 50.1921 37.9172 50.0238C37.945 49.9202 37.969 49.8087 37.9929 49.7011C38.0168 49.5935 38.0407 49.482 38.0606 49.3704C38.1004 49.1513 38.1363 48.9242 38.1602 48.7011C38.213 48.3044 38.213 47.9025 38.1602 47.5059C38.0144 47.6086 37.8807 47.7276 37.7618 47.8604C37.702 47.9322 37.6383 48.0039 37.5785 48.0875C37.5188 48.1712 37.463 48.2589 37.4072 48.3465C37.1921 48.6895 37.0296 49.0629 36.9251 49.4541C36.8774 49.6429 36.8415 49.8345 36.8176 50.0278C36.7965 50.2169 36.7872 50.4072 36.7897 50.5975C36.7894 50.93 36.846 51.2602 36.957 51.5736C36.9647 51.597 36.9796 51.6174 36.9997 51.6318C37.0198 51.6461 37.0439 51.6536 37.0686 51.6533L36.9729 51.733C36.4156 52.2164 35.8836 52.7283 35.3793 53.2668C35.4227 53.202 35.4614 53.1341 35.4948 53.0636C35.5644 52.9272 35.6243 52.7861 35.6741 52.6413C35.702 52.5656 35.7299 52.482 35.7538 52.3983C35.7777 52.3146 35.8056 52.231 35.8255 52.1473C35.87 51.9728 35.9046 51.7959 35.9291 51.6174C35.957 51.3983 35.9809 51.1712 35.9968 50.9401C35.9968 50.8246 35.9968 50.7051 35.9968 50.5895C35.9968 50.474 35.9968 50.3584 35.9968 50.2429C35.9968 50.0158 35.9968 49.7927 35.969 49.5816C35.9517 49.3895 35.9197 49.199 35.8733 49.0118C35.8097 49.0676 35.7498 49.1274 35.6941 49.1911C35.6332 49.263 35.5773 49.3388 35.5267 49.4182C35.4709 49.4979 35.4152 49.5855 35.3634 49.6732L35.2877 49.8126L35.216 49.9561C35.1279 50.1522 35.0508 50.353 34.9849 50.5577C34.928 50.7511 34.8841 50.9481 34.8534 51.1473C34.8534 51.2469 34.8295 51.3465 34.8215 51.4461C34.8136 51.5457 34.8215 51.6453 34.8215 51.7449C34.8212 51.9407 34.8332 52.1363 34.8574 52.3306C34.8992 52.6699 34.9975 52.9998 35.1482 53.3067C35.1588 53.3266 35.1741 53.3437 35.1929 53.3562C35.2117 53.3687 35.2333 53.3763 35.2558 53.3784C35.0566 53.5975 34.8574 53.8166 34.6662 54.0437C34.3514 54.4182 34.0526 54.8007 33.7658 55.1911C33.7921 55.1342 33.8147 55.0757 33.8335 55.0158C33.8894 54.8696 33.9334 54.719 33.965 54.5656C33.965 54.486 34.0008 54.3983 34.0168 54.3106C34.0327 54.223 34.0486 54.1314 34.0606 54.0437C34.0843 53.8614 34.0963 53.6778 34.0964 53.4939C34.0964 53.2668 34.0964 53.0278 34.0964 52.7887C34.0964 52.6692 34.0964 52.5497 34.0725 52.4302C34.0486 52.3107 34.0725 52.1951 34.0407 52.0796C34.0128 51.8445 33.9729 51.6174 33.9331 51.4063C33.892 51.2124 33.836 51.0219 33.7658 50.8366C33.513 51.1444 33.3234 51.4991 33.208 51.8804C33.1405 52.0907 33.086 52.3049 33.0447 52.5218C33.0081 52.7257 32.9881 52.9322 32.9849 53.1393C32.9773 53.5422 33.0242 53.9442 33.1243 54.3346C33.1714 54.5152 33.2314 54.6923 33.3036 54.8644C33.3685 55.0156 33.4486 55.1597 33.5427 55.2947C33.5546 55.3124 33.5706 55.3271 33.5893 55.3375C33.608 55.3479 33.6289 55.3537 33.6502 55.3545C33.3435 55.7808 33.0486 56.219 32.7737 56.6692C32.6343 56.9003 32.5028 57.1314 32.3753 57.3664C32.3753 57.3186 32.4032 57.2708 32.4112 57.219C32.447 57.0628 32.4723 56.9045 32.4869 56.7449C32.4869 56.6573 32.4869 56.5696 32.5068 56.474C32.5267 56.3784 32.5068 56.2907 32.5068 56.1991C32.5095 56.0101 32.5002 55.8212 32.4789 55.6334C32.455 55.4023 32.4192 55.1632 32.3753 54.9202C32.3753 54.7967 32.3315 54.6772 32.3076 54.5577C32.2837 54.4381 32.2558 54.3186 32.2279 54.1991C32.1348 53.7736 31.9889 53.3614 31.7937 52.972C31.7435 53.0446 31.6983 53.1205 31.6582 53.1991C31.6121 53.2879 31.5722 53.3797 31.5387 53.474C31.4629 53.6793 31.4016 53.8896 31.3554 54.1035C31.3138 54.3273 31.2859 54.5535 31.2717 54.7808C31.2535 54.9929 31.2535 55.2061 31.2717 55.4182C31.2717 55.5258 31.2956 55.6294 31.3116 55.733C31.3275 55.8365 31.3554 55.9401 31.3793 56.0437C31.4297 56.2426 31.4923 56.4382 31.5666 56.6294C31.6937 56.9676 31.8798 57.2806 32.1164 57.5537C32.13 57.5698 32.1471 57.5825 32.1665 57.5908C32.1859 57.5991 32.2069 57.6027 32.2279 57.6015C31.879 58.2488 31.5638 58.9137 31.2837 59.5935C31.2518 59.6692 31.2239 59.7489 31.1921 59.8246C31.2167 59.6184 31.226 59.4107 31.2199 59.2031C31.2093 58.8232 31.16 58.4454 31.0725 58.0756C30.9563 57.5915 30.8099 57.1151 30.6343 56.6493C30.5466 56.4182 30.447 56.1951 30.3514 55.9919C30.2603 55.8028 30.1537 55.6216 30.0327 55.4501C29.8571 55.8255 29.7556 56.2314 29.7339 56.6453C29.718 56.8788 29.718 57.113 29.7339 57.3465C29.7498 57.565 29.7817 57.7821 29.8295 57.9959C29.8789 58.2064 29.9441 58.4128 30.0247 58.6134C30.1008 58.8104 30.19 59.0021 30.2917 59.1871C30.4657 59.5134 30.6964 59.8062 30.9729 60.0517C30.9882 60.0648 31.006 60.0747 31.0251 60.0809C31.0443 60.087 31.0644 60.0893 31.0845 60.0875C30.7889 60.8607 30.5401 61.651 30.3395 62.4541C30.3415 62.4209 30.3415 62.3876 30.3395 62.3545C30.3395 62.2031 30.3116 62.0318 30.2837 61.8525C30.2531 61.6617 30.2119 61.4729 30.1602 61.2867C30.1125 61.0946 30.0526 60.9056 29.9809 60.721C29.8893 60.4939 29.7937 60.2589 29.6861 60.0238C29.6303 59.9083 29.5745 59.7887 29.5148 59.6732C29.455 59.5577 29.4032 59.4461 29.3395 59.3345C29.2268 59.1165 29.1017 58.905 28.965 58.7011C28.8466 58.5216 28.7133 58.3523 28.5666 58.1951C28.5387 58.2788 28.5108 58.3664 28.4869 58.466C28.463 58.5656 28.451 58.6692 28.4391 58.7768C28.4209 59.0088 28.4209 59.242 28.4391 59.474C28.4391 59.5935 28.451 59.713 28.4749 59.8326C28.4867 59.952 28.5067 60.0704 28.5347 60.1871C28.5799 60.4065 28.6412 60.6222 28.718 60.8326C28.8001 61.0399 28.8945 61.2421 29.0008 61.4381L29.1682 61.717C29.2279 61.8087 29.2917 61.8963 29.3514 61.984C29.5681 62.2943 29.8378 62.5641 30.1482 62.7808C30.1794 62.803 30.2177 62.8129 30.2558 62.8087C30.0655 63.6295 29.9245 64.461 29.8335 65.2987C29.8335 65.2748 29.8335 65.2509 29.8335 65.223C29.7994 65.0533 29.7555 64.8857 29.702 64.721C29.5836 64.3405 29.4289 63.9722 29.2399 63.6214C28.9816 63.1643 28.697 62.7226 28.3873 62.2987C28.1215 61.9094 27.8069 61.5559 27.451 61.2469C27.3765 61.6859 27.3887 62.1353 27.4869 62.5696C27.5108 62.6891 27.5387 62.8087 27.5705 62.9282C27.6024 63.0477 27.6423 63.1672 27.6821 63.2788C27.7575 63.4972 27.8508 63.7091 27.961 63.9122C28.0723 64.1098 28.1961 64.3001 28.3315 64.482C28.4688 64.6628 28.6207 64.832 28.7857 64.9879C28.9289 65.1328 29.0835 65.266 29.2478 65.3863C29.3947 65.495 29.5522 65.5885 29.718 65.6652C29.7518 65.675 29.7877 65.675 29.8215 65.6652L29.7976 65.8883V66.0915V66.2947V66.6931C29.7976 66.7609 29.7976 66.8286 29.7976 66.8963V67.0995C29.7976 67.2349 29.7976 67.3704 29.7976 67.4979V68.2071V68.1712C29.7428 68.0028 29.6749 67.839 29.5944 67.6812C29.5546 67.5935 29.5068 67.5059 29.459 67.4182C29.4112 67.3306 29.3634 67.2389 29.3116 67.1513C29.2598 67.0636 29.204 66.972 29.1443 66.8843L29.0566 66.7569L28.965 66.6334C28.8083 66.4262 28.6409 66.219 28.463 66.0118C28.2917 65.8047 28.1084 65.6134 27.9211 65.4102C27.8295 65.3146 27.7339 65.223 27.6423 65.1353C27.5506 65.0477 27.459 64.9601 27.3674 64.8804C27.1959 64.7337 27.0135 64.6005 26.8215 64.482C26.8108 64.6912 26.8228 64.9009 26.8574 65.1074C26.9007 65.3485 26.9633 65.5856 27.0447 65.8166C27.35 66.7219 27.924 67.5127 28.6901 68.0836C28.855 68.2129 29.031 68.3276 29.216 68.4262C29.3792 68.5159 29.5514 68.588 29.7299 68.6413C29.7613 68.6492 29.7941 68.6492 29.8255 68.6413V68.721L29.8534 69.1194C29.8534 69.2549 29.8534 69.3943 29.8853 69.5178L29.9291 69.9162C29.965 70.1871 29.9849 70.458 30.0367 70.713L30.1044 71.1114V71.1951L29.9809 70.968C29.9371 70.8923 29.8853 70.8126 29.8295 70.729C29.7219 70.5656 29.5945 70.3983 29.463 70.231C29.3307 70.0656 29.1897 69.9073 29.0407 69.7569C28.6494 69.373 28.2371 69.0112 27.8056 68.6732L27.4789 68.4302C27.3753 68.3545 27.2678 68.2828 27.1642 68.215C26.9731 68.0872 26.7703 67.9779 26.5586 67.8883C26.5765 68.1021 26.6179 68.3132 26.6821 68.5178C26.7617 68.7551 26.8603 68.9856 26.9769 69.2071C27.0327 69.3226 27.0964 69.4381 27.1642 69.5497C27.2319 69.6612 27.3036 69.7688 27.3793 69.8684C27.5202 70.0648 27.6747 70.2512 27.8415 70.4262C28.1793 70.7562 28.5583 71.0415 28.969 71.2748C29.323 71.4722 29.7085 71.607 30.1084 71.6732C30.1371 71.6812 30.1674 71.6812 30.196 71.6732L30.3355 72.3266C30.4869 72.972 30.6741 73.6134 30.8893 74.2429C30.7824 74.104 30.668 73.971 30.5466 73.8445C30.4112 73.6971 30.2638 73.5457 30.1044 73.3983L29.8534 73.1832L29.7259 73.0836L29.5984 72.984C29.1448 72.6538 28.6741 72.3479 28.1881 72.0676C27.945 71.9322 27.702 71.8047 27.467 71.7011C27.3514 71.6493 27.2359 71.6015 27.1283 71.5616C27.0207 71.5218 26.9092 71.4859 26.8056 71.458C26.8247 71.5616 26.8541 71.6631 26.8933 71.7608C26.9337 71.8696 26.9803 71.976 27.0327 72.0796C27.0845 72.1911 27.1482 72.2987 27.212 72.4102C27.2771 72.5246 27.349 72.635 27.4271 72.7409C27.7257 73.159 28.0857 73.5297 28.4948 73.8405C28.6925 73.9836 28.8973 74.1165 29.1084 74.2389C29.3214 74.3491 29.5409 74.4462 29.7658 74.5298C30.1465 74.681 30.5514 74.762 30.961 74.7688C30.9906 74.7694 31.0198 74.7611 31.0446 74.7449C31.357 75.5965 31.7243 76.427 32.1443 77.231L31.9729 77.0716C31.9012 77.0118 31.8295 76.9441 31.7498 76.8804C31.5832 76.7383 31.4089 76.6053 31.2279 76.482C31.1323 76.4222 31.0407 76.3585 30.945 76.3027C30.8494 76.2469 30.7538 76.1911 30.6582 76.1393C30.1401 75.8757 29.6081 75.6403 29.0646 75.4342C28.7937 75.3385 28.5387 75.2429 28.2877 75.1752C28.0558 75.1064 27.8186 75.0571 27.5785 75.0278C27.662 75.2383 27.769 75.4387 27.8972 75.6254C28.0421 75.8615 28.2059 76.0853 28.3873 76.2947C28.4829 76.3903 28.5785 76.4899 28.6821 76.5776C28.7857 76.6652 28.8933 76.7529 28.9968 76.8326C29.1988 76.9816 29.4119 77.1147 29.6343 77.231C29.857 77.3461 30.0873 77.4459 30.3235 77.5298C30.5518 77.6132 30.7862 77.6785 31.0247 77.725C31.4394 77.8167 31.8672 77.8329 32.2877 77.7728C32.314 77.7689 32.3388 77.7578 32.3594 77.7409C32.809 78.5474 33.3094 79.3245 33.8574 80.0676L33.8016 80.0278L33.6861 79.9481L33.4271 79.7927C33.3395 79.7409 33.2439 79.6891 33.1443 79.6413L32.8415 79.4939C32.6355 79.3966 32.4239 79.3115 32.208 79.2389C31.9371 79.1553 31.6622 79.0676 31.3753 78.9879C31.2319 78.9481 31.0885 78.9122 30.9411 78.8804L30.5108 78.7808C29.997 78.657 29.4695 78.5995 28.9411 78.6094C29.0632 78.8074 29.2061 78.9917 29.3674 79.1592C29.4568 79.2545 29.5512 79.3449 29.6502 79.4302C29.7538 79.5178 29.8614 79.6055 29.9729 79.6891C30.0845 79.7728 30.2 79.8525 30.3156 79.9282L30.4948 80.0357L30.6741 80.1353C30.9033 80.2576 31.1417 80.3615 31.3873 80.4461L31.5666 80.5059L31.7538 80.5577C31.8773 80.5895 32.0048 80.6134 32.1283 80.6373C32.3717 80.6835 32.618 80.7128 32.8654 80.725C33.2988 80.7493 33.7331 80.6967 34.1482 80.5696C34.1707 80.56 34.1921 80.548 34.212 80.5338C34.7909 81.2726 35.4191 81.9714 36.0925 82.6254C35.9451 82.5512 35.7935 82.486 35.6383 82.4302C35.2105 82.271 34.7691 82.1509 34.3196 82.0716L33.8853 82.0079L33.4391 81.9561C33.2877 81.9561 33.1363 81.9242 32.9809 81.9162L32.5347 81.8844C32.2399 81.8844 31.949 81.8844 31.6741 81.8844C31.5387 81.8844 31.4032 81.8843 31.2757 81.9162C31.1565 81.9277 31.0381 81.9464 30.9211 81.972L31.0247 82.0955L31.1482 82.219C31.2359 82.2987 31.3355 82.3784 31.4391 82.4581C31.5427 82.5377 31.6502 82.6134 31.7658 82.6891C31.7964 82.7054 31.8257 82.724 31.8534 82.7449L31.949 82.7967L32.1363 82.8963C32.3932 83.0287 32.6595 83.1419 32.9331 83.2349C33.184 83.3196 33.4411 83.3849 33.702 83.4302C33.8295 83.4302 33.957 83.474 34.1004 83.4819C34.2439 83.4899 34.3634 83.4819 34.4988 83.4819C34.7516 83.4896 35.0046 83.4789 35.2558 83.4501C35.6967 83.4026 36.1257 83.2771 36.5227 83.0796L36.5745 83.0397L36.9729 83.3823C37.5373 83.9023 38.1291 84.3918 38.7458 84.8485L38.5984 84.8086L38.2917 84.7409C37.8335 84.6513 37.368 84.6047 36.9012 84.6015H36.451L35.9929 84.6214C35.8361 84.6214 35.6808 84.6333 35.5267 84.6573C35.3713 84.6573 35.2199 84.6812 35.0686 84.7011C34.5256 84.7516 33.9906 84.8666 33.4749 85.0437C33.6584 85.2025 33.862 85.3365 34.0805 85.4421C34.3281 85.5763 34.5883 85.6857 34.8574 85.7688C35.1338 85.8584 35.416 85.9289 35.702 85.98C35.9655 86.0236 36.2318 86.0476 36.4988 86.0517C36.7656 86.0534 37.0321 86.0335 37.2956 85.9919C37.5514 85.9565 37.8043 85.9033 38.0526 85.8326C38.4818 85.7076 38.8861 85.5095 39.2478 85.2469L39.2837 85.2071L39.4988 85.3465C40.2507 85.8168 41.0304 86.2412 41.8335 86.6174C41.6901 86.6174 41.5347 86.5935 41.3753 86.5895H41.0287H40.6741C40.4322 86.6014 40.1913 86.6294 39.953 86.6732C39.6542 86.729 39.3514 86.7847 39.0447 86.8565C38.7379 86.9282 38.4231 87.0119 38.1283 87.0915C37.8335 87.1712 37.5427 87.2708 37.2757 87.3744C37.1443 87.4262 37.0168 87.478 36.8773 87.5377C36.7626 87.5884 36.6508 87.6456 36.5427 87.7091L36.6901 87.7967L36.8534 87.8764C36.969 87.9282 37.0925 87.972 37.2239 88.0158C37.3554 88.0596 37.4869 88.0995 37.6223 88.1354C37.7578 88.1712 37.9092 88.1911 38.0566 88.215C38.204 88.2389 38.3554 88.2549 38.5028 88.2668C38.6501 88.2748 38.7977 88.2748 38.945 88.2668C39.2224 88.265 39.4993 88.2437 39.7737 88.2031L39.9729 88.1632L40.1721 88.1194C40.3076 88.0835 40.4391 88.0477 40.5705 88.0039C40.8226 87.9239 41.0688 87.8267 41.3076 87.713C41.7229 87.5143 42.1004 87.2447 42.4231 86.9162C42.4337 86.9039 42.4431 86.8906 42.451 86.8764L42.7498 87.0039L42.9371 87.0836L43.1323 87.1553L43.9012 87.4381L44.698 87.6852C44.8295 87.729 44.961 87.7608 45.0964 87.7967L45.2717 87.8445H45.1602L44.8375 87.8844C44.6144 87.9202 44.3753 87.968 44.1363 88.0278C43.896 88.0842 43.6592 88.1547 43.4271 88.2389L42.9889 88.4063L42.5427 88.5816C42.2478 88.7051 41.949 88.8445 41.6662 88.98C41.1425 89.2158 40.65 89.5156 40.2 89.8724C40.4374 89.9648 40.6848 90.0289 40.9371 90.0636L41.1482 90.0915H41.3674C41.5148 90.0915 41.6662 90.0915 41.8176 90.0915C41.969 90.0915 42.1243 90.0915 42.2757 90.0676H42.3873H42.5028L42.7259 90.0317C42.9963 89.9825 43.2626 89.9133 43.5227 89.8246C43.796 89.7445 44.0636 89.6461 44.3235 89.5298C44.447 89.466 44.5666 89.3983 44.6781 89.3306C44.7897 89.2628 44.9052 89.1792 45.0128 89.1035C45.3937 88.8309 45.7241 88.4939 45.9889 88.1075L46.0088 88.0636C46.9071 88.2694 47.8172 88.4198 48.7339 88.5138L48.7658 88.1752C47.8611 88.0911 46.9628 87.9487 46.0765 87.7489L46.0885 87.721Z" fill="#AD6F00"/>
<path d="M69.764 71.7372C69.7927 71.7454 69.823 71.7454 69.8517 71.7372C70.2516 71.6709 70.637 71.5361 70.9911 71.3388C71.4018 71.1054 71.7807 70.8202 72.1186 70.4901C72.2854 70.3152 72.4398 70.1288 72.5807 69.9324C72.6525 69.8328 72.7282 69.7212 72.7959 69.6136C72.8636 69.5061 72.9274 69.3866 72.9831 69.271C73.0998 69.0496 73.1984 68.8191 73.278 68.5818C73.3422 68.3771 73.3836 68.166 73.4015 67.9523C73.1897 68.0418 72.987 68.1512 72.7959 68.279C72.6883 68.3467 72.5847 68.4184 72.4811 68.4941L72.1544 68.7372C71.7221 69.0741 71.3097 69.4359 70.9194 69.8208C70.7703 69.9713 70.6293 70.1295 70.4971 70.2949C70.3656 70.4623 70.2381 70.6296 70.1266 70.7929C70.0748 70.8766 70.023 70.9563 69.9791 71.032L69.8556 71.2591V71.1754L69.9234 70.777C69.9712 70.5101 69.9951 70.2392 70.0309 69.9802L70.0748 69.5818C70.0748 69.4463 70.0947 69.3069 70.1066 69.1834L70.1345 68.785V68.7053C70.1659 68.7132 70.1988 68.7132 70.2301 68.7053C70.4086 68.652 70.5809 68.5799 70.7441 68.4902C70.9291 68.3915 71.105 68.2769 71.27 68.1475C72.0431 67.5742 72.6216 66.7773 72.9274 65.8647C73.005 65.6326 73.0676 65.3957 73.1146 65.1555C73.1492 64.9489 73.1612 64.7392 73.1505 64.53C72.9585 64.6486 72.7761 64.7818 72.6046 64.9284C72.513 65.0081 72.4214 65.0957 72.3297 65.1834C72.2381 65.271 72.1425 65.3627 72.0509 65.4583C71.8636 65.6495 71.6803 65.8567 71.509 66.0599C71.3377 66.2631 71.1584 66.4583 71.007 66.6814L70.9154 66.8049L70.8278 66.9324C70.768 67.02 70.7122 67.1077 70.6604 67.1993C70.6086 67.2909 70.5568 67.3746 70.513 67.4663C70.4692 67.5579 70.4174 67.6415 70.3736 67.7292C70.296 67.8878 70.2294 68.0515 70.1744 68.2192V68.2551V67.5459C70.1744 67.4105 70.1744 67.275 70.1744 67.1475V66.9443C70.1744 66.8766 70.1744 66.8089 70.1744 66.7412V66.3427V66.1396V65.9364L70.1505 65.7133C70.1843 65.723 70.2202 65.723 70.254 65.7133C70.4198 65.6365 70.5773 65.5431 70.7242 65.4344C70.8886 65.314 71.0431 65.1808 71.1863 65.036C71.3433 64.8782 71.4885 64.7091 71.6206 64.53C71.756 64.3481 71.8798 64.1578 71.9911 63.9603C72.1013 63.7571 72.1945 63.5452 72.27 63.3268C72.3098 63.2153 72.3497 63.0957 72.3815 62.9762C72.4134 62.8567 72.4413 62.7372 72.4652 62.6176C72.5634 62.1833 72.5756 61.734 72.5011 61.2949C72.1452 61.604 71.8306 61.9575 71.5648 62.3467C71.2565 62.7708 70.9731 63.2124 70.7162 63.6694C70.5272 64.0203 70.3724 64.3885 70.254 64.769C70.2006 64.9337 70.1567 65.1013 70.1226 65.271C70.1226 65.2989 70.1226 65.3228 70.1226 65.3467C70.0316 64.509 69.8906 63.6775 69.7003 62.8567C69.7383 62.8603 69.7763 62.8504 69.8078 62.8288C70.1173 62.611 70.3869 62.3415 70.6046 62.032C70.6644 61.9443 70.7281 61.8567 70.7879 61.7651L70.9552 61.4862C71.0616 61.2901 71.156 61.0879 71.2381 60.8806C71.3149 60.6702 71.3762 60.4545 71.4214 60.2352C71.4494 60.1185 71.4693 60 71.4811 59.8806C71.4971 59.7611 71.509 59.6416 71.517 59.522C71.5372 59.2901 71.5372 59.0568 71.517 58.8248C71.5088 58.7204 71.4942 58.6166 71.4732 58.5141C71.4512 58.422 71.4233 58.3315 71.3895 58.2431C71.244 58.4014 71.1108 58.5705 70.9911 58.7491C70.8596 58.9443 70.7321 59.1475 70.5927 59.3826C70.5329 59.4941 70.4772 59.6057 70.4214 59.7212C70.3656 59.8368 70.3058 59.9563 70.2501 60.0718C70.1425 60.3069 70.0469 60.542 69.9552 60.769C69.8835 60.9536 69.8237 61.1426 69.776 61.3348C69.7243 61.5209 69.683 61.7098 69.6525 61.9005C69.6246 62.0798 69.6007 62.2511 69.5927 62.4025V62.5021C69.3902 61.6995 69.1415 60.9094 68.8477 60.1356C68.8677 60.1373 68.8879 60.135 68.9071 60.1289C68.9262 60.1227 68.9439 60.1128 68.9592 60.0997C69.2347 59.8532 69.4653 59.5607 69.6405 59.2352C69.7421 59.0501 69.8313 58.8584 69.9074 58.6615C69.9868 58.4608 70.0507 58.2543 70.0987 58.0439C70.1497 57.8306 70.183 57.6134 70.1983 57.3945C70.2142 57.1611 70.2142 56.9268 70.1983 56.6933C70.1765 56.2794 70.0751 55.8736 69.8995 55.4981C69.7785 55.6696 69.6719 55.8509 69.5807 56.04C69.4851 56.2431 69.3855 56.4662 69.2979 56.6973C69.1222 57.1632 68.9759 57.6395 68.8596 58.1236C68.7722 58.4934 68.7228 58.8712 68.7122 59.2511C68.7062 59.4587 68.7155 59.6664 68.7401 59.8726C68.7082 59.7969 68.6803 59.7172 68.6485 59.6415C68.3683 58.9617 68.0532 58.2968 67.7042 57.6495C67.7253 57.6508 67.7463 57.6471 67.7657 57.6388C67.785 57.6305 67.8022 57.6178 67.8158 57.6017C68.0523 57.3286 68.2385 57.0156 68.3656 56.6774C68.4399 56.4862 68.5024 56.2906 68.5529 56.0917C68.5768 55.9881 68.6007 55.8846 68.6206 55.781C68.6405 55.6774 68.6525 55.5738 68.6604 55.4663C68.6787 55.2542 68.6787 55.0409 68.6604 54.8288C68.6463 54.6015 68.6184 54.3754 68.5768 54.1515C68.5305 53.9376 68.4693 53.7273 68.3935 53.522C68.36 53.4278 68.32 53.3359 68.274 53.2471C68.2339 53.1685 68.1886 53.0926 68.1385 53.02C67.9415 53.4086 67.7955 53.8211 67.7042 54.2471C67.6724 54.3667 67.6485 54.4862 67.6246 54.6057C67.6007 54.7252 67.5768 54.8447 67.5568 54.9682C67.513 55.2113 67.4772 55.4503 67.4533 55.6814C67.4319 55.8692 67.4226 56.0581 67.4254 56.2471C67.4254 56.3388 67.4254 56.4344 67.4254 56.522C67.4254 56.6097 67.4254 56.7053 67.4254 56.7929C67.44 56.9525 67.4653 57.1109 67.5011 57.267C67.5011 57.3188 67.525 57.3666 67.5369 57.4144C67.4054 57.1794 67.274 56.9483 67.1385 56.7172C66.8636 56.267 66.5688 55.8288 66.262 55.4025C66.2834 55.4017 66.3043 55.3959 66.323 55.3855C66.3417 55.3752 66.3576 55.3605 66.3696 55.3428C66.4636 55.2078 66.5437 55.0636 66.6086 54.9125C66.6809 54.7403 66.7408 54.5632 66.7879 54.3826C66.888 53.9923 66.9349 53.5902 66.9274 53.1874C66.9241 52.9802 66.9041 52.7737 66.8676 52.5698C66.8263 52.3529 66.7717 52.1387 66.7042 51.9284C66.5888 51.5472 66.3993 51.1924 66.1465 50.8846C66.0762 51.0699 66.0203 51.2604 65.9791 51.4543C65.9393 51.6655 65.8995 51.8925 65.8716 52.1276C65.8716 52.2431 65.8477 52.3627 65.8397 52.4782C65.8317 52.5937 65.8397 52.7172 65.8158 52.8368C65.8158 53.0758 65.7959 53.3149 65.8158 53.5419C65.8193 53.7258 65.8326 53.9093 65.8556 54.0917C65.8556 54.1794 65.8835 54.271 65.8995 54.3587C65.9154 54.4463 65.9313 54.534 65.9513 54.6137C65.9828 54.767 66.0268 54.9176 66.0827 55.0639C66.1015 55.1237 66.1242 55.1822 66.1505 55.2392C65.8636 54.8408 65.5648 54.4663 65.2501 54.0917C65.0588 53.8647 64.8517 53.6455 64.6604 53.4264C64.6825 53.4249 64.7038 53.4174 64.722 53.4048C64.7403 53.3921 64.7548 53.3748 64.764 53.3547C64.9198 53.0297 65.0131 52.6783 65.0389 52.3188C65.0665 52.1249 65.0798 51.9291 65.0788 51.7332C65.0788 51.6336 65.0788 51.534 65.0788 51.4344C65.0788 51.3348 65.0588 51.2352 65.0469 51.1356C65.0162 50.9363 64.9723 50.7393 64.9154 50.5459C64.8499 50.3406 64.7714 50.1397 64.6803 49.9443C64.6604 49.8965 64.6365 49.8487 64.6126 49.8009L64.5369 49.6615C64.4851 49.5738 64.4293 49.4862 64.3736 49.4065C64.323 49.3271 64.2671 49.2512 64.2062 49.1794C64.1505 49.1157 64.0906 49.0558 64.027 49.0001C63.9806 49.1873 63.9486 49.3777 63.9313 49.5698C63.9098 49.7896 63.9005 50.0104 63.9034 50.2312C63.9034 50.3467 63.9034 50.4623 63.9034 50.5778C63.9034 50.6933 63.9034 50.8129 63.9034 50.9284C63.9034 51.1595 63.9433 51.3866 63.9712 51.6057C63.9957 51.7841 64.0303 51.961 64.0748 52.1356C64.0947 52.2192 64.1226 52.3029 64.1465 52.3866C64.1704 52.4702 64.1983 52.5539 64.2262 52.6296C64.276 52.7744 64.3359 52.9155 64.4054 53.0519C64.4389 53.1224 64.4775 53.1903 64.521 53.2551C64.0166 52.7166 63.4847 52.2046 62.9274 51.7212L62.8317 51.6415C62.8564 51.6419 62.8805 51.6344 62.9006 51.62C62.9207 51.6057 62.9356 51.5853 62.9433 51.5619C63.0543 51.2484 63.1109 50.9183 63.1106 50.5858C63.1131 50.3955 63.1037 50.2052 63.0827 50.016C63.0588 49.8228 63.0229 49.6312 62.9752 49.4424C62.869 49.0518 62.7066 48.6787 62.4931 48.3348C62.4373 48.2471 62.3815 48.1595 62.3218 48.0758C62.262 47.9921 62.1983 47.9204 62.1385 47.8487C62.0258 47.717 61.8988 47.5981 61.76 47.4941C61.7072 47.8908 61.7072 48.2927 61.76 48.6894C61.7839 48.9125 61.8198 49.1396 61.8596 49.3587C61.8596 49.4702 61.9035 49.5818 61.9274 49.6894C61.9513 49.7969 61.9752 49.9085 62.0031 50.0121C62.0442 50.1804 62.0974 50.3455 62.1624 50.5061C62.2201 50.665 62.2866 50.8207 62.3616 50.9722C62.3975 51.0439 62.4333 51.1117 62.4732 51.1754C62.513 51.2392 62.5449 51.3029 62.5807 51.3587C62.6299 51.4353 62.6859 51.5073 62.7481 51.5738C62.2461 51.1475 61.7202 50.7451 61.1783 50.3786C61.1904 50.3595 61.1968 50.3374 61.1968 50.3148C61.1968 50.2923 61.1904 50.2702 61.1783 50.2511C61.0279 49.9533 60.827 49.6837 60.5847 49.4543C60.4499 49.3208 60.3047 49.1983 60.1505 49.0878C59.9942 48.971 59.8305 48.8645 59.6604 48.769C59.3033 48.5819 58.9208 48.4476 58.525 48.3706C58.4392 48.3548 58.3528 48.3428 58.266 48.3348C58.1683 48.321 58.0698 48.3131 57.9712 48.3109C57.7992 48.3003 57.6266 48.311 57.4572 48.3427C57.717 48.6449 58.0142 48.9126 58.3417 49.1396C58.521 49.271 58.7082 49.4065 58.8995 49.538L59.1823 49.7133L59.4692 49.8806C59.6212 49.9646 59.7782 50.0391 59.9393 50.1037C60.0987 50.1714 60.262 50.2312 60.4134 50.279L60.6405 50.3388L60.8477 50.3826C60.9589 50.4064 61.0727 50.4158 61.1863 50.4105C61.1913 50.4129 61.1967 50.4142 61.2023 50.4142C61.2078 50.4142 61.2132 50.4129 61.2182 50.4105C61.7494 50.7903 62.2647 51.1887 62.764 51.6057C62.6924 51.5609 62.6179 51.521 62.5409 51.4862C62.4811 51.4623 62.4134 51.4344 62.3457 51.4144C62.2725 51.3903 62.198 51.3704 62.1226 51.3547C61.9625 51.3175 61.8001 51.2909 61.6365 51.275C61.4695 51.2611 61.3016 51.2611 61.1345 51.275C61.0309 51.275 60.9274 51.287 60.8238 51.3109L60.509 51.3746C60.3022 51.4212 60.0986 51.4811 59.8995 51.5539C59.5398 51.6809 59.2023 51.8637 58.8995 52.0957C59.018 52.1617 59.1455 52.2101 59.2779 52.2392L59.509 52.283C59.5914 52.2989 59.675 52.3109 59.76 52.3188C60.1097 52.3545 60.4621 52.3545 60.8118 52.3188C60.9871 52.3188 61.1624 52.279 61.3417 52.2471C61.521 52.2153 61.7042 52.1754 61.8756 52.1316C62.1937 52.0569 62.5005 51.9404 62.7879 51.785C62.8091 51.7743 62.8268 51.7577 62.8388 51.7372C62.8508 51.7167 62.8567 51.6932 62.8556 51.6694L62.9433 51.7451C63.4848 52.2209 64.0008 52.7249 64.4891 53.2551C64.4378 53.2178 64.3846 53.1833 64.3297 53.1515C64.2022 53.0797 64.0689 53.0184 63.9313 52.9682C63.8556 52.9404 63.7799 52.9125 63.6963 52.8886C63.6136 52.8658 63.5298 52.8471 63.4453 52.8328C63.2775 52.7972 63.1068 52.7772 62.9353 52.773C62.7185 52.7665 62.5014 52.7758 62.2859 52.8009C62.1744 52.8009 62.0668 52.8248 61.9592 52.8447L61.6405 52.9125C61.4402 52.9623 61.2432 53.0249 61.0509 53.0997C60.8791 53.1702 60.7138 53.2555 60.5568 53.3547C60.6116 53.3906 60.6688 53.4226 60.7281 53.4503C60.7928 53.4834 60.8593 53.5126 60.9274 53.538C60.9991 53.5658 61.0787 53.5898 61.1584 53.6137L61.2859 53.6455L61.4134 53.6774C61.5907 53.7186 61.7703 53.7492 61.9513 53.769C62.1268 53.7939 62.3038 53.8072 62.4811 53.8089H62.756H63.0309C63.2182 53.8089 63.4054 53.781 63.5887 53.7531C63.922 53.7152 64.2489 53.6335 64.5608 53.5101C64.5815 53.5016 64.5996 53.488 64.6135 53.4706C64.6275 53.4532 64.6368 53.4325 64.6405 53.4105C64.8397 53.6283 65.0349 53.8514 65.2262 54.0798C65.5329 54.4463 65.8198 54.8248 66.1027 55.2113L65.9752 55.1077C65.8483 55.0185 65.7151 54.9386 65.5768 54.8686C65.5011 54.8328 65.4254 54.7929 65.3457 54.7611L65.0947 54.6694C64.9288 54.6128 64.7581 54.5715 64.5847 54.5459C64.3627 54.5178 64.1392 54.5019 63.9154 54.4981C63.8039 54.4921 63.6922 54.4921 63.5807 54.4981C63.4652 54.4981 63.3576 54.4981 63.2461 54.526C63.0361 54.5514 62.8283 54.5927 62.6246 54.6495C62.4403 54.6975 62.2614 54.7643 62.0907 54.8487C62.3393 55.039 62.62 55.1834 62.9194 55.275C63.0953 55.3389 63.2749 55.3921 63.4572 55.4344C63.6405 55.4782 63.8158 55.5181 63.9911 55.542C64.3675 55.5913 64.747 55.6126 65.1266 55.6057C65.3178 55.6057 65.4971 55.6057 65.6684 55.5738C65.83 55.5547 65.9899 55.5227 66.1465 55.4782C66.1672 55.4736 66.1864 55.4639 66.2024 55.45C66.2184 55.4361 66.2307 55.4184 66.2381 55.3985C66.5449 55.8288 66.8317 56.267 67.1026 56.7172C67.2381 56.9443 67.3736 57.1754 67.5011 57.4105C67.4686 57.3727 67.434 57.3367 67.3975 57.3029C67.2821 57.1948 67.1582 57.0962 67.027 57.0081L66.8038 56.8686C66.7242 56.8248 66.6445 56.781 66.5608 56.7451C66.3983 56.6663 66.2289 56.6023 66.0548 56.5539C65.8345 56.4961 65.611 56.4509 65.3855 56.4184C65.274 56.4184 65.1544 56.3945 65.0389 56.3866C64.9234 56.3786 64.8118 56.3866 64.7003 56.3866C64.2879 56.38 63.8773 56.442 63.4851 56.5698C63.5279 56.6212 63.576 56.6679 63.6286 56.7093L63.8158 56.8487C63.9509 56.9437 64.0935 57.0276 64.2421 57.0997C64.4114 57.1857 64.5857 57.2615 64.764 57.3268C64.9371 57.3954 65.114 57.4539 65.2939 57.5021L65.5728 57.5698L65.8596 57.6296C66.0509 57.6655 66.258 57.6933 66.4413 57.7133C66.7919 57.7572 67.1465 57.7572 67.4971 57.7133C67.5352 57.7056 67.5692 57.6844 67.5927 57.6535C67.935 58.2935 68.2448 58.9504 68.521 59.6216C68.5489 59.6933 68.5728 59.769 68.6046 59.8408C68.4874 59.68 68.3539 59.5318 68.2062 59.3985C67.9313 59.1534 67.6176 58.9555 67.278 58.8129C66.8444 58.6336 66.3888 58.513 65.9234 58.4543C65.7029 58.4249 65.4804 58.4129 65.258 58.4184C65.0587 58.4222 64.86 58.4435 64.6644 58.4822C64.8662 58.7409 65.1132 58.961 65.3935 59.1316C65.5552 59.2392 65.7228 59.3376 65.8955 59.4264C66.0625 59.52 66.2356 59.6025 66.4134 59.6734C66.5927 59.7451 66.7799 59.8128 66.9712 59.8766C67.1624 59.9403 67.3696 59.9921 67.5489 60.04C67.8989 60.131 68.2589 60.1779 68.6206 60.1794C68.6589 60.1797 68.6959 60.1655 68.7242 60.1396C69.0083 60.9049 69.249 61.6857 69.4453 62.4782C69.4453 62.4543 69.4214 62.4304 69.4054 62.4065C69.3192 62.2652 69.2205 62.1319 69.1106 62.0081C68.9871 61.8663 68.854 61.7332 68.7122 61.6097C68.5659 61.4884 68.41 61.3791 68.2461 61.283C68.0383 61.1625 67.8226 61.056 67.6007 60.9643L67.266 60.8368C67.1505 60.8009 67.0349 60.7651 66.9194 60.7372C66.6996 60.6789 66.4759 60.6363 66.2501 60.6097C66.0473 60.5919 65.8433 60.5919 65.6405 60.6097C65.6722 60.6718 65.7081 60.7317 65.7481 60.789C65.7919 60.8487 65.8437 60.9125 65.8995 60.9762C66.0227 61.1182 66.1558 61.2514 66.2979 61.3746C66.3696 61.4384 66.4453 61.5021 66.525 61.5619L66.768 61.7451C66.9252 61.8593 67.0888 61.9644 67.258 62.0599C67.4293 62.1595 67.6086 62.2551 67.7959 62.3427L68.0788 62.4702L68.3576 62.5858C68.7012 62.7274 69.0613 62.8251 69.4293 62.8766C69.4651 62.8808 69.5013 62.8738 69.5329 62.8567C69.7154 63.6659 69.8484 64.4855 69.9313 65.3109C69.9331 65.295 69.9331 65.2789 69.9313 65.2631C69.8609 65.1083 69.781 64.9579 69.6923 64.8129C69.4803 64.4904 69.2195 64.2028 68.9194 63.9603C68.5303 63.6615 68.1045 63.4138 67.6525 63.2232C67.2447 63.0496 66.8114 62.9433 66.3696 62.9085C66.502 63.2233 66.6896 63.512 66.9234 63.7611C66.9911 63.8328 67.0588 63.9085 67.1305 63.9802C67.2023 64.0519 67.274 64.1276 67.3457 64.1993C67.4931 64.3388 67.6525 64.4702 67.7999 64.5977C67.9473 64.7252 68.1305 64.8447 68.3098 64.9603C68.4891 65.0758 68.6604 65.1874 68.8437 65.287C69.027 65.3866 69.2062 65.4782 69.3815 65.5539C69.5452 65.627 69.7144 65.6869 69.8875 65.7332C69.9202 65.7413 69.9544 65.7413 69.9871 65.7332C69.9871 65.8049 69.9871 65.8806 69.9871 65.9563V66.1555V66.3587L70.007 66.7571C70.007 66.8248 70.007 66.8925 70.007 66.9603V67.1635C70.007 67.2949 70.007 67.4304 70.007 67.5619V68.2551V68.2312C69.9589 68.0638 69.8989 67.9001 69.8278 67.7412C69.7887 67.6525 69.7448 67.566 69.6963 67.4822C69.6485 67.3972 69.5967 67.3135 69.5409 67.2312C69.4851 67.1475 69.4254 67.0678 69.3656 66.9882L69.27 66.8726L69.1704 66.7651C68.9949 66.5864 68.8087 66.4188 68.6126 66.2631C68.4133 66.1079 68.2044 65.9655 67.9871 65.8368C67.8835 65.777 67.776 65.7172 67.6684 65.6654C67.5608 65.6137 67.4532 65.5659 67.3457 65.522C67.1489 65.4413 66.9448 65.38 66.7361 65.3388C66.768 65.493 66.8217 65.6419 66.8955 65.781C66.9763 65.953 67.0709 66.1182 67.1783 66.275C67.4037 66.6199 67.6611 66.9427 67.9473 67.2392C68.2461 67.5424 68.5656 67.8246 68.9035 68.0838C69.0748 68.2113 69.2461 68.3308 69.4134 68.4344C69.5678 68.532 69.7305 68.616 69.8995 68.6854C69.9306 68.6952 69.964 68.6952 69.9951 68.6854V68.7651L69.9672 69.1635C69.9672 69.2949 69.9473 69.4304 69.9353 69.5619L69.8835 69.9603C69.8477 70.2272 69.8238 70.4981 69.772 70.7571L69.7043 71.1555V71.2192C69.6947 71.1387 69.6801 71.0589 69.6604 70.9802C69.6405 70.8926 69.6166 70.8009 69.5887 70.7093C69.4782 70.3208 69.3017 69.9542 69.0668 69.6256C68.7672 69.2085 68.4105 68.8357 68.007 68.518C67.9074 68.4383 67.8118 68.3666 67.7082 68.2949C67.6046 68.2232 67.505 68.1635 67.4015 68.1077C67.2129 67.9972 67.0141 67.9051 66.8078 67.8328C66.8171 67.9936 66.8507 68.1521 66.9074 68.3029C66.9645 68.489 67.0365 68.6702 67.1226 68.8447C67.1664 68.9364 67.2142 69.032 67.266 69.1236C67.3178 69.2152 67.3656 69.3109 67.4174 69.4025C67.5218 69.5849 67.6375 69.7606 67.764 69.9284C68.021 70.2792 68.3033 70.6108 68.6086 70.9204C68.881 71.2087 69.1874 71.4629 69.521 71.6774C69.5484 71.6909 69.5782 71.699 69.6086 71.7013L69.4652 72.3467C69.3096 72.9839 69.1221 73.6128 68.9035 74.2312C68.9056 74.0608 68.8962 73.8904 68.8756 73.7212C68.8452 73.5189 68.7999 73.3192 68.7401 73.1236C68.7082 73.024 68.6764 72.9244 68.6365 72.8288C68.62 72.7796 68.6 72.7317 68.5768 72.6854C68.5566 72.6378 68.534 72.5912 68.509 72.5459C68.2662 72.0801 67.9605 71.6498 67.6007 71.267C67.4327 71.0851 67.2501 70.9172 67.0548 70.765C66.9665 70.6912 66.8733 70.6234 66.776 70.5619C66.6803 70.5021 66.5887 70.4463 66.4931 70.3985C66.4931 70.4702 66.4931 70.5459 66.4931 70.6296C66.4969 70.7151 66.5062 70.8003 66.521 70.8846C66.5346 70.9798 66.5532 71.0742 66.5768 71.1674C66.6007 71.2631 66.6365 71.3627 66.6604 71.4623C66.7843 71.8745 66.9457 72.2746 67.1425 72.6575C67.2434 72.8487 67.355 73.0399 67.4772 73.2312C67.5927 73.4224 67.7162 73.6097 67.8437 73.789C68.0715 74.1229 68.3391 74.4279 68.6405 74.6973C68.6615 74.7135 68.6861 74.7244 68.7122 74.7292C68.4007 75.5618 68.0361 76.3736 67.6206 77.1595C67.6206 77.0957 67.6206 77.032 67.6485 76.9642C67.6764 76.8965 67.6485 76.773 67.6485 76.6734C67.6489 76.4643 67.6356 76.2553 67.6086 76.0479C67.5945 75.942 67.5745 75.8369 67.5489 75.7332C67.525 75.6296 67.4971 75.53 67.4652 75.4304C67.294 74.9233 67.054 74.442 66.7521 74.0001C66.6075 73.7908 66.4477 73.5923 66.274 73.4065C66.1181 73.24 65.9474 73.0879 65.764 72.9523C65.7255 73.114 65.7108 73.2804 65.7202 73.4463C65.7213 73.6478 65.7373 73.8488 65.768 74.0479C65.768 74.1515 65.8038 74.2631 65.8238 74.3706C65.8437 74.4782 65.8636 74.5858 65.8915 74.6933C65.9394 74.9051 65.9992 75.1139 66.0708 75.3188C66.1385 75.526 66.2222 75.7172 66.3138 75.9483C66.4054 76.1794 66.505 76.3746 66.6007 76.5738C66.7823 76.9473 67.0098 77.2966 67.278 77.6137C67.2926 77.6327 67.3118 77.6478 67.3337 77.6575C66.891 78.4424 66.3986 79.1983 65.8596 79.9204C65.8583 79.9112 65.8583 79.9018 65.8596 79.8926L65.8955 79.7571C65.9194 79.6654 65.9393 79.5659 65.9592 79.4663C65.9791 79.3667 65.9911 79.2591 66.0031 79.1555C66.0111 79.0481 66.0111 78.9402 66.0031 78.8328C66.0067 78.6168 65.9921 78.4009 65.9592 78.1874C65.9149 77.9171 65.8497 77.6507 65.764 77.3905C65.7242 77.2591 65.6764 77.1316 65.6285 76.9921C65.5807 76.8527 65.525 76.7411 65.4652 76.6176C65.2538 76.179 64.9756 75.7757 64.6405 75.4224C64.5718 75.5766 64.5274 75.7406 64.509 75.9085C64.509 76.0041 64.4891 76.1037 64.4811 76.2073C64.4732 76.3109 64.4811 76.4145 64.4811 76.522C64.4811 76.6296 64.4811 76.7451 64.4811 76.8567C64.4811 76.9683 64.4811 77.0838 64.4811 77.1953C64.493 77.416 64.5196 77.6356 64.5608 77.8527C64.5608 77.9643 64.6046 78.0758 64.6286 78.1874C64.6525 78.2989 64.6764 78.4145 64.7042 78.526C64.76 78.7531 64.8238 78.9802 64.8995 79.2033C65.0186 79.6095 65.1886 79.9991 65.4054 80.3627C65.4183 80.3814 65.4345 80.3976 65.4532 80.4105C64.8823 81.1301 64.2634 81.8102 63.6007 82.4463C63.6667 82.3088 63.7252 82.1679 63.776 82.024C63.9231 81.6109 63.9986 81.1757 63.9991 80.7372C64.0062 80.6045 64.0062 80.4715 63.9991 80.3388C63.9991 80.198 63.9831 80.0652 63.9513 79.9404C63.9513 79.8049 63.9074 79.6655 63.8756 79.542C63.8437 79.4184 63.8118 79.271 63.772 79.1435C63.6967 78.8897 63.6021 78.642 63.4891 78.4025C63.4389 78.2908 63.3831 78.1818 63.3218 78.0758C63.262 77.9762 63.1983 77.8766 63.1345 77.789C63.1136 77.8222 63.0949 77.8568 63.0787 77.8925C63.0578 77.9271 63.0392 77.9631 63.023 78.0001C62.985 78.0841 62.9531 78.1706 62.9274 78.2591C62.8951 78.3541 62.8698 78.4513 62.8517 78.5499V78.6296V78.7093C62.8517 78.7611 62.8517 78.8129 62.8198 78.8686C62.7799 79.0838 62.756 79.3188 62.7361 79.5499C62.7131 79.7736 62.7038 79.9984 62.7082 80.2232C62.7082 80.3348 62.7082 80.4583 62.7082 80.5738C62.7082 80.6893 62.7082 80.8049 62.7321 80.9244C62.748 81.1634 62.7759 81.4014 62.8158 81.6376C62.8701 82.0665 62.9785 82.4869 63.1385 82.8885L63.1704 82.9364L62.772 83.275C62.1911 83.7737 61.5848 84.2418 60.9552 84.6774L61.027 84.5658C61.0827 84.4822 61.1345 84.3945 61.1863 84.2989C61.403 83.9083 61.5525 83.4841 61.6286 83.0439C61.6525 82.9085 61.6684 82.769 61.6803 82.6256C61.6923 82.4822 61.6803 82.3388 61.6803 82.1953C61.6803 82.0519 61.6803 81.9085 61.6803 81.769C61.675 81.6263 61.6617 81.484 61.6405 81.3427C61.5849 80.8339 61.4434 80.3382 61.2222 79.8766C61.1099 80.011 61.0136 80.1581 60.9353 80.3149C60.8443 80.5066 60.7645 80.7035 60.6963 80.9045C60.6168 81.1235 60.5503 81.347 60.4971 81.5738C60.438 81.7955 60.3915 82.0203 60.3576 82.2471C60.3258 82.4822 60.2939 82.7172 60.274 82.9603C60.254 83.2033 60.2421 83.4463 60.2421 83.6894C60.2251 84.1292 60.2626 84.5695 60.3537 85.0001C60.3592 85.0184 60.3672 85.0358 60.3776 85.0519L60.1624 85.1914C59.4279 85.6442 58.6669 86.0527 57.8835 86.4145C57.9752 86.3188 58.0668 86.2152 58.1584 86.0997C58.2501 85.9842 58.2939 85.9244 58.3576 85.8328C58.4214 85.7411 58.4811 85.6455 58.5369 85.542C58.6467 85.3395 58.7413 85.129 58.8198 84.9125C58.9111 84.6376 58.983 84.3567 59.0349 84.0718C59.0897 83.7879 59.123 83.5002 59.1345 83.2113C59.1436 82.936 59.1343 82.6605 59.1066 82.3866C59.1066 82.2551 59.0708 82.1316 59.0469 82.0121C59.0239 81.8947 58.9933 81.7789 58.9552 81.6654L58.8676 81.7451C58.8357 81.773 58.8078 81.8049 58.776 81.8368C58.7114 81.9057 58.6515 81.9789 58.5967 82.0559C58.5409 82.1356 58.4811 82.2232 58.4254 82.3148C58.3696 82.4065 58.3098 82.5021 58.258 82.6057C58.2062 82.7093 58.1465 82.8089 58.0947 82.9164C58.0429 83.024 57.9951 83.1356 57.9433 83.2431C57.8475 83.4561 57.7637 83.6742 57.6923 83.8965L57.5847 84.2392C57.5529 84.3547 57.517 84.4742 57.4891 84.5937C57.4254 84.8328 57.3736 85.0838 57.3297 85.3228C57.2355 85.7625 57.1967 86.2122 57.2142 86.6615C57.212 86.676 57.212 86.6908 57.2142 86.7053L56.9194 86.8288L56.7321 86.9085L56.5409 86.9762L55.7839 87.2511L55.011 87.4902C54.8835 87.534 54.7521 87.5619 54.6126 87.5977L54.4572 87.6376L54.5329 87.5858C54.6126 87.526 54.6963 87.4543 54.7799 87.3826C54.9512 87.2299 55.111 87.0647 55.258 86.8886C55.4089 86.7063 55.5423 86.5102 55.6564 86.3029C55.7242 86.1794 55.7919 86.0519 55.8517 85.9045C55.9114 85.7571 55.9712 85.6296 56.023 85.5061C56.1241 85.229 56.2066 84.9455 56.27 84.6575C56.3881 84.1349 56.419 83.5965 56.3616 83.0639C56.2046 83.1517 56.061 83.2618 55.9353 83.3905L55.8278 83.5021L55.7162 83.6216C55.6445 83.7013 55.5688 83.7889 55.4971 83.8806L55.2819 84.1674L55.2301 84.2431L55.1784 84.3149C55.1425 84.3666 55.1066 84.4145 55.0748 84.4662C54.9415 84.6639 54.8192 84.8688 54.7082 85.0798C54.5927 85.287 54.4811 85.5101 54.3776 85.7412C54.3258 85.8567 54.278 85.9762 54.2301 86.0957C54.1823 86.2153 54.1345 86.3268 54.0907 86.4424C53.917 86.8692 53.7979 87.3163 53.7361 87.773V87.8009C52.8498 88.0007 51.9515 88.1431 51.0469 88.2272L51.0787 88.5658C51.9955 88.4718 52.9056 88.3215 53.8038 88.1156V88.1595C54.0686 88.5459 54.399 88.883 54.7799 89.1555C54.8875 89.2312 54.9991 89.3109 55.1146 89.3826C55.2301 89.4543 55.3457 89.5181 55.4692 89.5818C55.7163 89.7129 55.9718 89.8273 56.2341 89.9244C56.5006 90.0145 56.7737 90.0838 57.0509 90.1316L57.274 90.1674H57.3895H57.5011C57.6525 90.1674 57.8078 90.1674 57.9592 90.1913C58.1106 90.2153 58.262 90.1913 58.4094 90.1913H58.6286L58.8397 90.1635C59.092 90.1288 59.3394 90.0646 59.5768 89.9722C59.1267 89.6154 58.6343 89.3157 58.1106 89.0798C57.8278 88.9443 57.5289 88.8049 57.2301 88.6814L56.7879 88.5061L56.3497 88.3387C56.1176 88.2545 55.8808 88.184 55.6405 88.1276C55.4015 88.0678 55.1624 88.02 54.9393 87.9842L54.6166 87.9443H54.505L54.6803 87.8965C54.8118 87.8607 54.9433 87.8288 55.0787 87.785L55.8756 87.538L56.6445 87.2551L56.8357 87.1834L57.027 87.1037L57.3258 86.9762C57.3337 86.9904 57.343 87.0037 57.3536 87.0161C57.6763 87.3445 58.0538 87.6141 58.4692 87.8129C58.7079 87.9265 58.9542 88.0237 59.2062 88.1037C59.3337 88.1475 59.4652 88.1834 59.6046 88.2192L59.8038 88.2631L60.0031 88.3029C60.2775 88.3435 60.5544 88.3648 60.8317 88.3666C60.979 88.3746 61.1267 88.3746 61.274 88.3666C61.4214 88.3666 61.5688 88.3348 61.7162 88.3148C61.8636 88.2949 62.011 88.2671 62.1544 88.2352C62.2979 88.2033 62.4293 88.1595 62.5529 88.1156C62.6775 88.076 62.7999 88.0295 62.9194 87.9762L63.0867 87.8965C63.1364 87.8706 63.1844 87.8413 63.2301 87.8089C63.1238 87.7446 63.0133 87.6874 62.8995 87.6376C62.7799 87.5778 62.6525 87.526 62.5011 87.4742C62.2341 87.3706 61.9473 87.275 61.6485 87.1914C61.3497 87.1077 61.0389 87.024 60.7321 86.9563C60.4254 86.8886 60.1226 86.8288 59.8238 86.773C59.5855 86.7292 59.3446 86.7013 59.1027 86.6894H58.7441H58.4015C58.2421 86.6894 58.0867 86.6894 57.9433 86.7173C58.7463 86.3409 59.526 85.9165 60.278 85.4463L60.4931 85.3069L60.5289 85.3467C60.8906 85.6093 61.295 85.8075 61.7242 85.9324C61.9725 86.0031 62.2254 86.0564 62.4811 86.0918C62.7447 86.1334 63.0112 86.1534 63.278 86.1515C63.545 86.1474 63.8113 86.1234 64.0748 86.0798C64.4034 86.0071 64.7258 85.9085 65.0389 85.785C65.308 85.7018 65.5682 85.5924 65.8158 85.4583C66.0343 85.3526 66.2379 85.2187 66.4214 85.0599C65.8993 84.8811 65.3575 84.7661 64.8078 84.7172C64.6604 84.7172 64.509 84.6854 64.3536 84.6734C64.1983 84.6615 64.0429 84.6455 63.8875 84.6376L63.4293 84.6176H62.9791C62.5123 84.6208 62.0468 84.6675 61.5887 84.7571L61.2819 84.8248L61.1345 84.8647C61.7765 84.4179 62.3936 83.9364 62.9831 83.4224L63.3616 83.0798L63.4134 83.1196C63.8105 83.3172 64.2394 83.4426 64.6803 83.4901C64.9316 83.519 65.1846 83.5297 65.4373 83.522C65.5688 83.522 65.7003 83.522 65.8357 83.522C65.9712 83.522 66.0947 83.4902 66.2341 83.4702C66.495 83.4249 66.7521 83.3597 67.003 83.275C67.2764 83.1812 67.5426 83.068 67.7999 82.9364L67.9871 82.8368L68.0788 82.785L68.1664 82.7292C68.2859 82.6535 68.3935 82.5778 68.4971 82.4981C68.6007 82.4184 68.7003 82.3388 68.7879 82.2591L68.9114 82.1356L69.015 82.0121C68.898 81.9867 68.7796 81.9681 68.6604 81.9563C68.5369 81.9563 68.4015 81.9324 68.262 81.9244C67.9871 81.9244 67.6963 81.9244 67.4015 81.9244L66.9513 81.9563C66.7999 81.9563 66.6485 81.9802 66.4971 81.9961L66.0509 82.0479L65.6166 82.1117C65.1658 82.191 64.723 82.311 64.2939 82.4702C64.14 82.5261 63.9896 82.5912 63.8437 82.6654C64.517 82.0115 65.1453 81.3127 65.7242 80.5738C65.744 80.5881 65.7654 80.6001 65.7879 80.6097C66.203 80.7368 66.6373 80.7894 67.0708 80.7651C67.3182 80.7526 67.5644 80.7233 67.8078 80.6774C67.9313 80.6535 68.0588 80.6296 68.1823 80.5977L68.3696 80.5459L68.5489 80.4862C68.7931 80.4016 69.0303 80.2976 69.258 80.1754L69.4413 80.0758L69.6166 79.9683C69.7361 79.8912 69.8517 79.8115 69.9632 79.7292C70.0748 79.6455 70.1823 79.5579 70.2859 79.4702C70.385 79.385 70.4794 79.2946 70.5688 79.1993C70.7301 79.0317 70.873 78.8474 70.9951 78.6495C70.4667 78.6395 69.9392 78.6971 69.4254 78.8208L68.9951 78.9204C68.8477 78.9523 68.7042 78.9882 68.5608 79.028C68.274 79.1077 67.9991 79.1953 67.7282 79.279C67.5122 79.3516 67.3007 79.4367 67.0947 79.534L66.7919 79.6814C66.6923 79.7292 66.5967 79.781 66.505 79.8328L66.2501 79.9882L66.1345 80.0679L66.0787 80.1077C66.6268 79.3646 67.1271 78.5874 67.5768 77.781C67.5973 77.7979 67.6221 77.8089 67.6485 77.8129C68.0689 77.8729 68.4967 77.8567 68.9114 77.7651C69.1499 77.7186 69.3844 77.6533 69.6126 77.5698C69.8486 77.4852 70.0788 77.3854 70.3019 77.271C70.5243 77.1548 70.7374 77.0216 70.9393 76.8726C71.0429 76.7929 71.1505 76.7053 71.2541 76.6176C71.3576 76.53 71.4532 76.4304 71.5489 76.3348C71.7344 76.1465 71.9049 75.944 72.0588 75.7292C72.1871 75.5426 72.294 75.3421 72.3776 75.1316C72.1375 75.1609 71.9003 75.2102 71.6684 75.279C71.4174 75.3467 71.1624 75.4424 70.8915 75.538C70.348 75.7441 69.816 75.9795 69.2979 76.2431C69.2023 76.2949 69.1027 76.3467 69.011 76.4065C68.9194 76.4663 68.8238 76.526 68.7281 76.5858C68.5471 76.709 68.3729 76.842 68.2062 76.9842C68.1266 77.0479 68.0509 77.1157 67.9831 77.1754L67.8078 77.3348C68.2307 76.5316 68.5994 75.7011 68.9114 74.8487C68.9363 74.8649 68.9654 74.8732 68.9951 74.8726C69.4047 74.8658 69.8096 74.7848 70.1903 74.6336C70.4141 74.5508 70.6324 74.4536 70.8437 74.3428C71.0566 74.2213 71.2628 74.0883 71.4612 73.9443C71.8704 73.6336 72.2303 73.2629 72.5289 72.8447C72.6071 72.7388 72.6789 72.6284 72.7441 72.5141C72.8078 72.4025 72.8716 72.2949 72.9234 72.1834C72.9758 72.0798 73.0223 71.9734 73.0628 71.8647C73.102 71.7669 73.1313 71.6654 73.1505 71.5619C73.0469 71.5897 72.9393 71.6256 72.8278 71.6654L72.4851 71.8049C72.254 71.9085 72.011 72.036 71.768 72.1714C71.282 72.4517 70.8112 72.7576 70.3576 73.0878L70.2301 73.1874C70.186 73.2183 70.1434 73.2516 70.1027 73.287L69.8517 73.5021C69.6923 73.6495 69.5449 73.8009 69.4094 73.9483C69.288 74.0748 69.1737 74.2078 69.0668 74.3467C69.2819 73.7172 69.4652 73.0758 69.6206 72.4304L69.764 71.7372Z" fill="#AD6F00"/>
<path d="M45.754 58.3545C48.503 58.3545 49.1205 57.0238 49.6703 55.5059H52.0608V78.1632H48.499V60.8764H45.75L45.754 58.3545Z" fill="#AD6F00"/>
<path d="M45.754 58.1162C48.503 58.1162 49.1205 56.7895 49.6703 55.2676H52.0608V77.9289H48.499V60.6421H45.75L45.754 58.1162Z" fill="#AD6F00"/>
</svg>
