<svg width="36" height="36" viewBox="0 0 36 36" fill="none" xmlns="http://www.w3.org/2000/svg">
<path d="M18.4195 15.6083L20.3121 19.8254L24.7804 20.2173L21.2387 22.9373L22.346 27.6796L18.4195 25.477L14.493 27.6796L15.6003 22.9373L12.0586 20.2173L16.5269 19.8254L18.4195 15.6083Z" stroke="#337AE0" stroke-width="1.5" stroke-miterlimit="10" stroke-linecap="round" stroke-linejoin="round"/>
<path d="M30 22.1927C30 28.6751 24.7385 33.9269 18.2441 33.9269C11.7497 33.9269 6.49609 28.6673 6.49609 22.1927C6.49609 17.6385 9.10328 13.6879 12.9041 11.7439C14.1763 11.0933 15.582 10.67 17.0662 10.5211C17.4588 10.4819 17.8515 10.4584 18.252 10.4584C19.1943 10.4584 20.1053 10.5681 20.9848 10.7798C21.8486 10.9836 22.681 11.2893 23.4585 11.6733C27.3378 13.5859 30 17.5758 30 22.1927Z" stroke="#337AE0" stroke-width="1.5" stroke-miterlimit="10" stroke-linecap="round" stroke-linejoin="round"/>
<path d="M20.9801 10.7797C20.1005 10.568 19.1896 10.4583 18.2472 10.4583C17.8467 10.4583 17.4541 10.4818 17.0614 10.521C15.5772 10.6699 14.1716 11.0932 12.8994 11.7438L7.41016 1.99268H16.1034L18.2629 5.88059L20.9801 10.7797Z" stroke="#337AE0" stroke-width="1.5" stroke-miterlimit="10" stroke-linecap="round" stroke-linejoin="round"/>
<path d="M28.9339 1.99268L23.4603 11.6733C22.6829 11.2892 21.8505 10.9835 20.9867 10.7797L18.2695 5.88059L20.5626 1.99268H28.9339Z" stroke="#337AE0" stroke-width="1.5" stroke-miterlimit="10" stroke-linecap="round" stroke-linejoin="round"/>
</svg>
