<svg width="24" height="24" viewBox="0 0 24 24" fill="none" xmlns="http://www.w3.org/2000/svg">
<path fill-rule="evenodd" clip-rule="evenodd" d="M9.39678 2.10122C9.89316 1.85908 10.4918 2.06517 10.734 2.56155L13.4615 8.15277C13.8177 8.2284 14.1638 8.33112 14.4977 8.45866L17.0856 2.59619C17.3087 2.09094 17.899 1.86217 18.4043 2.0852C18.9095 2.30824 19.1383 2.89863 18.9153 3.40388L16.2514 9.43831C17.9225 10.7176 19.0002 12.7329 19.0002 15C19.0002 18.866 15.8662 22 12.0002 22C8.13423 22 5.00022 18.866 5.00022 15C5.00022 12.6182 6.18975 10.5143 8.00714 9.24989L5.10579 3.4472C4.8588 2.95322 5.05903 2.35254 5.55301 2.10556C6.04698 1.85857 6.64766 2.05879 6.89465 2.55277L9.79542 8.35431C10.2404 8.20677 10.7051 8.10266 11.1846 8.04702L8.93646 3.43842C8.69432 2.94205 8.90041 2.34336 9.39678 2.10122ZM14.737 2.07366C15.2487 2.28165 15.4948 2.86501 15.2868 3.37663L14.6876 4.85061C14.4796 5.36223 13.8962 5.60837 13.3846 5.40038C12.873 5.19239 12.6269 4.60903 12.8348 4.0974L13.4341 2.62343C13.6421 2.11181 14.2254 1.86567 14.737 2.07366ZM7.00022 15C7.00022 12.2386 9.2388 10 12.0002 10C14.7616 10 17.0002 12.2386 17.0002 15C17.0002 17.7614 14.7616 20 12.0002 20C9.2388 20 7.00022 17.7614 7.00022 15Z" fill="#337AE0"/>
</svg>
