<svg width="24" height="24" viewBox="0 0 24 24" fill="none" xmlns="http://www.w3.org/2000/svg">
<path d="M18.4999 19.9957C10.4206 19.3591 4.64086 13.5793 4.00432 5.49997C3.93926 4.6741 4.61747 4 5.4459 4H7.90755C8.33798 4 8.72012 4.27543 8.85624 4.68377L9.713 7.25409C9.86098 7.69802 9.68131 8.18521 9.28054 8.42677L7.49994 9.5C7.49994 12.1757 11.8243 16.5 14.4999 16.5L15.5732 14.7194C15.8147 14.3187 16.3019 14.139 16.7458 14.287L19.3161 15.1437C19.7245 15.2798 19.9999 15.662 19.9999 16.0924V18.5541C19.9999 19.3825 19.3258 20.0607 18.4999 19.9957Z" fill="#15171B"/>
</svg>
