<svg width="34" height="34" viewBox="0 0 34 34" fill="none" xmlns="http://www.w3.org/2000/svg">
<g id="Frame 588">
<g id="Vector">
<path fill-rule="evenodd" clip-rule="evenodd" d="M28.8284 26L32.8284 30L30 32.8284L26 28.8284L28.8284 26Z" fill="#337AE0"/>
<path d="M26 28.8284L28.8284 26L21.8284 19L19 21.8284L26 28.8284Z" fill="#4FC1EE"/>
</g>
<g id="Vector_2">
<path fill-rule="evenodd" clip-rule="evenodd" d="M13.5 22C18.1944 22 22 18.1944 22 13.5C22 8.80558 18.1944 5 13.5 5C8.80558 5 5 8.80558 5 13.5C5 18.1944 8.80558 22 13.5 22ZM26 13.5C26 20.4036 20.4036 26 13.5 26C6.59644 26 1 20.4036 1 13.5C1 6.59644 6.59644 1 13.5 1C20.4036 1 26 6.59644 26 13.5Z" fill="#337AE0"/>
</g>
</g>
</svg>
