<svg width="24" height="24" viewBox="0 0 24 24" fill="none" xmlns="http://www.w3.org/2000/svg">
<path fill-rule="evenodd" clip-rule="evenodd" d="M4.16866 11.8879C8.73205 9.62993 11.775 8.14134 13.2976 7.42212C17.6448 5.36862 18.5481 5.0119 19.1369 5.00013C19.2664 4.99753 19.5559 5.03398 19.7435 5.20682C19.9018 5.35275 19.9454 5.5499 19.9663 5.68826C19.9871 5.82663 20.0131 6.14183 19.9924 6.38811C19.7569 9.1992 18.7375 16.021 18.2189 19.1694C17.9995 20.5017 17.5674 20.9484 17.1492 20.9921C16.2401 21.0871 15.5498 20.3098 14.6694 19.6543C13.2916 18.6287 12.5133 17.9902 11.176 16.9893C9.63045 15.8327 10.6323 15.1969 11.5131 14.158C11.7436 13.8861 15.7489 9.74867 15.8264 9.37335C15.8361 9.32641 15.8451 9.15143 15.7536 9.05904C15.6621 8.96664 15.527 8.99824 15.4295 9.02337C15.2913 9.05898 13.0904 10.7111 8.82663 13.9798C8.2019 14.467 7.63604 14.7044 7.12904 14.6919C6.57012 14.6782 5.49499 14.333 4.69573 14.038C3.71541 13.6761 2.93627 13.4847 3.00412 12.8701C3.03946 12.55 3.42764 12.2226 4.16866 11.8879Z" fill="#2AABEE"/>
</svg>
