<svg width="38" height="38" viewBox="0 0 38 38" fill="none" xmlns="http://www.w3.org/2000/svg">
<g clip-path="url(#clip0_1024_2208)">
<path d="M19 0C29.4934 0 38 8.50659 38 19C38 29.4934 29.4934 38 19 38C8.50659 38 0 29.4934 0 19C0 8.50659 8.50659 0 19 0Z" fill="#7F4DA0"/>
<path d="M24.0612 16.5918C23.9688 15.841 23.7381 15.2516 23.3283 14.7294C22.7962 14.0571 22.1162 13.6545 21.1094 13.4156C20.4533 13.2564 20.1882 13.2747 19.9509 13.4915C19.7299 13.6945 19.6868 14.1017 19.8557 14.3653C19.9745 14.5566 20.1115 14.6252 20.4926 14.7C21.0002 14.7934 21.3509 14.9146 21.67 15.097C22.3472 15.488 22.6626 16.0999 22.6964 17.0906C22.7121 17.5557 22.7523 17.6987 22.9148 17.8637C23.2159 18.1653 23.7518 18.1066 23.9791 17.7457C24.0625 17.6097 24.0752 17.5505 24.084 17.2347C24.0898 17.0391 24.0814 16.7481 24.0612 16.5918Z" fill="white"/>
<path d="M26.7142 17.4387C26.5804 15.1386 25.6808 13.2881 24.0707 11.9861C23.1636 11.2545 22.067 10.7514 20.8651 10.5068C20.4248 10.4193 19.6141 10.3484 19.4751 10.3889C19.3438 10.4265 19.1582 10.5686 19.0755 10.6971C18.988 10.8365 18.9683 11.1476 19.0429 11.3275C19.1634 11.6284 19.3875 11.7347 20.0151 11.7896C20.9826 11.8742 21.9805 12.2142 22.7344 12.7174C23.5953 13.2903 24.2795 14.074 24.7222 14.9949C25.1047 15.7861 25.3399 16.9263 25.3334 17.9474C25.3312 18.3167 25.3882 18.5253 25.5368 18.6778C25.7609 18.9122 26.0877 18.9635 26.3761 18.8077C26.6957 18.6397 26.7705 18.3446 26.7142 17.4387Z" fill="white"/>
<path d="M29.65 26.2966C29.605 26.1651 29.5 25.9623 29.425 25.8459C28.9525 25.1324 26.4139 23.1456 25.1464 22.4959C24.4227 22.1241 23.8865 22.0002 23.489 22.1166C23.0615 22.2368 22.8365 22.4358 22.1202 23.3259C21.8315 23.6827 21.5353 24.017 21.4565 24.0695C21.2615 24.2047 20.8791 24.3136 20.6091 24.3136C19.9828 24.3098 18.8466 23.9043 17.9729 23.371C17.2942 22.9579 16.4242 22.2181 15.7567 21.4857C14.9692 20.6257 14.433 19.8671 14.0093 19.0108C13.4618 17.9104 13.3231 17.2381 13.5518 16.7462C13.608 16.6222 13.6831 16.4908 13.7168 16.4495C13.7505 16.412 14.103 16.1227 14.493 15.8073C15.258 15.1989 15.3817 15.0599 15.5242 14.6431C15.7042 14.1135 15.6555 13.5727 15.378 13.0282C15.1642 12.6151 14.6055 11.7137 14.2005 11.1316C13.6643 10.3655 12.3293 8.7281 12.0631 8.50646C11.5831 8.11592 10.9682 8.04828 10.2894 8.31122C9.5732 8.58914 8.2307 9.67073 7.65695 10.4256C7.13947 11.1091 6.94079 11.5935 6.91076 12.232C6.88453 12.7577 6.92951 12.9756 7.20701 13.6478C9.37819 18.9206 12.618 23.1306 17.0692 26.4731C19.3941 28.2194 21.8053 29.5489 24.3064 30.4578C25.7651 30.9873 26.3989 31.0135 27.1451 30.5779C27.46 30.3901 28.24 29.5902 28.675 29.0081C29.395 28.0391 29.6613 27.5922 29.7362 27.2355C29.7887 26.9914 29.7475 26.567 29.65 26.2966Z" fill="white"/>
<path d="M29.4141 17.9671C29.3661 16.666 29.147 15.5988 28.6903 14.409C28.2393 13.2386 27.7829 12.4749 26.921 11.4419C26.1061 10.4733 25.4731 9.92032 24.4692 9.30474C23.0687 8.44705 21.3642 7.87946 19.4541 7.64076C18.8027 7.55734 18.6553 7.5633 18.4555 7.69665C18.0682 7.94925 18.0734 8.57932 18.4619 8.82815C18.5905 8.9073 18.7046 8.93613 19.2256 9.00433C20.0255 9.11202 20.5399 9.21351 21.1502 9.38003C23.5434 10.0342 25.3838 11.3715 26.6142 13.3566C27.6438 15.0111 28.0712 16.6658 28.0106 18.7792C27.9895 19.4936 28.0048 19.6194 28.114 19.791C28.3232 20.111 28.8747 20.1742 29.1577 19.9087C29.3337 19.7469 29.3669 19.6255 29.4016 19.014C29.4182 18.695 29.4218 18.2241 29.4141 17.9671Z" fill="white"/>
</g>
<defs>
<clipPath id="clip0_1024_2208">
<rect width="38" height="38" fill="white"/>
</clipPath>
</defs>
</svg>
