<svg width="38" height="38" viewBox="0 0 38 38" fill="none" xmlns="http://www.w3.org/2000/svg">
<g clip-path="url(#clip0_1024_3534)">
<path d="M19 38C29.4934 38 38 29.4934 38 19C38 8.50659 29.4934 0 19 0C8.50659 0 0 8.50659 0 19C0 29.4934 8.50659 38 19 38Z" fill="#25D366"/>
<path d="M19.6254 29.5709H19.6207C17.7298 29.5702 15.8718 29.0958 14.2217 28.1957L8.23242 29.7668L9.83524 23.9123C8.84654 22.1989 8.3263 20.2553 8.32714 18.2641C8.32962 12.0348 13.3979 6.9668 19.6252 6.9668C22.6476 6.9681 25.4843 8.14469 27.6173 10.2802C29.7504 12.4157 30.9245 15.2542 30.9233 18.273C30.9208 24.5008 25.8545 29.5683 19.6254 29.5709ZM14.4991 26.1504L14.8421 26.3539C16.2838 27.2095 17.9365 27.6622 19.6216 27.6628H19.6254C24.8011 27.6628 29.0136 23.4502 29.0157 18.2723C29.0167 15.7632 28.0408 13.4039 26.2679 11.6289C24.495 9.85392 22.1372 8.87593 19.6291 8.87506C14.4493 8.87506 10.2367 13.0873 10.2347 18.2647C10.234 20.0391 10.7304 21.7671 11.6704 23.2622L11.8937 23.6175L10.9451 27.0827L14.4991 26.1504ZM25.3172 20.9596C25.2467 20.8419 25.0585 20.7712 24.7762 20.6299C24.4939 20.4886 23.106 19.8057 22.8472 19.7114C22.5885 19.6172 22.4002 19.5702 22.212 19.8527C22.0239 20.1353 21.4829 20.7712 21.3182 20.9596C21.1535 21.148 20.9888 21.1716 20.7066 21.0303C20.4243 20.889 19.5147 20.5909 18.4364 19.6291C17.5972 18.8805 17.0306 17.9561 16.866 17.6735C16.7013 17.3909 16.8484 17.2381 16.9897 17.0974C17.1167 16.9708 17.272 16.7676 17.4132 16.6028C17.5543 16.438 17.6014 16.3202 17.6955 16.1319C17.7896 15.9434 17.7425 15.7786 17.6719 15.6373C17.6014 15.496 17.0368 14.1064 16.8016 13.5412C16.5724 12.9907 16.3397 13.0653 16.1664 13.0566C16.0019 13.0483 15.8135 13.0466 15.6254 13.0466C15.4372 13.0466 15.1313 13.1173 14.8726 13.3999C14.6138 13.6825 13.8845 14.3655 13.8845 15.7549C13.8845 17.1444 14.8961 18.4868 15.0372 18.6752C15.1784 18.8637 17.0278 21.715 19.8597 22.9378C20.5332 23.2287 21.059 23.4024 21.469 23.5324C22.1453 23.7474 22.7608 23.717 23.2471 23.6443C23.7895 23.5633 24.9173 22.9615 25.1526 22.3021C25.3878 21.6425 25.3878 21.0773 25.3172 20.9596Z" fill="#FDFDFD"/>
</g>
<defs>
<clipPath id="clip0_1024_3534">
<rect width="38" height="38" fill="white"/>
</clipPath>
</defs>
</svg>
