<svg width="24" height="24" viewBox="0 0 24 24" fill="none" xmlns="http://www.w3.org/2000/svg">
<path fill-rule="evenodd" clip-rule="evenodd" d="M12.0419 21.8281H12.0378C10.3711 21.8276 8.73348 21.4114 7.27898 20.6218L2 22L3.41275 16.8645C2.5413 15.3615 2.08274 13.6566 2.08349 11.9099C2.08567 6.44562 6.55292 2 12.0418 2C14.7057 2.00114 17.206 3.03324 19.0861 4.90654C20.9662 6.77974 22.0011 9.26968 22 11.9177C21.9978 17.3807 17.5323 21.8259 12.0419 21.8281ZM16.5819 13.9851C16.8307 14.1091 16.9966 14.1711 17.0587 14.2744C17.1209 14.3776 17.1209 14.8735 16.9137 15.452C16.7062 16.0304 15.7122 16.5583 15.2341 16.6294C14.8054 16.6932 14.263 16.7198 13.6669 16.5313C13.3055 16.4172 12.8421 16.2648 12.2484 16.0096C9.75238 14.937 8.12225 12.4359 7.99784 12.2705L7.99584 12.2679C7.86416 12.093 6.98184 10.9214 6.98184 9.70887C6.98184 8.49007 7.62463 7.89097 7.8527 7.64306C8.08077 7.39514 8.35035 7.33316 8.51622 7.33316C8.68208 7.33316 8.84814 7.33469 8.99311 7.34194C9.14583 7.34956 9.35096 7.28415 9.55295 7.76702C9.76029 8.26285 10.2579 9.48174 10.3201 9.6057C10.3823 9.72966 10.4238 9.87421 10.3408 10.0396C10.2579 10.2047 10.2164 10.3081 10.092 10.4526C9.96764 10.5972 9.83074 10.7755 9.71879 10.8865C9.59423 11.01 9.46456 11.1439 9.6097 11.3918C9.75485 11.6398 10.2542 12.4506 10.9939 13.1073C11.9443 13.951 12.7461 14.2124 12.9949 14.3364C13.2436 14.4604 13.3888 14.4396 13.5339 14.2744C13.6791 14.1091 14.1559 13.5513 14.3218 13.3034C14.4876 13.0556 14.6536 13.0969 14.8816 13.1795C15.1097 13.2622 16.3331 13.8612 16.5819 13.9851Z" fill="#25D366"/>
</svg>
