<svg width="74" height="24" viewBox="0 0 74 24" fill="none" xmlns="http://www.w3.org/2000/svg">
<g clip-path="url(#clip0_883_13736)">
<path d="M70.5964 8.83959H73.9916C73.5622 5.52922 71.1487 3.78918 67.7942 3.78918C64.3991 3.78918 62.1287 5.59291 62.1287 8.69105C62.1287 12.2136 65.0535 12.9987 66.608 13.3171C68.6124 13.7202 70.5759 13.7627 70.5759 15.5451C70.5759 16.7547 69.5942 17.3488 68.2034 17.3488C66.4853 17.3488 65.34 16.4576 65.0535 14.845H61.6992C61.9037 18.325 64.3377 20.1924 67.9171 20.1924C71.2305 20.1924 73.9507 18.6221 73.9507 15.2269C73.9507 11.577 70.8214 10.9192 68.6329 10.5796C67.1397 10.3462 65.5035 10.134 65.5035 8.50005C65.5035 7.35417 66.3421 6.65394 67.7534 6.65394C69.3897 6.65394 70.3713 7.60889 70.5964 8.83959Z" fill="#403F41"/>
<path d="M59.8401 4.3197H56.6289V19.7042H59.8401V4.3197Z" fill="#403F41"/>
<path d="M46.9326 14.3356H51.1255C50.471 15.9909 48.9983 16.7759 47.3007 16.7759C44.3146 16.7759 42.9238 14.378 42.9238 12.0014C42.9238 9.60348 44.2327 7.16321 47.2803 7.16321C49.1416 7.16321 50.5323 8.05445 51.0641 9.64595L54.5207 9.64596C53.9276 6.05982 50.9005 4.00146 47.3212 4.00146C42.9033 4.00146 39.5898 7.12074 39.5898 12.0439C39.5898 17.0306 43.1896 19.9802 47.3007 19.9802C51.3505 19.9802 54.5207 17.2428 54.5207 12.9563V11.7043H46.9326V14.3356Z" fill="#403F41"/>
<path d="M32.2487 4.00146C28.5671 4.00146 25.8468 6.39928 25.8673 10.3887H29.1808C29.1398 8.64863 30.2034 7.05714 32.0851 7.05714C33.7214 7.05714 34.6827 8.24548 34.6827 9.60349C34.6827 10.9616 33.7214 11.7255 31.9419 12.5532C29.508 13.6778 27.7695 14.3993 25.99 15.0359V19.7043H38.3847V16.5637H29.8756C29.8756 16.5637 29.9039 16.5545 29.9179 16.5502C31.3652 16.0952 32.4525 15.6009 33.7419 15.0147C36.503 13.7415 38.0779 12.1499 38.0779 9.4338C38.0779 6.10218 35.7054 4.00146 32.2487 4.00146Z" fill="#403F41"/>
<path d="M17.1525 14.2932C12.98 14.3144 12.305 16.9245 12.0801 19.1314L11.9778 20.1075H11.1392L11.0369 19.1314C10.812 16.9245 10.1166 14.3144 6.08725 14.2932C5.41231 12.8501 5.12596 11.683 5.12596 10.3674C5.12596 7.07835 7.72355 4.00135 11.5687 4.00135C15.4139 4.00135 17.9706 7.05702 17.9706 10.3887C17.9706 11.683 17.8479 12.8501 17.1525 14.2932ZM11.5279 0.0119629C5.18738 0.0119629 -0.0078125 5.40192 -0.0078125 12.0013C-0.0078125 18.622 5.18738 24.0119 11.5279 24.0119C17.9297 24.0119 23.1044 18.622 23.1044 12.0013C23.1044 5.40194 17.9297 0.0119629 11.5279 0.0119629Z" fill="#29B24A"/>
</g>
<defs>
<clipPath id="clip0_883_13736">
<rect width="74" height="24" fill="white"/>
</clipPath>
</defs>
</svg>
