<svg width="160" height="160" viewBox="0 0 160 160" fill="none" xmlns="http://www.w3.org/2000/svg">
<circle cx="80" cy="80" r="80" fill="#337AE0"/>
<path d="M40.6065 75.192C39.8705 75.192 39.1905 75.052 38.5665 74.772C37.9505 74.492 37.4385 74.096 37.0305 73.584L38.0625 72.54C38.3905 72.94 38.7745 73.244 39.2145 73.452C39.6625 73.66 40.1425 73.764 40.6545 73.764C41.0385 73.764 41.3745 73.708 41.6625 73.596C41.9505 73.484 42.1745 73.328 42.3345 73.128C42.5025 72.92 42.5865 72.688 42.5865 72.432C42.5865 72.064 42.4265 71.78 42.1065 71.58C41.7945 71.372 41.3585 71.268 40.7985 71.268H39.1185V69.9H40.8105C41.2745 69.9 41.6425 69.8 41.9145 69.6C42.1945 69.4 42.3345 69.136 42.3345 68.808C42.3345 68.464 42.1785 68.188 41.8665 67.98C41.5545 67.764 41.1385 67.656 40.6185 67.656C40.1385 67.656 39.7145 67.752 39.3465 67.944C38.9865 68.136 38.6345 68.452 38.2905 68.892L37.2345 67.848C37.6825 67.296 38.1865 66.888 38.7465 66.624C39.3145 66.352 39.9545 66.216 40.6665 66.216C41.3065 66.216 41.8745 66.32 42.3705 66.528C42.8745 66.736 43.2665 67.02 43.5465 67.38C43.8345 67.732 43.9785 68.136 43.9785 68.592C43.9785 69.016 43.8585 69.388 43.6185 69.708C43.3785 70.028 43.0465 70.276 42.6225 70.452C43.1265 70.62 43.5185 70.884 43.7985 71.244C44.0865 71.604 44.2305 72.028 44.2305 72.516C44.2305 73.028 44.0705 73.488 43.7505 73.896C43.4385 74.296 43.0065 74.612 42.4545 74.844C41.9105 75.076 41.2945 75.192 40.6065 75.192ZM51.5485 73.116H46.4605V71.748H51.5485V73.116ZM53.3005 75H51.5605L48.7525 67.56H49.2325L46.4245 75H44.7445L48.1285 66.42H49.9165L53.3005 75ZM54.6863 75V66.42H61.9823V75H60.3623V66.804L61.1663 67.8H55.4303L56.3063 66.804V75H54.6863ZM64.0496 75V66.42H65.6696V74.256H64.5896L69.7136 66.42H71.4416V75H69.8216V67.128H70.8896L65.7536 75H64.0496ZM80.0226 72.504L81.0906 73.584C80.7146 74.064 80.2186 74.452 79.6026 74.748C78.9946 75.044 78.3266 75.192 77.5986 75.192C76.9346 75.192 76.3266 75.084 75.7746 74.868C75.2226 74.644 74.7426 74.332 74.3346 73.932C73.9346 73.524 73.6226 73.048 73.3986 72.504C73.1826 71.96 73.0746 71.36 73.0746 70.704C73.0746 70.064 73.1866 69.472 73.4106 68.928C73.6426 68.376 73.9626 67.9 74.3706 67.5C74.7786 67.092 75.2586 66.78 75.8106 66.564C76.3706 66.34 76.9786 66.228 77.6346 66.228C78.3626 66.228 79.0266 66.376 79.6266 66.672C80.2266 66.968 80.7146 67.356 81.0906 67.836L80.0226 68.916C79.7586 68.532 79.4186 68.228 79.0026 68.004C78.5946 67.772 78.1386 67.656 77.6346 67.656C77.0906 67.656 76.6026 67.788 76.1706 68.052C75.7466 68.316 75.4106 68.676 75.1626 69.132C74.9146 69.588 74.7906 70.112 74.7906 70.704C74.7906 71.296 74.9146 71.824 75.1626 72.288C75.4106 72.744 75.7466 73.104 76.1706 73.368C76.6026 73.632 77.0906 73.764 77.6346 73.764C78.1386 73.764 78.5946 73.652 79.0026 73.428C79.4186 73.196 79.7586 72.888 80.0226 72.504ZM88.2633 73.116H83.1753V71.748H88.2633V73.116ZM90.0153 75H88.2753L85.4673 67.56H85.9473L83.1393 75H81.4593L84.8433 66.42H86.6313L90.0153 75ZM93.6197 75H91.9997V67.68H93.6197V75ZM96.3077 67.8H89.3117V66.42H96.3077V67.8ZM97.741 75V66.42H99.361V73.788L99.217 73.632H101.413C101.853 73.632 102.201 73.516 102.457 73.284C102.713 73.052 102.841 72.732 102.841 72.324C102.841 71.924 102.713 71.612 102.457 71.388C102.201 71.164 101.853 71.052 101.413 71.052H98.521V69.684H101.401C102.025 69.684 102.565 69.792 103.021 70.008C103.485 70.224 103.845 70.532 104.101 70.932C104.357 71.324 104.485 71.788 104.485 72.324C104.485 72.852 104.357 73.316 104.101 73.716C103.845 74.116 103.485 74.432 103.021 74.664C102.557 74.888 102.017 75 101.401 75H97.741ZM112.437 72.504L113.505 73.584C113.129 74.064 112.633 74.452 112.017 74.748C111.409 75.044 110.741 75.192 110.013 75.192C109.349 75.192 108.741 75.084 108.189 74.868C107.637 74.644 107.157 74.332 106.749 73.932C106.349 73.524 106.037 73.048 105.813 72.504C105.597 71.96 105.489 71.36 105.489 70.704C105.489 70.064 105.601 69.472 105.825 68.928C106.057 68.376 106.377 67.9 106.785 67.5C107.193 67.092 107.673 66.78 108.225 66.564C108.785 66.34 109.393 66.228 110.049 66.228C110.777 66.228 111.441 66.376 112.041 66.672C112.641 66.968 113.129 67.356 113.505 67.836L112.437 68.916C112.173 68.532 111.833 68.228 111.417 68.004C111.009 67.772 110.553 67.656 110.049 67.656C109.505 67.656 109.017 67.788 108.585 68.052C108.161 68.316 107.825 68.676 107.577 69.132C107.329 69.588 107.205 70.112 107.205 70.704C107.205 71.296 107.329 71.824 107.577 72.288C107.825 72.744 108.161 73.104 108.585 73.368C109.017 73.632 109.505 73.764 110.049 73.764C110.553 73.764 111.009 73.652 111.417 73.428C111.833 73.196 112.173 72.888 112.437 72.504ZM119.534 75V67.788H117.674C117.226 67.788 116.874 67.9 116.618 68.124C116.362 68.348 116.234 68.652 116.234 69.036C116.234 69.428 116.362 69.736 116.618 69.96C116.874 70.184 117.226 70.296 117.674 70.296H119.654V71.664H117.674C117.058 71.664 116.518 71.556 116.054 71.34C115.598 71.116 115.238 70.808 114.974 70.416C114.718 70.016 114.59 69.556 114.59 69.036C114.59 68.516 114.718 68.06 114.974 67.668C115.238 67.276 115.598 66.972 116.054 66.756C116.518 66.532 117.058 66.42 117.674 66.42H121.154V75H119.534ZM113.954 75L116.822 71.004H118.622L115.874 75H113.954ZM21.826 95V86.42H23.446V95H21.826ZM17.734 95H16.114V86.42H17.734V95ZM17.614 91.28V89.9H21.946V91.28H17.614ZM31.6325 93.116H26.5445V91.748H31.6325V93.116ZM33.3845 95H31.6445L28.8365 87.56H29.3165L26.5085 95H24.8285L28.2125 86.42H30.0005L33.3845 95ZM38.734 95H37.114V86.42H38.734V95ZM44.962 95H42.766L38.434 90.548H38.626L42.454 86.42H44.458L40.366 90.716V90.38L44.962 95ZM49.2934 95.192C48.6294 95.192 48.0174 95.08 47.4574 94.856C46.9054 94.632 46.4214 94.32 46.0054 93.92C45.5894 93.52 45.2694 93.048 45.0454 92.504C44.8214 91.952 44.7094 91.352 44.7094 90.704C44.7094 90.056 44.8214 89.46 45.0454 88.916C45.2694 88.372 45.5894 87.9 46.0054 87.5C46.4214 87.1 46.9054 86.788 47.4574 86.564C48.0174 86.34 48.6294 86.228 49.2934 86.228C49.9574 86.228 50.5654 86.34 51.1174 86.564C51.6774 86.788 52.1654 87.1 52.5814 87.5C52.9974 87.9 53.3174 88.372 53.5414 88.916C53.7654 89.46 53.8774 90.056 53.8774 90.704C53.8774 91.352 53.7654 91.952 53.5414 92.504C53.3174 93.048 52.9974 93.52 52.5814 93.92C52.1654 94.32 51.6774 94.632 51.1174 94.856C50.5654 95.08 49.9574 95.192 49.2934 95.192ZM49.2934 93.764C49.8614 93.764 50.3614 93.632 50.7934 93.368C51.2254 93.104 51.5614 92.744 51.8014 92.288C52.0494 91.824 52.1734 91.296 52.1734 90.704C52.1734 90.112 52.0494 89.588 51.8014 89.132C51.5614 88.676 51.2254 88.316 50.7934 88.052C50.3614 87.788 49.8614 87.656 49.2934 87.656C48.7334 87.656 48.2334 87.788 47.7934 88.052C47.3614 88.316 47.0214 88.676 46.7734 89.132C46.5334 89.588 46.4134 90.112 46.4134 90.704C46.4134 91.296 46.5334 91.824 46.7734 92.288C47.0214 92.744 47.3614 93.104 47.7934 93.368C48.2334 93.632 48.7334 93.764 49.2934 93.764ZM61.2245 95V86.42H62.8445V95H61.2245ZM57.1325 95H55.5125V86.42H57.1325V95ZM57.0125 91.28V89.9H61.3445V91.28H57.0125ZM71.4269 92.504L72.4949 93.584C72.1189 94.064 71.6229 94.452 71.0069 94.748C70.3989 95.044 69.7309 95.192 69.0029 95.192C68.3389 95.192 67.7309 95.084 67.1789 94.868C66.6269 94.644 66.1469 94.332 65.7389 93.932C65.3389 93.524 65.0269 93.048 64.8029 92.504C64.5869 91.96 64.4789 91.36 64.4789 90.704C64.4789 90.064 64.5909 89.472 64.8149 88.928C65.0469 88.376 65.3669 87.9 65.7749 87.5C66.1829 87.092 66.6629 86.78 67.2149 86.564C67.7749 86.34 68.3829 86.228 69.0389 86.228C69.7669 86.228 70.4309 86.376 71.0309 86.672C71.6309 86.968 72.1189 87.356 72.4949 87.836L71.4269 88.916C71.1629 88.532 70.8229 88.228 70.4069 88.004C69.9989 87.772 69.5429 87.656 69.0389 87.656C68.4949 87.656 68.0069 87.788 67.5749 88.052C67.1509 88.316 66.8149 88.676 66.5669 89.132C66.3189 89.588 66.1949 90.112 66.1949 90.704C66.1949 91.296 66.3189 91.824 66.5669 92.288C66.8149 92.744 67.1509 93.104 67.5749 93.368C68.0069 93.632 68.4949 93.764 69.0389 93.764C69.5429 93.764 69.9989 93.652 70.4069 93.428C70.8229 93.196 71.1629 92.888 71.4269 92.504ZM73.7663 95V93.632H74.8823C75.1623 93.632 75.3983 93.588 75.5903 93.5C75.7903 93.412 75.9663 93.264 76.1183 93.056C76.2783 92.848 76.4423 92.56 76.6103 92.192L79.3103 86.42H80.9663L77.6663 93.176C77.4503 93.608 77.2183 93.96 76.9703 94.232C76.7223 94.496 76.4343 94.692 76.1063 94.82C75.7863 94.94 75.4063 95 74.9663 95H73.7663ZM76.4303 93.08L73.0703 86.42H74.7263L77.6303 92.36L76.4303 93.08ZM80.1987 95V93.62H80.9427C81.1667 93.62 81.3267 93.576 81.4227 93.488C81.5187 93.4 81.5827 93.236 81.6147 92.996L82.3947 86.42H88.0707V95H86.4507V86.66L87.2907 87.8H82.7667L83.9427 86.66L83.1507 93.068C83.0947 93.524 82.9907 93.896 82.8387 94.184C82.6867 94.464 82.4787 94.672 82.2147 94.808C81.9507 94.936 81.6147 95 81.2067 95H80.1987ZM90.1179 95V86.42H91.7379V93.788L91.5939 93.632H93.7899C94.2299 93.632 94.5779 93.516 94.8339 93.284C95.0899 93.052 95.2179 92.732 95.2179 92.324C95.2179 91.924 95.0899 91.612 94.8339 91.388C94.5779 91.164 94.2299 91.052 93.7899 91.052H90.8979V89.684H93.7779C94.4019 89.684 94.9419 89.792 95.3979 90.008C95.8619 90.224 96.2219 90.532 96.4779 90.932C96.7339 91.324 96.8619 91.788 96.8619 92.324C96.8619 92.852 96.7339 93.316 96.4779 93.716C96.2219 94.116 95.8619 94.432 95.3979 94.664C94.9339 94.888 94.3939 95 93.7779 95H90.1179ZM100.516 95H98.8962V87.68H100.516V95ZM103.204 87.8H96.2082V86.42H103.204V87.8ZM109.316 93.116H104.228V91.748H109.316V93.116ZM111.068 95H109.328L106.52 87.56H107L104.192 95H102.512L105.896 86.42H107.684L111.068 95ZM112.454 95V86.42H114.074V94.616L113.198 93.62H118.862L118.07 94.616V86.42H119.69V95H112.454ZM119.198 97.088V93.62H120.71V97.088H119.198ZM122.216 95V86.42H123.836V94.256H122.756L127.88 86.42H129.608V95H127.988V87.128H129.056L123.92 95H122.216ZM138.981 95.192C138.357 95.192 137.781 95.084 137.253 94.868C136.725 94.644 136.265 94.332 135.873 93.932C135.481 93.524 135.177 93.048 134.961 92.504C134.745 91.952 134.637 91.352 134.637 90.704C134.637 90.056 134.745 89.46 134.961 88.916C135.177 88.372 135.481 87.9 135.873 87.5C136.265 87.092 136.725 86.78 137.253 86.564C137.781 86.34 138.357 86.228 138.981 86.228C139.605 86.228 140.181 86.34 140.709 86.564C141.237 86.78 141.697 87.092 142.089 87.5C142.481 87.9 142.781 88.372 142.989 88.916C143.205 89.46 143.313 90.056 143.313 90.704C143.313 91.352 143.205 91.952 142.989 92.504C142.781 93.048 142.481 93.524 142.089 93.932C141.697 94.332 141.237 94.644 140.709 94.868C140.181 95.084 139.605 95.192 138.981 95.192ZM131.673 95V86.42H133.293V95H131.673ZM132.657 91.28V89.9H135.681V91.28H132.657ZM138.981 93.764C139.509 93.764 139.969 93.636 140.361 93.38C140.753 93.124 141.057 92.764 141.273 92.3C141.497 91.836 141.609 91.304 141.609 90.704C141.609 90.096 141.497 89.564 141.273 89.108C141.057 88.652 140.753 88.296 140.361 88.04C139.969 87.784 139.509 87.656 138.981 87.656C138.461 87.656 138.001 87.784 137.601 88.04C137.201 88.296 136.889 88.656 136.665 89.12C136.449 89.576 136.341 90.104 136.341 90.704C136.341 91.304 136.449 91.836 136.665 92.3C136.889 92.764 137.201 93.124 137.601 93.38C138.001 93.636 138.461 93.764 138.981 93.764Z" fill="white"/>
</svg>
