<svg width="169" height="168" viewBox="0 0 169 168" fill="none" xmlns="http://www.w3.org/2000/svg">
<path d="M11.4371 77.7999L0.978516 76.3043L2.30737 67.0609L12.766 68.5565L12.3969 71.0819L2.55346 69.6598L4.22684 68.6791L3.2425 75.4461L1.96286 73.877L11.8062 75.299L11.4371 77.7999Z" fill="#337AE0"/>
<path d="M14.9814 61.6913C14.7354 62.4759 14.3662 63.1624 13.8987 63.7509C13.4311 64.3393 12.8651 64.8051 12.2499 65.1484C11.6347 65.4917 10.9457 65.6878 10.232 65.7614C9.49375 65.8349 8.7555 65.7368 7.99264 65.4917C7.22977 65.2465 6.56534 64.9032 6.02396 64.4374C5.48257 63.9715 5.03962 63.4076 4.71971 62.7701C4.3998 62.1327 4.22754 61.4462 4.17832 60.6861C4.1291 59.9505 4.22754 59.166 4.47362 58.3814C4.71971 57.5968 5.08883 56.9103 5.5564 56.3219C6.02396 55.7334 6.58995 55.2676 7.20516 54.9243C7.82038 54.5811 8.50941 54.3849 9.22306 54.3114C9.93671 54.2378 10.675 54.3359 11.4378 54.5811C12.2007 54.8262 12.8651 55.1695 13.4065 55.6353C13.9725 56.1012 14.3908 56.6651 14.7108 57.3026C15.0307 57.9401 15.2029 58.6266 15.2521 59.3866C15.326 60.1222 15.2275 60.8822 14.9814 61.6913ZM12.8405 61.0048C13.0128 60.4164 13.062 59.877 12.9143 59.3621C12.7913 58.8472 12.5206 58.3814 12.1269 57.9891C11.7331 57.5968 11.241 57.3026 10.6257 57.1064C10.0105 56.9103 9.44454 56.8613 8.87854 56.9593C8.33715 57.0574 7.84498 57.2781 7.45125 57.6458C7.05751 57.9891 6.76221 58.4549 6.56534 59.0434C6.39308 59.6073 6.36847 60.1712 6.49152 60.6861C6.61456 61.201 6.88525 61.6668 7.27899 62.0591C7.67272 62.4514 8.16489 62.7456 8.78011 62.9418C9.39532 63.1379 9.96131 63.1869 10.5273 63.0889C11.0687 62.9908 11.5609 62.7701 11.9546 62.4024C12.3729 62.0346 12.6682 61.5933 12.8405 61.0048Z" fill="#337AE0"/>
<path d="M16.4813 56.2239L14.5619 55.2922L15.0294 54.336C15.1525 54.0908 15.2017 53.8946 15.1525 53.7475C15.1033 53.6004 14.9556 53.4533 14.7095 53.2817L8.21289 49.1381L11.4612 42.5427L20.9355 47.1767L19.8035 49.4569L10.6245 44.97L12.7655 44.6758L10.3292 49.604L9.54175 47.1031L15.7431 51.1486C16.3337 51.5409 16.7766 51.9087 17.0473 52.2764C17.3426 52.6442 17.4903 53.0365 17.4903 53.4533C17.4903 53.8701 17.3672 54.336 17.0966 54.8754L16.4813 56.2239Z" fill="#337AE0"/>
<path d="M21.8227 41.6111L12.7422 40.3116L14.2187 38.203L21.9458 39.4535L21.8227 41.6111ZM21.9212 45.6075L20.174 44.4061L21.0106 43.1802C21.2075 42.886 21.3305 42.6163 21.3798 42.3221C21.429 42.0524 21.4044 41.7337 21.2813 41.4149C21.1583 41.0717 20.9614 40.6794 20.6907 40.238L16.9995 34.1821L18.476 32.0735L23.0039 40.0174C23.2992 40.5323 23.4715 40.9981 23.5699 41.4885C23.6684 41.9788 23.6437 42.4202 23.5207 42.886C23.3977 43.3519 23.1762 43.8177 22.8563 44.2835L21.9212 45.6075Z" fill="#337AE0"/>
<path d="M27.4325 32.4167C26.6451 33.2748 25.8084 33.7407 24.9225 33.8387C24.0366 33.9123 23.1999 33.6181 22.437 32.907L19.7793 30.4552L21.5019 28.5918L23.9381 30.823C24.3319 31.1908 24.701 31.3379 25.0701 31.2888C25.4146 31.2398 25.8084 30.9946 26.2267 30.5533C26.4974 30.2591 26.7189 29.9649 26.9158 29.6216C27.1126 29.3029 27.2357 28.9841 27.3095 28.6899L28.786 29.2783C28.8106 29.7932 28.7122 30.3081 28.4661 30.8475C28.22 31.436 27.8755 31.9508 27.4325 32.4167ZM31.7882 32.9806L24.012 25.8458L25.7345 23.9824L33.5108 31.0927L31.7882 32.9806Z" fill="#337AE0"/>
<path d="M34.9623 29.6952L28.3672 21.4816L30.3605 19.8879L36.3157 27.2679L34.9623 28.3467L33.7318 17.1909L35.7989 15.5237L42.394 23.7373L40.4007 25.331L34.3717 17.8774L35.7497 16.7741L37.0294 28.0525L34.9623 29.6952Z" fill="#337AE0"/>
<path d="M46.8727 11.3311L39.2195 15.8179L38.1367 13.979L45.79 9.49219L46.8727 11.3311ZM48.3985 20.1576L46.2083 21.4325L41.8772 14.0771L44.0674 12.8021L48.3985 20.1576Z" fill="#337AE0"/>
<path d="M52.3616 17.9755L48.252 8.29079L50.5898 7.31006L53.9611 15.254L53.715 15.1314L55.856 14.2242C56.2497 14.0526 56.5204 13.8074 56.6681 13.4886C56.8157 13.1699 56.7911 12.8267 56.6188 12.4344C56.4712 12.0666 56.2251 11.8459 55.9052 11.7233C55.5853 11.6253 55.2408 11.6498 54.8224 11.8214L51.6233 13.1699L50.8112 11.233L54.0103 9.88447C54.7486 9.56573 55.4622 9.41862 56.1021 9.44314C56.7665 9.46766 57.3325 9.63929 57.8493 9.98254C58.3414 10.3258 58.7352 10.7916 59.0059 11.4291C59.2766 12.0421 59.3504 12.655 59.2519 13.268C59.1535 13.8809 58.8828 14.4203 58.4399 14.9352C57.9969 15.4501 57.4063 15.8424 56.6927 16.1611L52.3616 17.9755Z" fill="#337AE0"/>
<path d="M69.4643 12.2137L66.9542 12.655L65.084 2.30831L67.5941 1.86699L69.4643 12.2137ZM77.1421 10.8406L73.8938 11.4291L68.16 6.91773L68.3815 6.8687L71.6298 1.13144L74.6567 0.592041L71.1131 6.599L71.0392 6.15767L77.1421 10.8406Z" fill="#337AE0"/>
<path d="M81.965 10.9633C81.1283 10.9878 80.3654 10.8897 79.6518 10.62C78.9381 10.3748 78.3229 10.0071 77.7815 9.54121C77.2402 9.07536 76.8218 8.51144 76.5265 7.84945C76.2312 7.18746 76.0589 6.45191 76.0343 5.66733C76.0097 4.88275 76.1328 4.1472 76.3789 3.46069C76.6249 2.77419 77.0187 2.18575 77.5108 1.69539C78.003 1.1805 78.5936 0.788212 79.2827 0.493994C79.9717 0.199776 80.7346 0.0281483 81.5712 0.00363012C82.4079 -0.0208881 83.1708 0.0771847 83.8844 0.346885C84.5981 0.592067 85.2133 0.959839 85.7547 1.42569C86.2961 1.89153 86.7144 2.45545 87.0097 3.11744C87.305 3.77943 87.4773 4.49046 87.5019 5.29956C87.5265 6.08414 87.4035 6.81969 87.1574 7.5062C86.9113 8.19271 86.5176 8.78114 86.0254 9.29602C85.5332 9.81091 84.9426 10.2032 84.2536 10.4974C83.5645 10.7671 82.8017 10.9387 81.965 10.9633ZM81.8912 8.75662C82.5064 8.7321 83.0232 8.585 83.4661 8.29078C83.9091 7.99656 84.2536 7.60427 84.4997 7.08939C84.7457 6.5745 84.8442 6.01059 84.8442 5.37311C84.8196 4.73564 84.6719 4.17172 84.4012 3.70588C84.1305 3.21551 83.7614 2.84774 83.2938 2.57804C82.8263 2.30834 82.2849 2.18575 81.6697 2.21027C81.0791 2.23479 80.5377 2.38189 80.0947 2.67611C79.6518 2.97033 79.2827 3.36262 79.0612 3.8775C78.8151 4.36787 78.7167 4.9563 78.7167 5.59378C78.7413 6.23125 78.8889 6.79517 79.1596 7.28553C79.4303 7.7759 79.7994 8.14367 80.2916 8.41337C80.7346 8.63403 81.2759 8.75662 81.8912 8.75662Z" fill="#337AE0"/>
<path d="M91.7347 11.0368L89.2246 10.7181L90.6027 0.297852L93.1127 0.616588L91.7347 11.0368ZM92.153 6.72162L92.4237 4.61305L97.0009 5.20149L96.7056 7.33457L92.153 6.72162ZM95.9919 11.5762L97.37 1.15599L99.8801 1.47472L98.502 11.895L95.9919 11.5762Z" fill="#337AE0"/>
<path d="M109.133 11.3066L110.241 13.3661C109.625 13.7829 108.912 14.0771 108.075 14.1997C107.238 14.3468 106.377 14.2733 105.516 14.0281C104.704 13.7829 103.99 13.4397 103.399 12.9983C102.809 12.557 102.341 12.0176 101.972 11.4046C101.603 10.7917 101.406 10.1297 101.332 9.39416C101.259 8.68313 101.332 7.92306 101.554 7.163C101.775 6.40294 102.12 5.74095 102.587 5.17703C103.055 4.61311 103.596 4.17178 104.236 3.82853C104.876 3.50979 105.565 3.31365 106.303 3.24009C107.066 3.16654 107.829 3.26461 108.641 3.48527C109.527 3.73045 110.265 4.14726 110.88 4.68666C111.496 5.25058 111.939 5.86354 112.234 6.55005L110.216 7.7024C110.044 7.21204 109.773 6.77071 109.379 6.40294C109.01 6.03516 108.543 5.76546 108.026 5.61836C107.46 5.44673 106.918 5.44673 106.377 5.56932C105.86 5.71643 105.393 5.98613 104.999 6.37842C104.605 6.77071 104.31 7.28559 104.138 7.89855C103.965 8.5115 103.941 9.09994 104.039 9.63934C104.162 10.1787 104.408 10.6691 104.778 11.0614C105.147 11.4537 105.614 11.7479 106.18 11.895C106.722 12.0421 107.238 12.0666 107.755 11.944C108.247 11.846 108.715 11.6253 109.133 11.3066Z" fill="#337AE0"/>
<path d="M110.781 15.4747L111.667 13.5377L113.021 14.1507C113.341 14.2978 113.636 14.3713 113.931 14.3713C114.202 14.3713 114.497 14.2733 114.817 14.1262C115.137 13.9545 115.481 13.6848 115.875 13.3416L121.215 8.63409L123.578 9.68837L116.54 15.5482C116.097 15.916 115.654 16.1857 115.186 16.3573C114.743 16.5289 114.276 16.6025 113.808 16.5535C113.341 16.5289 112.848 16.3818 112.307 16.1612L110.781 15.4747ZM114.694 14.6656L114.374 5.5448L116.736 6.59908L116.884 14.3959L114.694 14.6656Z" fill="#337AE0"/>
<path d="M117.943 18.5883L119.051 16.774L119.961 17.3379C120.207 17.485 120.404 17.5341 120.527 17.5095C120.675 17.485 120.823 17.3379 121.019 17.1173L125.769 11.0367L132.069 14.8616L126.581 23.8352L124.415 22.5113L129.755 13.8073L129.854 15.9649L125.129 13.0963L127.688 12.5569L123.087 18.3432C122.644 18.8826 122.225 19.2994 121.832 19.5446C121.438 19.7897 121.019 19.9123 120.626 19.8633C120.207 19.8388 119.764 19.6671 119.248 19.3484L117.943 18.5883Z" fill="#337AE0"/>
<path d="M128.229 25.0612L134.971 16.9702L136.915 18.5884L131.403 25.2328L131.403 24.9631L133.175 26.4342C133.519 26.7039 133.839 26.8265 134.184 26.8265C134.528 26.8265 134.824 26.6304 135.094 26.3116C135.34 26.0174 135.439 25.6987 135.39 25.3554C135.34 25.0367 135.144 24.718 134.824 24.4483L132.141 22.2171L133.495 20.5989L136.152 22.8055C136.768 23.3204 137.235 23.8843 137.506 24.4728C137.777 25.0612 137.9 25.6497 137.826 26.2626C137.752 26.851 137.506 27.415 137.063 27.9298C136.62 28.4447 136.128 28.8125 135.537 28.9841C134.947 29.1803 134.331 29.1803 133.692 29.0332C133.052 28.8861 132.412 28.5428 131.797 28.0279L128.229 25.0612Z" fill="#337AE0"/>
<path d="M137.973 33.9123L136.201 32.098L142.378 26.1891L144.15 28.0034L137.973 33.9123ZM146.241 30.3572L140.065 23.9824L141.615 22.5114L147.792 28.8861L146.241 30.3572Z" fill="#337AE0"/>
<path d="M146.12 44.0138L144.471 41.8317L149.516 34.1084L149.91 34.6233L141.051 37.3203L139.451 35.2117L150.353 32.147L152.051 34.4026L146.12 44.0138ZM146.292 41.0961L142.33 35.8492L144.028 34.5743L147.99 39.8212L146.292 41.0961Z" fill="#337AE0"/>
<path d="M148.309 53.5268L152.467 51.3447L153.575 53.4288L149.416 55.6109L148.309 53.5268ZM146.709 45.0681L156.036 40.1644L157.217 42.3956L148.432 47.0295L149.121 45.1416L152.27 51.075L150.376 50.7072L159.161 46.0733L160.342 48.3045L151.015 53.2081L146.709 45.0681Z" fill="#337AE0"/>
<path d="M152.148 55.7089L162.139 52.3254L162.952 54.7282L153.945 57.7685L153.379 56.1258L164.33 58.7982L165.191 61.2991L155.2 64.6826L154.388 62.2798L163.518 59.1905L164.084 60.8578L153.01 58.2098L152.148 55.7089Z" fill="#337AE0"/>
<path d="M156.947 75.8138C156.848 75.0537 156.873 74.3182 157.045 73.6317C157.218 72.9452 157.537 72.3322 157.956 71.7928C158.374 71.2534 158.916 70.7876 159.531 70.4443C160.171 70.1011 160.884 69.8559 161.672 69.7578C162.459 69.6597 163.197 69.6842 163.911 69.8559C164.6 70.0275 165.24 70.3217 165.806 70.714C166.372 71.1308 166.815 71.6212 167.184 72.2341C167.553 72.8471 167.775 73.5336 167.873 74.2937C167.971 75.0537 167.947 75.7893 167.775 76.4758C167.602 77.1623 167.282 77.7753 166.864 78.3147C166.446 78.8541 165.904 79.3199 165.289 79.6632C164.674 80.0064 163.96 80.2516 163.173 80.3497C162.385 80.4477 161.647 80.4232 160.933 80.2516C160.22 80.08 159.605 79.7857 159.039 79.3934C158.473 78.9766 158.03 78.4863 157.66 77.8733C157.291 77.2604 157.045 76.5739 156.947 75.8138ZM159.162 75.4951C159.235 76.0345 159.432 76.5003 159.752 76.8436C160.072 77.2113 160.49 77.4565 161.032 77.6036C161.549 77.7507 162.139 77.7753 162.804 77.7017C163.468 77.6036 164.009 77.432 164.452 77.1378C164.895 76.8436 165.24 76.5003 165.461 76.059C165.683 75.6176 165.732 75.1273 165.658 74.5879C165.584 74.0485 165.388 73.6072 165.068 73.2394C164.748 72.8716 164.329 72.6264 163.813 72.4548C163.296 72.3077 162.705 72.2832 162.065 72.3567C161.401 72.4548 160.86 72.6264 160.392 72.9206C159.924 73.2149 159.605 73.5826 159.383 73.9994C159.137 74.4898 159.088 74.9557 159.162 75.4951ZM155.889 66.5214L166.347 65.0748L166.692 67.5757L156.233 69.0223L155.889 66.5214ZM160.367 67.2569L162.484 66.9627L163.074 71.2289L160.958 71.5231L160.367 67.2569Z" fill="#337AE0"/>
<path d="M157.561 88.1956L168.02 89.5441L166.814 98.7874L156.355 97.4389L156.675 94.9381L166.519 96.213L164.87 97.2183L165.756 90.4512L167.085 91.9959L157.241 90.7209L157.561 88.1956Z" fill="#337AE0"/>
<path d="M154.24 104.378C154.486 103.568 154.831 102.882 155.298 102.294C155.766 101.705 156.307 101.239 156.922 100.871C157.538 100.528 158.227 100.308 158.94 100.234C159.678 100.16 160.417 100.234 161.18 100.455C161.942 100.675 162.607 101.019 163.173 101.484C163.739 101.95 164.182 102.49 164.502 103.127C164.822 103.765 165.019 104.451 165.092 105.187C165.166 105.922 165.068 106.707 164.822 107.491C164.576 108.276 164.231 108.987 163.763 109.575C163.296 110.164 162.755 110.63 162.139 110.997C161.524 111.341 160.86 111.561 160.121 111.635C159.408 111.709 158.645 111.635 157.882 111.414C157.119 111.194 156.455 110.85 155.889 110.385C155.323 109.919 154.88 109.379 154.56 108.742C154.24 108.104 154.043 107.418 153.969 106.682C153.895 105.947 153.994 105.162 154.24 104.378ZM156.356 105.015C156.184 105.603 156.159 106.143 156.307 106.658C156.455 107.173 156.725 107.639 157.119 108.031C157.513 108.423 158.03 108.717 158.645 108.889C159.26 109.061 159.826 109.11 160.392 109.012C160.933 108.913 161.401 108.668 161.819 108.325C162.238 107.982 162.508 107.491 162.681 106.927C162.853 106.364 162.878 105.8 162.73 105.285C162.582 104.77 162.336 104.304 161.942 103.912C161.549 103.519 161.032 103.225 160.417 103.054C159.802 102.882 159.211 102.833 158.67 102.931C158.128 103.029 157.636 103.274 157.242 103.642C156.824 103.985 156.553 104.451 156.356 105.015Z" fill="#337AE0"/>
<path d="M152.814 109.87L154.733 110.777L154.265 111.758C154.142 112.003 154.093 112.199 154.142 112.346C154.192 112.493 154.339 112.64 154.61 112.787L161.18 116.857L158.031 123.502L148.482 118.99L149.565 116.71L158.818 121.074L156.677 121.393L159.039 116.416L159.852 118.892L153.601 114.945C153.01 114.577 152.567 114.185 152.272 113.817C151.977 113.449 151.829 113.057 151.805 112.64C151.805 112.223 151.903 111.758 152.174 111.218L152.814 109.87Z" fill="#337AE0"/>
<path d="M147.523 120.56L149.295 121.736L148.458 122.962C148.261 123.257 148.138 123.551 148.089 123.82C148.04 124.09 148.089 124.409 148.187 124.728C148.31 125.046 148.507 125.439 148.803 125.905L152.592 131.911L151.165 134.045L146.514 126.174C146.219 125.684 146.022 125.194 145.948 124.728C145.85 124.262 145.85 123.796 145.973 123.33C146.071 122.864 146.292 122.398 146.612 121.933L147.523 120.56ZM147.695 124.532L156.776 125.708L155.348 127.841L147.597 126.714L147.695 124.532Z" fill="#337AE0"/>
<path d="M137.85 133.309L145.725 140.321L144.027 142.209L136.152 135.197L137.85 133.309ZM142.206 133.799C142.994 132.941 143.83 132.451 144.716 132.353C145.602 132.255 146.439 132.549 147.202 133.236L149.908 135.638L148.211 137.526L145.725 135.32C145.331 134.976 144.962 134.805 144.593 134.878C144.249 134.927 143.855 135.172 143.436 135.638C143.166 135.933 142.944 136.251 142.772 136.57C142.575 136.913 142.452 137.207 142.378 137.502L140.877 136.938C140.853 136.423 140.951 135.908 141.172 135.369C141.443 134.805 141.763 134.29 142.206 133.799Z" fill="#337AE0"/>
<path d="M134.701 136.643L141.419 144.759L139.45 146.377L133.396 139.071L134.75 137.967L136.128 149.123L134.085 150.815L127.367 142.675L129.336 141.057L135.488 148.461L134.11 149.589L132.658 138.311L134.701 136.643Z" fill="#337AE0"/>
<path d="M123.061 155.179L130.665 150.57L131.772 152.384L124.168 156.994L123.061 155.179ZM121.412 146.377L123.578 145.053L128.032 152.335L125.866 153.659L121.412 146.377Z" fill="#337AE0"/>
<path d="M117.475 148.608L121.732 158.244L119.419 159.274L115.924 151.379L116.17 151.502L114.054 152.433C113.66 152.605 113.39 152.85 113.267 153.169C113.143 153.488 113.143 153.831 113.316 154.223C113.463 154.591 113.709 154.812 114.029 154.91C114.349 155.008 114.694 154.983 115.112 154.811L118.311 153.414L119.173 155.351L115.998 156.748C115.26 157.067 114.571 157.239 113.906 157.214C113.242 157.19 112.676 157.043 112.159 156.699C111.642 156.381 111.273 155.89 110.978 155.277C110.707 154.664 110.609 154.051 110.707 153.438C110.806 152.826 111.052 152.286 111.495 151.771C111.913 151.256 112.504 150.84 113.242 150.521L117.475 148.608Z" fill="#337AE0"/>
<path d="M92.8184 156.111L96.0667 155.473L101.874 159.911L101.653 159.96L98.4537 165.722L95.4515 166.31L98.8967 160.254L98.9705 160.696L92.8184 156.111ZM100.447 154.615L102.932 154.125L104.95 164.447L102.465 164.937L100.447 154.615Z" fill="#337AE0"/>
<path d="M87.9945 156.037C88.8312 155.988 89.594 156.086 90.3077 156.332C91.0213 156.577 91.6365 156.92 92.1779 157.386C92.7193 157.852 93.1377 158.416 93.4576 159.078C93.7775 159.74 93.9497 160.451 93.9743 161.26C94.0236 162.044 93.9005 162.78 93.6544 163.466C93.4084 164.153 93.0392 164.741 92.5471 165.256C92.0549 165.771 91.4643 166.188 90.7752 166.482C90.0862 166.801 89.3233 166.973 88.4867 166.997C87.65 167.046 86.8871 166.948 86.1735 166.703C85.4598 166.458 84.8446 166.114 84.3032 165.649C83.7618 165.183 83.3435 164.619 83.0236 163.981C82.7037 163.319 82.5314 162.608 82.5068 161.824C82.4576 161.039 82.5806 160.279 82.8267 159.617C83.0728 158.931 83.4419 158.342 83.9341 157.827C84.4263 157.312 85.0169 156.896 85.7059 156.601C86.3949 156.258 87.1578 156.086 87.9945 156.037ZM88.0929 158.269C87.4777 158.293 86.9609 158.465 86.518 158.759C86.075 159.053 85.7305 159.47 85.509 159.96C85.2629 160.475 85.1645 161.039 85.1891 161.677C85.2137 162.314 85.386 162.878 85.6567 163.344C85.952 163.81 86.3211 164.177 86.7887 164.447C87.2562 164.692 87.7976 164.815 88.4128 164.79C89.0034 164.766 89.5448 164.594 89.9878 164.3C90.4307 164.006 90.7752 163.589 91.0213 163.099C91.2674 162.608 91.3658 162.02 91.3412 161.382C91.3166 160.745 91.1444 160.181 90.8737 159.715C90.5784 159.225 90.2092 158.857 89.7417 158.612C89.2249 158.342 88.6835 158.244 88.0929 158.269Z" fill="#337AE0"/>
<path d="M73.9428 155.621L72.7124 166.065L70.1777 165.771L71.4082 155.326L73.9428 155.621ZM77.8556 160.426L77.6095 162.535L73.0323 161.995L73.2784 159.887L77.8556 160.426ZM78.2247 156.135L80.7594 156.43L79.529 166.874L76.9943 166.58L78.2247 156.135Z" fill="#337AE0"/>
<path d="M60.8022 156.086L59.6702 154.051C60.2855 153.61 60.9991 153.316 61.8358 153.169C62.6725 153.022 63.5338 153.071 64.4197 153.316C65.2564 153.537 65.97 153.88 66.5606 154.321C67.1512 154.762 67.6434 155.302 68.0125 155.89C68.3816 156.503 68.6031 157.165 68.677 157.876C68.7754 158.587 68.7016 159.347 68.4801 160.132C68.2586 160.892 67.9387 161.579 67.4711 162.142C67.0282 162.706 66.4868 163.172 65.847 163.515C65.2072 163.859 64.5181 164.055 63.7799 164.128C63.0416 164.202 62.2541 164.128 61.4174 163.908C60.5315 163.663 59.7933 163.27 59.1535 162.731C58.5383 162.191 58.0707 161.579 57.7754 160.892L59.7933 159.715C59.9655 160.206 60.2608 160.647 60.63 161.015C61.0237 161.382 61.4667 161.628 62.008 161.775C62.574 161.922 63.1154 161.946 63.6568 161.799C64.1736 161.652 64.6412 161.382 65.0349 160.966C65.4286 160.573 65.6993 160.058 65.8716 159.445C66.0438 158.833 66.0684 158.244 65.9454 157.705C65.8224 157.165 65.5763 156.675 65.1825 156.283C64.8134 155.89 64.3212 155.621 63.7553 155.449C63.2139 155.302 62.6971 155.302 62.1803 155.424C61.6881 155.523 61.2206 155.768 60.8022 156.086Z" fill="#337AE0"/>
<path d="M59.1042 151.943L58.2675 153.88L56.8895 153.291C56.5696 153.144 56.2496 153.095 55.9789 153.095C55.7083 153.095 55.413 153.193 55.093 153.365C54.7977 153.536 54.4286 153.806 54.0349 154.174L48.7687 158.955L46.4062 157.925L53.3458 151.967C53.7888 151.6 54.2317 151.33 54.6747 151.134C55.1177 150.962 55.5852 150.889 56.0528 150.913C56.5203 150.938 57.0125 151.06 57.5539 151.281L59.1042 151.943ZM55.1915 152.801L55.659 161.922L53.2966 160.892L53.0505 153.095L55.1915 152.801Z" fill="#337AE0"/>
<path d="M51.8925 148.952L50.8097 150.766L49.8746 150.227C49.6285 150.079 49.4316 150.03 49.3086 150.055C49.1609 150.079 49.0133 150.227 48.8164 150.472L44.1654 156.626L37.8164 152.899L43.1811 143.852L45.3712 145.127L40.1542 153.904L40.0312 151.747L44.7806 154.542L42.2213 155.13L46.7493 149.27C47.1922 148.706 47.586 148.314 47.9797 148.044C48.3734 147.775 48.7672 147.677 49.1855 147.701C49.6039 147.726 50.0468 147.897 50.5636 148.192L51.8925 148.952Z" fill="#337AE0"/>
<path d="M41.5336 142.601L34.8893 150.791L32.9206 149.197L38.3591 142.503L38.3591 142.773L36.5627 141.327C36.2182 141.057 35.8737 140.934 35.5537 140.959C35.2092 140.983 34.9139 141.155 34.6432 141.498C34.3972 141.792 34.2987 142.111 34.3479 142.454C34.3972 142.773 34.594 143.092 34.9385 143.362L37.6455 145.544L36.3166 147.186L33.6097 145.004C32.9699 144.489 32.5269 143.95 32.2316 143.362C31.9363 142.773 31.8379 142.185 31.8871 141.572C31.9609 140.983 32.1824 140.419 32.6253 139.88C33.0437 139.365 33.5605 138.997 34.1265 138.801C34.7171 138.605 35.3323 138.581 35.9721 138.728C36.6365 138.875 37.2517 139.193 37.8916 139.708L41.5336 142.601Z" fill="#337AE0"/>
<path d="M23.4222 137.575L29.6728 143.876L28.147 145.372L21.8965 139.071L23.4222 137.575ZM31.6414 133.897L33.4379 135.687L27.3596 141.694L25.5631 139.904L31.6414 133.897Z" fill="#337AE0"/>
<path d="M23.3721 123.894L25.0454 126.052L20.1237 133.848L19.73 133.333L28.5398 130.514L30.164 132.598L19.287 135.81L17.5645 133.579L23.3721 123.894ZM23.2244 126.836L27.2602 132.009L25.5868 133.309L21.551 128.136L23.2244 126.836Z" fill="#337AE0"/>
<path d="M22.7319 122.864L13.4791 127.915L12.2733 125.684L20.9847 120.927L20.3203 122.84L17.0966 116.955L18.9914 117.299L10.28 122.055L9.07422 119.824L18.327 114.773L22.7319 122.864ZM21.0339 114.43L16.9243 116.686L15.7923 114.626L19.902 112.37L21.0339 114.43Z" fill="#337AE0"/>
<path d="M17.1456 112.321L7.20379 115.852L6.34249 113.474L15.3 110.286L15.8906 111.929L4.9152 109.404L4.0293 106.903L13.9711 103.372L14.8324 105.751L5.75189 108.962L5.16129 107.295L16.2597 109.821L17.1456 112.321Z" fill="#337AE0"/>
<path d="M13.2585 101.534L2.8245 103.127L2.43076 100.626L12.8648 99.0327L13.2585 101.534ZM12.0773 92.2657C12.2003 93.0257 12.1757 93.7613 12.0035 94.4478C11.8312 95.1343 11.5359 95.7473 11.1176 96.3112C10.6992 96.8506 10.1824 97.3164 9.54261 97.6842C8.90279 98.052 8.21376 98.2971 7.42628 98.4197C6.63881 98.5423 5.90056 98.5178 5.18691 98.3707C4.47327 98.1991 3.85805 97.9294 3.29206 97.5371C2.72606 97.1448 2.2585 96.6299 1.88937 96.0415C1.52025 95.4285 1.27416 94.742 1.15112 93.9819C1.02808 93.2219 1.05269 92.4863 1.22495 91.7998C1.39721 91.1133 1.69251 90.5004 2.11085 89.9364C2.5292 89.397 3.04597 88.9312 3.66119 88.5634C4.2764 88.1957 4.99004 87.9505 5.77752 87.8279C6.56499 87.7053 7.30324 87.7298 8.01689 87.8769C8.73053 88.0485 9.37035 88.3182 9.91174 88.7105C10.4777 89.1028 10.9453 89.6177 11.3144 90.2061C11.7082 90.8191 11.9542 91.5056 12.0773 92.2657ZM8.77975 100.847L6.68803 101.166L6.0236 96.9241L8.11532 96.6054L8.77975 100.847ZM9.86252 92.6089C9.7887 92.0695 9.56722 91.6282 9.24731 91.2604C8.9274 90.8927 8.48445 90.6475 7.96767 90.5004C7.45089 90.3533 6.86029 90.3287 6.19586 90.4268C5.55604 90.5249 4.99004 90.721 4.54709 91.0152C4.10414 91.3095 3.75962 91.6772 3.56275 92.1186C3.36588 92.5599 3.29206 93.0503 3.39049 93.5897C3.46432 94.1291 3.68579 94.5704 4.0057 94.9382C4.32561 95.3059 4.76857 95.5511 5.28535 95.6982C5.80212 95.8453 6.39273 95.8699 7.03255 95.7718C7.67237 95.6737 8.23836 95.4776 8.70592 95.1833C9.17349 94.8891 9.4934 94.5213 9.69026 94.08C9.88713 93.6387 9.96096 93.1483 9.86252 92.6089Z" fill="#337AE0"/>
</svg>
