<svg width="200" height="200" viewBox="0 0 200 200" fill="none" xmlns="http://www.w3.org/2000/svg">
<path d="M27.4371 93.7999L16.9785 92.3043L18.3074 83.0609L28.766 84.5565L28.3969 87.0819L18.5535 85.6598L20.2268 84.6791L19.2425 91.4461L17.9629 89.877L27.8062 91.299L27.4371 93.7999Z" fill="#337AE0"/>
<path d="M30.9814 77.6913C30.7354 78.4759 30.3662 79.1624 29.8987 79.7509C29.4311 80.3393 28.8651 80.8051 28.2499 81.1484C27.6347 81.4917 26.9457 81.6878 26.232 81.7614C25.4938 81.8349 24.7555 81.7368 23.9926 81.4917C23.2298 81.2465 22.5653 80.9032 22.024 80.4374C21.4826 79.9715 21.0396 79.4076 20.7197 78.7701C20.3998 78.1327 20.2275 77.4462 20.1783 76.6861C20.1291 75.9505 20.2275 75.166 20.4736 74.3814C20.7197 73.5968 21.0888 72.9103 21.5564 72.3219C22.024 71.7334 22.59 71.2676 23.2052 70.9243C23.8204 70.5811 24.5094 70.3849 25.2231 70.3114C25.9367 70.2378 26.675 70.3359 27.4378 70.5811C28.2007 70.8262 28.8651 71.1695 29.4065 71.6353C29.9725 72.1012 30.3908 72.6651 30.7108 73.3026C31.0307 73.9401 31.2029 74.6266 31.2521 75.3866C31.326 76.1222 31.2275 76.8822 30.9814 77.6913ZM28.8405 77.0048C29.0128 76.4164 29.062 75.877 28.9143 75.3621C28.7913 74.8472 28.5206 74.3814 28.1269 73.9891C27.7331 73.5968 27.241 73.3026 26.6257 73.1064C26.0105 72.9103 25.4445 72.8613 24.8785 72.9593C24.3372 73.0574 23.845 73.2781 23.4512 73.6458C23.0575 73.9891 22.7622 74.4549 22.5653 75.0434C22.3931 75.6073 22.3685 76.1712 22.4915 76.6861C22.6146 77.201 22.8853 77.6668 23.279 78.0591C23.6727 78.4514 24.1649 78.7456 24.7801 78.9418C25.3953 79.1379 25.9613 79.1869 26.5273 79.0889C27.0687 78.9908 27.5609 78.7701 27.9546 78.4024C28.3729 78.0346 28.6682 77.5933 28.8405 77.0048Z" fill="#337AE0"/>
<path d="M32.4813 72.2239L30.5619 71.2922L31.0294 70.336C31.1525 70.0908 31.2017 69.8946 31.1525 69.7475C31.1033 69.6004 30.9556 69.4533 30.7095 69.2817L24.2129 65.1381L27.4612 58.5427L36.9355 63.1767L35.8035 65.4569L26.6245 60.97L28.7655 60.6758L26.3292 65.604L25.5417 63.1031L31.7431 67.1486C32.3337 67.5409 32.7766 67.9087 33.0473 68.2764C33.3426 68.6442 33.4903 69.0365 33.4903 69.4533C33.4903 69.8701 33.3672 70.336 33.0966 70.8754L32.4813 72.2239Z" fill="#337AE0"/>
<path d="M37.8227 57.6111L28.7422 56.3116L30.2187 54.203L37.9458 55.4535L37.8227 57.6111ZM37.9212 61.6075L36.174 60.4061L37.0106 59.1802C37.2075 58.886 37.3305 58.6163 37.3798 58.3221C37.429 58.0524 37.4044 57.7337 37.2813 57.4149C37.1583 57.0717 36.9614 56.6794 36.6907 56.238L32.9995 50.1821L34.476 48.0735L39.0039 56.0174C39.2992 56.5323 39.4715 56.9981 39.5699 57.4885C39.6684 57.9788 39.6437 58.4202 39.5207 58.886C39.3977 59.3519 39.1762 59.8177 38.8563 60.2835L37.9212 61.6075Z" fill="#337AE0"/>
<path d="M43.4325 48.4167C42.6451 49.2748 41.8084 49.7407 40.9225 49.8387C40.0366 49.9123 39.1999 49.6181 38.437 48.907L35.7793 46.4552L37.5019 44.5918L39.9381 46.823C40.3319 47.1908 40.701 47.3379 41.0701 47.2888C41.4146 47.2398 41.8084 46.9946 42.2267 46.5533C42.4974 46.2591 42.7189 45.9649 42.9158 45.6216C43.1126 45.3029 43.2357 44.9841 43.3095 44.6899L44.786 45.2783C44.8106 45.7932 44.7122 46.3081 44.4661 46.8475C44.22 47.436 43.8755 47.9508 43.4325 48.4167ZM47.7882 48.9806L40.012 41.8458L41.7345 39.9824L49.5108 47.0927L47.7882 48.9806Z" fill="#337AE0"/>
<path d="M50.9623 45.6952L44.3672 37.4816L46.3605 35.8879L52.3157 43.2679L50.9623 44.3467L49.7318 33.1909L51.7989 31.5237L58.394 39.7373L56.4007 41.331L50.3717 33.8774L51.7497 32.7741L53.0294 44.0525L50.9623 45.6952Z" fill="#337AE0"/>
<path d="M62.8727 27.3311L55.2195 31.8179L54.1367 29.979L61.79 25.4922L62.8727 27.3311ZM64.3985 36.1576L62.2083 37.4325L57.8772 30.0771L60.0674 28.8021L64.3985 36.1576Z" fill="#337AE0"/>
<path d="M68.3616 33.9755L64.252 24.2908L66.5898 23.3101L69.9611 31.254L69.715 31.1314L71.856 30.2242C72.2497 30.0526 72.5204 29.8074 72.6681 29.4886C72.8157 29.1699 72.7911 28.8267 72.6188 28.4344C72.4712 28.0666 72.2251 27.8459 71.9052 27.7233C71.5853 27.6253 71.2408 27.6498 70.8224 27.8214L67.6233 29.1699L66.8112 27.233L70.0103 25.8845C70.7486 25.5657 71.4622 25.4186 72.1021 25.4431C72.7665 25.4677 73.3325 25.6393 73.8493 25.9825C74.3414 26.3258 74.7352 26.7916 75.0059 27.4291C75.2766 28.0421 75.3504 28.655 75.2519 29.268C75.1535 29.8809 74.8828 30.4203 74.4399 30.9352C73.9969 31.4501 73.4063 31.8424 72.6927 32.1611L68.3616 33.9755Z" fill="#337AE0"/>
<path d="M85.4643 28.2137L82.9542 28.655L81.084 18.3083L83.5941 17.867L85.4643 28.2137ZM93.1421 26.8406L89.8938 27.4291L84.16 22.9177L84.3815 22.8687L87.6298 17.1314L90.6567 16.592L87.1131 22.599L87.0392 22.1577L93.1421 26.8406Z" fill="#337AE0"/>
<path d="M97.965 26.9633C97.1283 26.9878 96.3654 26.8897 95.6518 26.62C94.9381 26.3748 94.3229 26.0071 93.7815 25.5412C93.2402 25.0754 92.8218 24.5114 92.5265 23.8494C92.2312 23.1875 92.0589 22.4519 92.0343 21.6673C92.0097 20.8827 92.1328 20.1472 92.3789 19.4607C92.6249 18.7742 93.0187 18.1857 93.5108 17.6954C94.003 17.1805 94.5936 16.7882 95.2827 16.494C95.9717 16.1998 96.7346 16.0281 97.5712 16.0036C98.4079 15.9791 99.1708 16.0772 99.8844 16.3469C100.598 16.5921 101.213 16.9598 101.755 17.4257C102.296 17.8915 102.714 18.4554 103.01 19.1174C103.305 19.7794 103.477 20.4905 103.502 21.2996C103.527 22.0841 103.403 22.8197 103.157 23.5062C102.911 24.1927 102.518 24.7811 102.025 25.296C101.533 25.8109 100.943 26.2032 100.254 26.4974C99.5645 26.7671 98.8017 26.9387 97.965 26.9633ZM97.8912 24.7566C98.5064 24.7321 99.0232 24.585 99.4661 24.2908C99.9091 23.9966 100.254 23.6043 100.5 23.0894C100.746 22.5745 100.844 22.0106 100.844 21.3731C100.82 20.7356 100.672 20.1717 100.401 19.7059C100.131 19.2155 99.7614 18.8477 99.2938 18.578C98.8263 18.3083 98.2849 18.1857 97.6697 18.2103C97.0791 18.2348 96.5377 18.3819 96.0947 18.6761C95.6518 18.9703 95.2827 19.3626 95.0612 19.8775C94.8151 20.3679 94.7167 20.9563 94.7167 21.5938C94.7413 22.2312 94.8889 22.7952 95.1596 23.2855C95.4303 23.7759 95.7994 24.1437 96.2916 24.4134C96.7346 24.634 97.2759 24.7566 97.8912 24.7566Z" fill="#337AE0"/>
<path d="M107.735 27.0368L105.225 26.7181L106.603 16.2979L109.113 16.6166L107.735 27.0368ZM108.153 22.7216L108.424 20.6131L113.001 21.2015L112.706 23.3346L108.153 22.7216ZM111.992 27.5762L113.37 17.156L115.88 17.4747L114.502 27.895L111.992 27.5762Z" fill="#337AE0"/>
<path d="M125.133 27.3066L126.241 29.3661C125.625 29.7829 124.912 30.0771 124.075 30.1997C123.238 30.3468 122.377 30.2733 121.516 30.0281C120.704 29.7829 119.99 29.4397 119.399 28.9983C118.809 28.557 118.341 28.0176 117.972 27.4046C117.603 26.7917 117.406 26.1297 117.332 25.3942C117.259 24.6831 117.332 23.9231 117.554 23.163C117.775 22.4029 118.12 21.7409 118.587 21.177C119.055 20.6131 119.596 20.1718 120.236 19.8285C120.876 19.5098 121.565 19.3136 122.303 19.2401C123.066 19.1665 123.829 19.2646 124.641 19.4853C125.527 19.7305 126.265 20.1473 126.88 20.6867C127.496 21.2506 127.939 21.8635 128.234 22.55L126.216 23.7024C126.044 23.212 125.773 22.7707 125.379 22.4029C125.01 22.0352 124.543 21.7655 124.026 21.6184C123.46 21.4467 122.918 21.4467 122.377 21.5693C121.86 21.7164 121.393 21.9861 120.999 22.3784C120.605 22.7707 120.31 23.2856 120.138 23.8985C119.965 24.5115 119.941 25.0999 120.039 25.6393C120.162 26.1787 120.408 26.6691 120.778 27.0614C121.147 27.4537 121.614 27.7479 122.18 27.895C122.722 28.0421 123.238 28.0666 123.755 27.944C124.247 27.846 124.715 27.6253 125.133 27.3066Z" fill="#337AE0"/>
<path d="M126.781 31.4747L127.667 29.5377L129.021 30.1507C129.341 30.2978 129.636 30.3713 129.931 30.3713C130.202 30.3713 130.497 30.2733 130.817 30.1262C131.137 29.9545 131.481 29.6848 131.875 29.3416L137.215 24.6341L139.578 25.6884L132.54 31.5482C132.097 31.916 131.654 32.1857 131.186 32.3573C130.743 32.5289 130.276 32.6025 129.808 32.5535C129.341 32.5289 128.848 32.3818 128.307 32.1612L126.781 31.4747ZM130.694 30.6656L130.374 21.5448L132.736 22.5991L132.884 30.3959L130.694 30.6656Z" fill="#337AE0"/>
<path d="M133.943 34.5883L135.051 32.774L135.961 33.3379C136.207 33.485 136.404 33.5341 136.527 33.5095C136.675 33.485 136.823 33.3379 137.019 33.1173L141.769 27.0367L148.069 30.8616L142.581 39.8352L140.415 38.5113L145.755 29.8073L145.854 31.9649L141.129 29.0963L143.688 28.5569L139.087 34.3432C138.644 34.8826 138.225 35.2994 137.832 35.5446C137.438 35.7897 137.019 35.9123 136.626 35.8633C136.207 35.8388 135.764 35.6671 135.248 35.3484L133.943 34.5883Z" fill="#337AE0"/>
<path d="M144.229 41.0612L150.971 32.9702L152.915 34.5884L147.403 41.2328L147.403 40.9631L149.175 42.4342C149.519 42.7039 149.839 42.8265 150.184 42.8265C150.528 42.8265 150.824 42.6304 151.094 42.3116C151.34 42.0174 151.439 41.6987 151.39 41.3554C151.34 41.0367 151.144 40.718 150.824 40.4483L148.141 38.2171L149.495 36.5989L152.152 38.8055C152.768 39.3204 153.235 39.8843 153.506 40.4728C153.777 41.0612 153.9 41.6497 153.826 42.2626C153.752 42.851 153.506 43.415 153.063 43.9298C152.62 44.4447 152.128 44.8125 151.537 44.9841C150.947 45.1803 150.331 45.1803 149.692 45.0332C149.052 44.8861 148.412 44.5428 147.797 44.0279L144.229 41.0612Z" fill="#337AE0"/>
<path d="M153.973 49.9123L152.201 48.098L158.378 42.1891L160.15 44.0034L153.973 49.9123ZM162.241 46.3572L156.065 39.9824L157.615 38.5114L163.792 44.8861L162.241 46.3572Z" fill="#337AE0"/>
<path d="M162.12 60.0138L160.471 57.8317L165.516 50.1084L165.91 50.6233L157.051 53.3203L155.451 51.2117L166.353 48.147L168.051 50.4026L162.12 60.0138ZM162.292 57.0961L158.33 51.8492L160.028 50.5743L163.99 55.8212L162.292 57.0961Z" fill="#337AE0"/>
<path d="M164.309 69.5268L168.467 67.3447L169.575 69.4288L165.416 71.6109L164.309 69.5268ZM162.709 61.0681L172.036 56.1644L173.217 58.3956L164.432 63.0295L165.121 61.1416L168.27 67.075L166.376 66.7072L175.161 62.0733L176.342 64.3045L167.015 69.2081L162.709 61.0681Z" fill="#337AE0"/>
<path d="M168.148 71.7089L178.139 68.3254L178.952 70.7282L169.945 73.7685L169.379 72.1258L180.33 74.7982L181.191 77.2991L171.2 80.6826L170.388 78.2798L179.518 75.1905L180.084 76.8578L169.01 74.2098L168.148 71.7089Z" fill="#337AE0"/>
<path d="M172.947 91.8138C172.848 91.0537 172.873 90.3182 173.045 89.6317C173.218 88.9452 173.537 88.3322 173.956 87.7928C174.374 87.2534 174.916 86.7876 175.531 86.4443C176.171 86.1011 176.884 85.8559 177.672 85.7578C178.459 85.6597 179.197 85.6842 179.911 85.8559C180.6 86.0275 181.24 86.3217 181.806 86.714C182.372 87.1308 182.815 87.6212 183.184 88.2341C183.553 88.8471 183.775 89.5336 183.873 90.2937C183.971 91.0537 183.947 91.7893 183.775 92.4758C183.602 93.1623 183.282 93.7753 182.864 94.3147C182.446 94.8541 181.904 95.3199 181.289 95.6632C180.674 96.0064 179.96 96.2516 179.173 96.3497C178.385 96.4477 177.647 96.4232 176.933 96.2516C176.22 96.08 175.605 95.7857 175.039 95.3934C174.473 94.9766 174.03 94.4863 173.66 93.8733C173.291 93.2604 173.045 92.5739 172.947 91.8138ZM175.162 91.4951C175.235 92.0345 175.432 92.5003 175.752 92.8436C176.072 93.2113 176.49 93.4565 177.032 93.6036C177.549 93.7507 178.139 93.7753 178.804 93.7017C179.468 93.6036 180.009 93.432 180.452 93.1378C180.895 92.8436 181.24 92.5003 181.461 92.059C181.683 91.6176 181.732 91.1273 181.658 90.5879C181.584 90.0485 181.388 89.6072 181.068 89.2394C180.748 88.8716 180.329 88.6264 179.813 88.4548C179.296 88.3077 178.705 88.2832 178.065 88.3567C177.401 88.4548 176.86 88.6264 176.392 88.9206C175.924 89.2149 175.605 89.5826 175.383 89.9994C175.137 90.4898 175.088 90.9557 175.162 91.4951ZM171.889 82.5214L182.347 81.0748L182.692 83.5757L172.233 85.0223L171.889 82.5214ZM176.367 83.2569L178.484 82.9627L179.074 87.2289L176.958 87.5231L176.367 83.2569Z" fill="#337AE0"/>
<path d="M173.561 104.196L184.02 105.544L182.814 114.787L172.355 113.439L172.675 110.938L182.519 112.213L180.87 113.218L181.756 106.451L183.085 107.996L173.241 106.721L173.561 104.196Z" fill="#337AE0"/>
<path d="M170.24 120.378C170.486 119.568 170.831 118.882 171.298 118.294C171.766 117.705 172.307 117.239 172.922 116.871C173.538 116.528 174.227 116.308 174.94 116.234C175.678 116.16 176.417 116.234 177.18 116.455C177.942 116.675 178.607 117.019 179.173 117.484C179.739 117.95 180.182 118.49 180.502 119.127C180.822 119.765 181.019 120.451 181.092 121.187C181.166 121.922 181.068 122.707 180.822 123.491C180.576 124.276 180.231 124.987 179.763 125.575C179.296 126.164 178.755 126.63 178.139 126.997C177.524 127.341 176.86 127.561 176.121 127.635C175.408 127.709 174.645 127.635 173.882 127.414C173.119 127.194 172.455 126.85 171.889 126.385C171.323 125.919 170.88 125.379 170.56 124.742C170.24 124.104 170.043 123.418 169.969 122.682C169.895 121.947 169.994 121.162 170.24 120.378ZM172.356 121.015C172.184 121.603 172.159 122.143 172.307 122.658C172.455 123.173 172.725 123.639 173.119 124.031C173.513 124.423 174.03 124.717 174.645 124.889C175.26 125.061 175.826 125.11 176.392 125.012C176.933 124.913 177.401 124.668 177.819 124.325C178.238 123.982 178.508 123.491 178.681 122.927C178.853 122.364 178.878 121.8 178.73 121.285C178.582 120.77 178.336 120.304 177.942 119.912C177.549 119.519 177.032 119.225 176.417 119.054C175.802 118.882 175.211 118.833 174.67 118.931C174.128 119.029 173.636 119.274 173.242 119.642C172.824 119.985 172.553 120.451 172.356 121.015Z" fill="#337AE0"/>
<path d="M168.814 125.87L170.733 126.777L170.265 127.758C170.142 128.003 170.093 128.199 170.142 128.346C170.192 128.493 170.339 128.64 170.61 128.787L177.18 132.857L174.031 139.502L164.482 134.99L165.565 132.71L174.818 137.074L172.677 137.393L175.039 132.416L175.852 134.892L169.601 130.945C169.01 130.577 168.567 130.185 168.272 129.817C167.977 129.449 167.829 129.057 167.805 128.64C167.805 128.223 167.903 127.758 168.174 127.218L168.814 125.87Z" fill="#337AE0"/>
<path d="M163.523 136.56L165.295 137.736L164.458 138.962C164.261 139.257 164.138 139.551 164.089 139.82C164.04 140.09 164.089 140.409 164.187 140.728C164.31 141.046 164.507 141.439 164.803 141.905L168.592 147.911L167.165 150.045L162.514 142.174C162.219 141.684 162.022 141.194 161.948 140.728C161.85 140.262 161.85 139.796 161.973 139.33C162.071 138.864 162.292 138.398 162.612 137.933L163.523 136.56ZM163.695 140.532L172.776 141.708L171.348 143.841L163.597 142.714L163.695 140.532Z" fill="#337AE0"/>
<path d="M153.85 149.309L161.725 156.321L160.027 158.209L152.152 151.197L153.85 149.309ZM158.206 149.799C158.994 148.941 159.83 148.451 160.716 148.353C161.602 148.255 162.439 148.549 163.202 149.236L165.908 151.638L164.211 153.526L161.725 151.32C161.331 150.976 160.962 150.805 160.593 150.878C160.249 150.927 159.855 151.172 159.436 151.638C159.166 151.933 158.944 152.251 158.772 152.57C158.575 152.913 158.452 153.207 158.378 153.502L156.877 152.938C156.853 152.423 156.951 151.908 157.172 151.369C157.443 150.805 157.763 150.29 158.206 149.799Z" fill="#337AE0"/>
<path d="M150.701 152.643L157.419 160.759L155.45 162.377L149.396 155.071L150.75 153.967L152.128 165.123L150.085 166.815L143.367 158.675L145.336 157.057L151.488 164.461L150.11 165.589L148.658 154.311L150.701 152.643Z" fill="#337AE0"/>
<path d="M139.061 171.179L146.665 166.57L147.772 168.384L140.168 172.994L139.061 171.179ZM137.412 162.377L139.578 161.053L144.032 168.335L141.866 169.659L137.412 162.377Z" fill="#337AE0"/>
<path d="M133.475 164.608L137.732 174.244L135.419 175.274L131.924 167.379L132.17 167.502L130.054 168.433C129.66 168.605 129.39 168.85 129.267 169.169C129.143 169.488 129.143 169.831 129.316 170.223C129.463 170.591 129.709 170.812 130.029 170.91C130.349 171.008 130.694 170.983 131.112 170.811L134.311 169.414L135.173 171.351L131.998 172.748C131.26 173.067 130.571 173.239 129.906 173.214C129.242 173.19 128.676 173.043 128.159 172.699C127.642 172.381 127.273 171.89 126.978 171.277C126.707 170.664 126.609 170.051 126.707 169.438C126.806 168.826 127.052 168.286 127.495 167.771C127.913 167.256 128.504 166.84 129.242 166.521L133.475 164.608Z" fill="#337AE0"/>
<path d="M108.818 172.111L112.067 171.473L117.874 175.911L117.653 175.96L114.454 181.722L111.451 182.31L114.897 176.254L114.97 176.696L108.818 172.111ZM116.447 170.615L118.932 170.125L120.95 180.447L118.465 180.937L116.447 170.615Z" fill="#337AE0"/>
<path d="M103.994 172.037C104.831 171.988 105.594 172.086 106.308 172.332C107.021 172.577 107.637 172.92 108.178 173.386C108.719 173.852 109.138 174.416 109.458 175.078C109.777 175.74 109.95 176.451 109.974 177.26C110.024 178.044 109.901 178.78 109.654 179.466C109.408 180.153 109.039 180.741 108.547 181.256C108.055 181.771 107.464 182.188 106.775 182.482C106.086 182.801 105.323 182.973 104.487 182.997C103.65 183.046 102.887 182.948 102.173 182.703C101.46 182.458 100.845 182.114 100.303 181.649C99.7618 181.183 99.3435 180.619 99.0236 179.981C98.7037 179.319 98.5314 178.608 98.5068 177.824C98.4576 177.039 98.5806 176.279 98.8267 175.617C99.0728 174.931 99.4419 174.342 99.9341 173.827C100.426 173.312 101.017 172.896 101.706 172.601C102.395 172.258 103.158 172.086 103.994 172.037ZM104.093 174.269C103.478 174.293 102.961 174.465 102.518 174.759C102.075 175.053 101.731 175.47 101.509 175.96C101.263 176.475 101.165 177.039 101.189 177.677C101.214 178.314 101.386 178.878 101.657 179.344C101.952 179.81 102.321 180.177 102.789 180.447C103.256 180.692 103.798 180.815 104.413 180.79C105.003 180.766 105.545 180.594 105.988 180.3C106.431 180.006 106.775 179.589 107.021 179.099C107.267 178.608 107.366 178.02 107.341 177.382C107.317 176.745 107.144 176.181 106.874 175.715C106.578 175.225 106.209 174.857 105.742 174.612C105.225 174.342 104.684 174.244 104.093 174.269Z" fill="#337AE0"/>
<path d="M89.9428 171.621L88.7124 182.065L86.1777 181.771L87.4082 171.326L89.9428 171.621ZM93.8556 176.426L93.6095 178.535L89.0323 177.995L89.2784 175.887L93.8556 176.426ZM94.2247 172.135L96.7594 172.43L95.529 182.874L92.9943 182.58L94.2247 172.135Z" fill="#337AE0"/>
<path d="M76.8022 172.086L75.6702 170.051C76.2855 169.61 76.9991 169.316 77.8358 169.169C78.6725 169.022 79.5338 169.071 80.4197 169.316C81.2564 169.537 81.97 169.88 82.5606 170.321C83.1512 170.762 83.6434 171.302 84.0125 171.89C84.3816 172.503 84.6031 173.165 84.677 173.876C84.7754 174.587 84.7016 175.347 84.4801 176.132C84.2586 176.892 83.9387 177.579 83.4711 178.142C83.0282 178.706 82.4868 179.172 81.847 179.515C81.2072 179.859 80.5181 180.055 79.7799 180.128C79.0416 180.202 78.2541 180.128 77.4174 179.908C76.5315 179.663 75.7933 179.27 75.1535 178.731C74.5383 178.191 74.0707 177.579 73.7754 176.892L75.7933 175.715C75.9655 176.206 76.2608 176.647 76.63 177.015C77.0237 177.382 77.4667 177.628 78.008 177.775C78.574 177.922 79.1154 177.946 79.6568 177.799C80.1736 177.652 80.6412 177.382 81.0349 176.966C81.4286 176.573 81.6993 176.058 81.8716 175.445C82.0438 174.833 82.0684 174.244 81.9454 173.705C81.8224 173.165 81.5763 172.675 81.1825 172.283C80.8134 171.89 80.3212 171.621 79.7553 171.449C79.2139 171.302 78.6971 171.302 78.1803 171.424C77.6881 171.523 77.2206 171.768 76.8022 172.086Z" fill="#337AE0"/>
<path d="M75.1042 167.943L74.2675 169.88L72.8895 169.291C72.5696 169.144 72.2496 169.095 71.9789 169.095C71.7083 169.095 71.413 169.193 71.093 169.365C70.7977 169.536 70.4286 169.806 70.0349 170.174L64.7687 174.955L62.4062 173.925L69.3458 167.967C69.7888 167.6 70.2317 167.33 70.6747 167.134C71.1177 166.962 71.5852 166.889 72.0528 166.913C72.5203 166.938 73.0125 167.06 73.5539 167.281L75.1042 167.943ZM71.1915 168.801L71.659 177.922L69.2966 176.892L69.0505 169.095L71.1915 168.801Z" fill="#337AE0"/>
<path d="M67.8925 164.952L66.8097 166.766L65.8746 166.227C65.6285 166.079 65.4316 166.03 65.3086 166.055C65.1609 166.079 65.0133 166.227 64.8164 166.472L60.1654 172.626L53.8164 168.899L59.1811 159.852L61.3712 161.127L56.1542 169.904L56.0312 167.747L60.7806 170.542L58.2213 171.13L62.7493 165.27C63.1922 164.706 63.586 164.314 63.9797 164.044C64.3734 163.775 64.7672 163.677 65.1855 163.701C65.6039 163.726 66.0468 163.897 66.5636 164.192L67.8925 164.952Z" fill="#337AE0"/>
<path d="M57.5336 158.601L50.8893 166.791L48.9206 165.197L54.3591 158.503L54.3591 158.773L52.5627 157.327C52.2182 157.057 51.8737 156.934 51.5537 156.959C51.2092 156.983 50.9139 157.155 50.6432 157.498C50.3972 157.792 50.2987 158.111 50.3479 158.454C50.3972 158.773 50.594 159.092 50.9385 159.362L53.6455 161.544L52.3166 163.186L49.6097 161.004C48.9699 160.489 48.5269 159.95 48.2316 159.362C47.9363 158.773 47.8379 158.185 47.8871 157.572C47.9609 156.983 48.1824 156.419 48.6253 155.88C49.0437 155.365 49.5605 154.997 50.1265 154.801C50.7171 154.605 51.3323 154.581 51.9721 154.728C52.6365 154.875 53.2517 155.193 53.8916 155.708L57.5336 158.601Z" fill="#337AE0"/>
<path d="M39.4222 153.575L45.6728 159.876L44.147 161.372L37.8965 155.071L39.4222 153.575ZM47.6414 149.897L49.4379 151.687L43.3596 157.694L41.5631 155.904L47.6414 149.897Z" fill="#337AE0"/>
<path d="M39.3721 139.894L41.0454 142.052L36.1237 149.848L35.73 149.333L44.5398 146.514L46.164 148.598L35.287 151.81L33.5645 149.579L39.3721 139.894ZM39.2244 142.836L43.2602 148.009L41.5868 149.309L37.551 144.136L39.2244 142.836Z" fill="#337AE0"/>
<path d="M38.7319 138.864L29.4791 143.915L28.2733 141.684L36.9847 136.927L36.3203 138.84L33.0966 132.955L34.9914 133.299L26.28 138.055L25.0742 135.824L34.327 130.773L38.7319 138.864ZM37.0339 130.43L32.9243 132.686L31.7923 130.626L35.902 128.37L37.0339 130.43Z" fill="#337AE0"/>
<path d="M33.1456 128.321L23.2038 131.852L22.3425 129.474L31.3 126.286L31.8906 127.929L20.9152 125.404L20.0293 122.903L29.9711 119.372L30.8324 121.751L21.7519 124.962L21.1613 123.295L32.2597 125.821L33.1456 128.321Z" fill="#337AE0"/>
<path d="M29.2585 117.534L18.8245 119.127L18.4308 116.626L28.8648 115.033L29.2585 117.534ZM28.0773 108.266C28.2003 109.026 28.1757 109.761 28.0035 110.448C27.8312 111.134 27.5359 111.747 27.1176 112.311C26.6992 112.851 26.1824 113.316 25.5426 113.684C24.9028 114.052 24.2138 114.297 23.4263 114.42C22.6388 114.542 21.9006 114.518 21.1869 114.371C20.4733 114.199 19.8581 113.929 19.2921 113.537C18.7261 113.145 18.2585 112.63 17.8894 112.041C17.5202 111.429 17.2742 110.742 17.1511 109.982C17.0281 109.222 17.0527 108.486 17.2249 107.8C17.3972 107.113 17.6925 106.5 18.1109 105.936C18.5292 105.397 19.046 104.931 19.6612 104.563C20.2764 104.196 20.99 103.95 21.7775 103.828C22.565 103.705 23.3032 103.73 24.0169 103.877C24.7305 104.049 25.3704 104.318 25.9117 104.711C26.4777 105.103 26.9453 105.618 27.3144 106.206C27.7082 106.819 27.9542 107.506 28.0773 108.266ZM24.7798 116.847L22.688 117.166L22.0236 112.924L24.1153 112.605L24.7798 116.847ZM25.8625 108.609C25.7887 108.07 25.5672 107.628 25.2473 107.26C24.9274 106.893 24.4844 106.647 23.9677 106.5C23.4509 106.353 22.8603 106.329 22.1959 106.427C21.556 106.525 20.99 106.721 20.5471 107.015C20.1041 107.309 19.7596 107.677 19.5628 108.119C19.3659 108.56 19.2921 109.05 19.3905 109.59C19.4643 110.129 19.6858 110.57 20.0057 110.938C20.3256 111.306 20.7686 111.551 21.2853 111.698C21.8021 111.845 22.3927 111.87 23.0325 111.772C23.6724 111.674 24.2384 111.478 24.7059 111.183C25.1735 110.889 25.4934 110.521 25.6903 110.08C25.8871 109.639 25.961 109.148 25.8625 108.609Z" fill="#337AE0"/>
<circle cx="100" cy="100" r="35" fill="#337AE0"/>
<path fill-rule="evenodd" clip-rule="evenodd" d="M87.9081 85.6194L114.046 85.6933L114.12 111.831L104.831 111.857L104.802 101.505L88.9288 117.378L82.3608 110.81L98.2339 94.9371L87.8818 94.9078L87.9081 85.6194Z" stroke="white" stroke-width="2"/>
</svg>
