<svg width="18" height="18" viewBox="0 0 18 18" fill="none" xmlns="http://www.w3.org/2000/svg">
<g clip-path="url(#clip0_1202_606)">
<path d="M6.51687 11.6901C6.66169 11.6901 6.78583 11.6487 6.90997 11.5452L8.73066 10.097C8.81342 10.1176 8.91687 10.1383 9.02031 10.1383C9.641 10.1383 10.1582 9.62109 10.1582 9.0004C10.1582 8.6073 9.95135 8.25558 9.641 8.04868V4.24178C9.641 3.89006 9.37204 3.62109 9.02031 3.62109C8.66859 3.62109 8.39962 3.89006 8.39962 4.24178V8.04868C8.08928 8.25558 7.88238 8.6073 7.88238 9.0004C7.88238 9.06247 7.88238 9.12454 7.90307 9.18661L6.14445 10.5935C5.87549 10.8004 5.83411 11.1935 6.041 11.4625C6.14445 11.6073 6.33066 11.6901 6.51687 11.6901ZM9.10307 9.0004C9.10307 9.02109 9.10307 9.04178 9.08238 9.04178C9.08238 9.04178 9.08238 9.02109 9.06169 9.02109C9.06169 9.02109 9.06169 9.02109 9.041 9.0004C9.06169 9.0004 9.08238 9.0004 9.10307 9.0004Z" fill="#337AE0"/>
<path d="M9 18C13.9655 18 18 13.9655 18 9C18 4.03448 13.9655 0 9 0C4.03448 0 0 4.03448 0 9C0 13.9655 4.03448 18 9 18ZM1.55172 8.37931H1.26207C1.57241 4.5931 4.5931 1.57241 8.37931 1.26207V1.55172C8.37931 1.90345 8.64828 2.17241 9 2.17241C9.35172 2.17241 9.62069 1.90345 9.62069 1.55172V1.26207C13.4069 1.57241 16.4276 4.5931 16.7379 8.37931H16.4483C16.0966 8.37931 15.8276 8.64828 15.8276 9C15.8276 9.35172 16.0966 9.62069 16.4483 9.62069H16.7379C16.4276 13.4069 13.4069 16.4276 9.62069 16.7379V16.4483C9.62069 16.0966 9.35172 15.8276 9 15.8276C8.64828 15.8276 8.37931 16.0966 8.37931 16.4483V16.7379C4.5931 16.4276 1.57241 13.4069 1.26207 9.62069H1.55172C1.90345 9.62069 2.17241 9.35172 2.17241 9C2.17241 8.64828 1.90345 8.37931 1.55172 8.37931Z" fill="#337AE0"/>
</g>
<defs>
<clipPath id="clip0_1202_606">
<rect width="18" height="18" fill="white"/>
</clipPath>
</defs>
</svg>
