<svg width="36" height="36" viewBox="0 0 36 36" fill="none" xmlns="http://www.w3.org/2000/svg">
<path d="M5.2656 25.2218L5.47581 25.5175L5.37442 25.8659L3.12927 33.5804L3.12933 33.5804L3.1265 33.5897C3.06368 33.7956 3.02654 33.98 3.01913 34.124C3.01782 34.1495 3.01755 34.1714 3.01792 34.1901C3.13678 34.1835 3.34832 34.1436 3.68413 34.0121L11.0981 30.3348L11.4039 30.1831L11.7192 30.3141C13.6219 31.105 15.7691 31.5425 18.0005 31.5425C26.4219 31.5425 33.1328 25.3062 33.1328 17.7345C33.1328 10.1627 26.4219 3.92645 18.0005 3.92645C9.57898 3.92645 2.86811 10.1627 2.86811 17.7345C2.86811 20.518 3.7311 23.063 5.2656 25.2218Z" stroke="#337AE0" stroke-width="1.5"/>
<path d="M16.0852 14.8059L17.9977 11.6101L19.9102 14.8059L20.5538 14.4208L19.9102 14.8059C20.0843 15.0969 20.3718 15.2968 20.6971 15.3654L24.3727 16.14L21.879 18.8563L22.4315 19.3635L21.879 18.8563C21.6503 19.1054 21.5363 19.4413 21.5717 19.782L21.9512 23.4295L18.4775 21.9397C18.1714 21.8084 17.824 21.8084 17.5179 21.9397L14.0442 23.4295L14.4237 19.782C14.4591 19.4413 14.3451 19.1054 14.1164 18.8563L11.6227 16.14L15.2983 15.3654C15.6236 15.2968 15.9111 15.0969 16.0852 14.8059ZM22.4074 23.6252L22.407 23.625L22.4074 23.6252ZM13.588 23.6252C13.5881 23.6252 13.5882 23.6251 13.5884 23.625L13.588 23.6252Z" stroke="#337AE0" stroke-width="1.5"/>
</svg>
