<svg width="16" height="16" viewBox="0 0 16 16" fill="none" xmlns="http://www.w3.org/2000/svg">
<path fill-rule="evenodd" clip-rule="evenodd" d="M12 3C12 2.44772 11.5523 2 11 2C10.4477 2 10 2.44772 10 3V5V7C10 7.55228 10.4477 8 11 8C11.5523 8 12 7.55228 12 7V6H14C14.5523 6 15 5.55228 15 5C15 4.44772 14.5523 4 14 4H12V3ZM2 4C1.44772 4 1 4.44772 1 5C1 5.55228 1.44772 6 2 6H7C7.55228 6 8 5.55228 8 5C8 4.44772 7.55228 4 7 4H2ZM4 9C4 8.44772 4.44771 8 5 8C5.55229 8 6 8.44772 6 9V11V13C6 13.5523 5.55229 14 5 14C4.44771 14 4 13.5523 4 13V12H2C1.44771 12 1 11.5523 1 11C1 10.4477 1.44771 10 2 10H4V9ZM14 10C14.5523 10 15 10.4477 15 11C15 11.5523 14.5523 12 14 12H9C8.44772 12 8 11.5523 8 11C8 10.4477 8.44772 10 9 10H14Z" fill="#337AE0"/>
</svg>
