<svg width="57" height="73" viewBox="0 0 57 73" fill="none" xmlns="http://www.w3.org/2000/svg">
<path d="M57 28.2946C57 43.9212 28.5 73 28.5 73C28.5 73 0 43.9212 0 28.2946C0 12.6679 12.7599 0 28.5 0C44.2401 0 57 12.6679 57 28.2946Z" fill="#164D9D"/>
<g clip-path="url(#clip0_428_5314)">
<path d="M17.7486 35.1807C17.2499 35.1807 16.8418 35.5834 16.8418 36.1204C16.8418 36.6126 17.2499 37.0153 17.7939 37.0153C18.2927 37.0153 18.7007 36.6126 18.7007 36.0756C18.6554 35.5834 18.2473 35.1807 17.7486 35.1807Z" fill="#8FCEE8"/>
<path d="M13.3506 20.8171C13.8493 20.8171 14.2574 20.3696 14.2574 19.8774C14.2574 19.3851 13.804 18.9824 13.3052 18.9824C12.8065 18.9824 12.3984 19.4299 12.3984 19.9221C12.4438 20.4143 12.8518 20.8171 13.3506 20.8171Z" fill="#8FCEE8"/>
<path d="M8.95214 24.9782C9.45088 24.9782 9.85894 24.5755 9.85894 24.0385C9.85894 23.5463 9.45088 23.1436 8.9068 23.1436C8.40806 23.1436 8 23.5463 8 24.0832C8 24.5755 8.40806 24.9782 8.95214 24.9782Z" fill="#1B87C5"/>
<path d="M11.2644 31.377C10.6296 31.377 10.1309 31.9139 10.1309 32.5404C10.1309 33.1668 10.6749 33.6591 11.3097 33.6591C11.9445 33.6591 12.4432 33.1221 12.4432 32.4956C12.3979 31.8692 11.8991 31.377 11.2644 31.377Z" fill="#1B87C5"/>
<path d="M16.2524 32.4961C16.2524 31.7801 15.6629 31.2432 14.9375 31.2432C14.212 31.2432 13.668 31.8249 13.668 32.5408C13.668 33.2568 14.2574 33.7937 14.9828 33.7937C15.7083 33.7937 16.2977 33.212 16.2524 32.4961Z" fill="#8FCEE8"/>
<path d="M13.5314 28.245C13.5314 27.6633 13.0326 27.2158 12.4432 27.2158C11.8538 27.2158 11.4004 27.708 11.4004 28.2898C11.4004 28.8715 11.8538 29.3189 12.4432 29.3189C13.0326 29.3189 13.5314 28.8267 13.5314 28.245Z" fill="#8FCEE8"/>
<path d="M21.2846 34.9567C20.6498 34.9567 20.1057 35.4937 20.1511 36.1201C20.1511 36.7466 20.6952 37.2836 21.3299 37.2388C21.9647 37.2388 22.5088 36.7018 22.4634 36.0754C22.4634 35.4489 21.9647 34.912 21.2846 34.9567Z" fill="#F8AD3C"/>
<path d="M19.0166 30.9297C18.1098 30.9297 17.4297 31.6456 17.4297 32.5406C17.4297 33.4355 18.1551 34.1067 19.0619 34.1067C19.9687 34.1067 20.6488 33.3908 20.6488 32.4958C20.6035 31.6456 19.8781 30.9297 19.0166 30.9297Z" fill="#F8AD3C"/>
<path d="M18.3821 28.1998C18.3821 27.3048 17.6113 26.5889 16.7045 26.5889C15.7977 26.5889 15.0723 27.3496 15.0723 28.2445C15.0723 29.1395 15.843 29.8554 16.7498 29.8554C17.702 29.8107 18.4274 29.0947 18.3821 28.1998Z" fill="#F8AD3C"/>
<path d="M17.5213 21.1296C18.2921 21.1296 18.8815 20.5032 18.8361 19.7425C18.8361 18.9818 18.2014 18.4001 17.4306 18.4448C16.6598 18.4448 16.0704 19.0713 16.1157 19.832C16.1157 20.5479 16.7505 21.1296 17.5213 21.1296Z" fill="#F8AD3C"/>
<path d="M16.433 25.4251C17.3398 25.4251 18.0199 24.7091 18.0199 23.8142C18.0199 22.964 17.2945 22.248 16.3877 22.248C15.4809 22.248 14.8008 22.964 14.8008 23.8589C14.8461 24.7091 15.5716 25.4251 16.433 25.4251Z" fill="#F8AD3C"/>
<path d="M12.0797 25.2464C12.7598 25.2464 13.3038 24.7095 13.3038 24.0382C13.3038 23.367 12.7598 22.8301 12.0797 22.8301C11.3995 22.8301 10.8555 23.367 10.8555 24.0382C10.8555 24.7095 11.4449 25.2464 12.0797 25.2464Z" fill="#8FCEE8"/>
<path d="M25.2285 34.7783C24.5484 34.7783 23.959 35.36 23.959 36.0312C23.959 36.7024 24.5484 37.2842 25.2285 37.2842C25.9086 37.2842 26.498 36.7024 26.498 36.0312C26.498 35.36 25.9086 34.7783 25.2285 34.7783Z" fill="white"/>
<path d="M23.0986 30.9297C22.1918 30.9297 21.5117 31.6456 21.5117 32.5406C21.5117 33.4355 22.2372 34.1067 23.144 34.1067C24.0508 34.1067 24.7309 33.3908 24.7309 32.4958C24.7309 31.6456 24.0054 30.9297 23.0986 30.9297Z" fill="white"/>
<path d="M22.7805 28.1998C22.7805 27.3048 22.0097 26.5889 21.1029 26.5889C20.1961 26.5889 19.4707 27.3496 19.4707 28.2445C19.4707 29.1395 20.2415 29.8554 21.1483 29.8554C22.0551 29.8107 22.7805 29.0947 22.7805 28.1998Z" fill="white"/>
<path d="M20.8315 25.4261C21.7383 25.4261 22.4184 24.7101 22.4184 23.8152C22.4184 22.965 21.6929 22.249 20.7861 22.249C19.8793 22.249 19.1992 22.965 19.1992 23.8599C19.2446 24.7101 19.97 25.4261 20.8315 25.4261Z" fill="white"/>
<path d="M21.9195 21.2643C22.781 21.2643 23.5064 20.5036 23.4611 19.6534C23.4611 18.7585 22.6903 18.0872 21.8289 18.132C20.9221 18.132 20.242 18.8927 20.2873 19.7429C20.2873 20.5931 21.0127 21.2643 21.9195 21.2643Z" fill="white"/>
<path d="M28.8108 35.7179C24.4128 31.6907 21.103 16.2977 27.5413 15C16.8864 15.9397 23.5967 36.7471 29.2642 38C32.1206 37.4183 29.4002 30.3482 32.5287 30.6615C32.5287 30.6615 30.443 29.2743 28.8108 35.7179Z" fill="white"/>
<path d="M43.8177 20.6824C43.6817 17.8186 41.1426 14.9548 38.2862 14.9995C31.7119 14.9995 31.0771 21.7116 26.9512 16.0287C30.2157 25.5599 37.334 11.8225 41.4146 19.34C42.9109 24.5754 40.3718 31.9139 36.9713 35.7622C35.2031 28.6027 31.9839 28.3789 29.8983 29.3186C31.7119 28.9159 34.4323 29.0949 35.2031 36.7466C38.8303 42.8322 45.2232 24.7097 43.8177 20.6824Z" fill="white"/>
<path d="M34.1152 19.2951C37.7878 17.1025 42.2311 18.3554 39.7827 27.1706C39.7827 24.4858 39.6921 17.9975 34.1152 19.2951Z" fill="#8FCEE8"/>
</g>
<defs>
<clipPath id="clip0_428_5314">
<rect width="36" height="23" fill="white" transform="translate(8 15)"/>
</clipPath>
</defs>
</svg>
