<svg width="17" height="16" viewBox="0 0 17 16" fill="none" xmlns="http://www.w3.org/2000/svg">
<path fill-rule="evenodd" clip-rule="evenodd" d="M4.5 7C4.5 4.79086 6.29086 3 8.5 3C10.741 3 12.5 4.58361 12.5 7C12.5 8.59282 11.4879 10.0978 10.2929 11.2929C9.71307 11.8727 9.12958 12.3399 8.68989 12.6623C8.62286 12.7115 8.55938 12.7571 8.5 12.7991C8.44062 12.7571 8.37714 12.7115 8.31011 12.6623C7.87042 12.3399 7.28693 11.8727 6.70711 11.2929C5.51205 10.0978 4.5 8.59282 4.5 7ZM7.98495 14.8572C7.98524 14.8573 7.9855 14.8575 8.5 14L7.9855 14.8575L8.5 15.1662L9.0145 14.8575L8.5 14C9.0145 14.8575 9.01476 14.8573 9.01505 14.8572L9.01571 14.8568L9.01739 14.8558L9.02211 14.8529L9.03691 14.8439C9.04912 14.8364 9.06597 14.826 9.08717 14.8127C9.12954 14.7861 9.18932 14.7481 9.26402 14.699C9.41331 14.6009 9.62284 14.4583 9.87261 14.2752C10.3704 13.9101 11.0369 13.3773 11.7071 12.7071C13.0121 11.4022 14.5 9.40718 14.5 7C14.5 3.41639 11.7819 1 8.5 1C5.18629 1 2.5 3.68629 2.5 7C2.5 9.40718 3.98795 11.4022 5.29289 12.7071C5.96307 13.3773 6.62958 13.9101 7.12739 14.2752C7.37716 14.4583 7.58669 14.6009 7.73598 14.699C7.81068 14.7481 7.87046 14.7861 7.91283 14.8127C7.93403 14.826 7.95088 14.8364 7.96309 14.8439L7.97789 14.8529L7.98261 14.8558L7.98429 14.8568L7.98495 14.8572ZM8.5 8C9.32843 8 10 7.32843 10 6.5C10 5.67157 9.32843 5 8.5 5C7.67157 5 7 5.67157 7 6.5C7 7.32843 7.67157 8 8.5 8Z" fill="#337AE0"/>
</svg>
