<svg width="40" height="40" viewBox="0 0 40 40" fill="none" xmlns="http://www.w3.org/2000/svg">
<g clip-path="url(#clip0_1024_121)">
<path d="M0 20C0 8.9543 8.9543 0 20 0C31.0457 0 40 8.9543 40 20C40 31.0457 31.0457 40 20 40C8.9543 40 0 31.0457 0 20Z" fill="#F68634"/>
<path d="M22.1633 24.5333L25.1522 27.4188C25.7645 28.0086 25.7645 28.9665 25.1522 29.5569C24.5405 30.1474 23.5491 30.1474 22.9381 29.5569L19.9995 26.7215L17.0633 29.5569C16.7572 29.8518 16.356 29.9994 15.9549 29.9994C15.5543 29.9994 15.1538 29.8518 14.8477 29.5569C14.236 28.9665 14.236 28.0092 14.847 27.4188L17.8362 24.5333C16.7479 24.294 15.6983 23.8777 14.7315 23.2923C13.9999 22.847 13.7801 21.9141 14.2411 21.2072C14.7008 20.4995 15.6676 20.2864 16.4005 20.7317C18.5893 22.0608 21.409 22.0611 23.599 20.7317C24.332 20.2864 25.2984 20.4995 25.7591 21.2072C26.22 21.9135 25.9996 22.847 25.268 23.2923C24.3012 23.8784 23.2516 24.294 22.1633 24.5333Z" fill="white"/>
<path fill-rule="evenodd" clip-rule="evenodd" d="M19.9872 20.3211C17.0386 20.3211 14.6406 18.0066 14.6406 15.1613C14.6406 12.3151 17.0386 10 19.9872 10C22.9364 10 25.3338 12.3151 25.3338 15.1613C25.3338 18.0066 22.9364 20.3211 19.9872 20.3211ZM19.9872 13.0247C18.7674 13.0247 17.7735 13.9829 17.7735 15.1613C17.7735 16.3388 18.7674 17.2976 19.9872 17.2976C21.208 17.2976 22.201 16.3388 22.201 15.1613C22.201 13.9829 21.208 13.0247 19.9872 13.0247Z" fill="white"/>
</g>
<defs>
<clipPath id="clip0_1024_121">
<rect width="40" height="40" fill="white"/>
</clipPath>
</defs>
</svg>
