<svg width="24" height="24" viewBox="0 0 24 24" fill="none" xmlns="http://www.w3.org/2000/svg">
<path fill-rule="evenodd" clip-rule="evenodd" d="M19.3553 4.95076C18.8575 4.49217 16.8456 3.03416 12.3643 3.01436C12.3643 3.01436 7.07966 2.69622 4.50349 5.05521C3.06945 6.48711 2.56497 8.58228 2.51176 11.1799C2.45855 13.7775 2.3897 18.6455 7.09018 19.9654H7.09469L7.09168 21.9796C7.09168 21.9796 7.06162 22.795 7.59946 22.9613C8.25004 23.163 8.63186 22.5432 9.25297 21.8751C9.5939 21.5084 10.0647 20.9697 10.4194 20.5579C13.6342 20.828 16.1066 20.2106 16.3874 20.1194C17.0365 19.9093 20.7094 19.4393 21.3068 14.5719C21.9234 9.55469 21.0085 6.38116 19.3553 4.95076ZM14.0345 11.2498C14.0815 11.2945 14.144 11.3194 14.2089 11.3194H14.2216C14.2548 11.3178 14.2874 11.3096 14.3175 11.2954C14.3476 11.2811 14.3745 11.2611 14.3969 11.2365C14.4192 11.2119 14.4365 11.1831 14.4476 11.1518C14.4588 11.1205 14.4637 11.0873 14.4621 11.0541C14.4062 9.93285 13.7995 9.31069 12.7082 9.25066C12.6421 9.24877 12.5779 9.27273 12.5292 9.31742C12.4806 9.36211 12.4514 9.42401 12.4478 9.4899C12.4443 9.5558 12.4666 9.62048 12.5101 9.67015C12.5537 9.71981 12.6149 9.75054 12.6808 9.75577C13.5079 9.80019 13.9131 10.2207 13.9561 11.0793C13.9593 11.1441 13.9874 11.2051 14.0345 11.2498ZM15.5035 11.7546H15.5096C15.5759 11.7545 15.6395 11.7284 15.6868 11.682C15.7341 11.6356 15.7614 11.5726 15.7627 11.5064C15.7849 10.5187 15.4822 9.67774 14.8734 9.01297C14.2646 8.34819 13.4084 7.97093 12.3282 7.892C12.2611 7.8871 12.1947 7.90903 12.1438 7.95296C12.0928 7.99689 12.0615 8.05922 12.0566 8.12625C12.0517 8.19327 12.0736 8.25949 12.1176 8.31034C12.1616 8.36119 12.2241 8.39251 12.2912 8.39741C13.2512 8.46764 13.9712 8.77977 14.4997 9.35541C15.0282 9.93105 15.2757 10.6312 15.2561 11.4959C15.2546 11.563 15.2798 11.6279 15.3262 11.6764C15.3726 11.7249 15.4364 11.753 15.5035 11.7546ZM16.662 12.2003C16.7094 12.2473 16.7736 12.2737 16.8404 12.2738L16.8428 12.2744C16.91 12.2739 16.9742 12.2467 17.0213 12.1989C17.0685 12.1512 17.0947 12.0867 17.0942 12.0196C17.0809 10.353 16.5693 9.01506 15.5769 8.04986C14.5844 7.08466 13.3356 6.59005 11.8649 6.57924H11.8628C11.7956 6.57901 11.731 6.60543 11.6833 6.65271C11.6356 6.69999 11.6087 6.76425 11.6084 6.83135C11.6082 6.89845 11.6347 6.9629 11.682 7.01052C11.7294 7.05813 11.7937 7.08502 11.861 7.08526C13.1967 7.09486 14.3277 7.54145 15.223 8.41181C16.1291 9.29478 16.5753 10.4761 16.587 12.0226C16.5876 12.0894 16.6145 12.1532 16.662 12.2003ZM13.2926 14.2492C13.1008 14.4851 12.7445 14.4551 12.7445 14.4551C10.1407 13.7916 9.44384 11.1586 9.44384 11.1586C9.44384 11.1586 9.41257 10.8029 9.65008 10.6114L10.1206 10.2381C10.3539 10.0586 10.5027 9.62311 10.2652 9.19784C10.083 8.87861 9.88495 8.56869 9.67172 8.26925C9.46458 7.98683 8.98206 7.40849 8.98026 7.40669C8.74756 7.13267 8.40544 7.06905 8.04467 7.25663C8.04358 7.25663 8.04208 7.25711 8.04064 7.25758C8.03931 7.25801 8.03802 7.25843 8.03715 7.25843C7.67834 7.46481 7.35479 7.72702 7.07872 8.03515C7.07778 8.03703 7.07684 8.03793 7.0759 8.03883C7.07503 8.03965 7.07417 8.04047 7.07331 8.04205C6.85043 8.31057 6.72286 8.57378 6.6906 8.83168C6.6839 8.86971 6.68158 8.90838 6.68368 8.94693C6.68248 9.06082 6.69984 9.17415 6.73509 9.28247L6.74742 9.29087C6.85985 9.68944 7.14125 10.3533 7.75275 11.4602C8.10252 12.1004 8.50591 12.7099 8.95861 13.2822C9.18542 13.5691 9.42854 13.8428 9.68676 14.1019L9.69604 14.1112C9.70215 14.1174 9.70821 14.1235 9.71441 14.1295L9.79739 14.2123C10.0569 14.4701 10.331 14.7128 10.6184 14.9392C11.1918 15.3912 11.8025 15.7939 12.4439 16.143C13.5524 16.7535 14.218 17.0344 14.6166 17.1467L14.625 17.159C14.7335 17.1942 14.8471 17.2117 14.9612 17.2106C14.9998 17.2125 15.0385 17.21 15.0766 17.2034C15.3353 17.1728 15.5988 17.0456 15.867 16.8219C15.8686 16.821 15.8694 16.8202 15.8703 16.8193C15.8712 16.8183 15.8721 16.8174 15.8739 16.8165C16.1826 16.5408 16.4453 16.2179 16.6522 15.8597C16.6522 15.8579 16.6537 15.8543 16.6537 15.8522C16.8416 15.4921 16.7779 15.1505 16.5019 14.9179C16.5019 14.9179 16.4791 14.8994 16.441 14.8681C16.2845 14.7394 15.8654 14.3946 15.6379 14.2276C15.3382 14.0148 15.0281 13.8171 14.7086 13.6352C14.2823 13.3981 13.847 13.5467 13.6666 13.7795L13.2926 14.2492Z" fill="#7360F2"/>
</svg>
